M48
;Layer_Color=9474304
;FILE_FORMAT=2:5
INCH,LZ
;TYPE=PLATED
T1F00S00C0.02800
T2F00S00C0.03543
T3F00S00C0.04000
T4F00S00C0.05118
%
T01
X0352658Y0186909
X0374606Y02125
X0383385Y0223731
X0392549Y0223634
X0391043Y0239469
X038809Y0258268
X0398917Y0258169
X0410335Y0259055
X0418426Y0258576
X0412402Y0272539
X0406496Y0278445
X0398445Y0285939
X0418799Y0311221
X034311Y0310236
X0333982Y0310354
X0334744Y0287795
X034416Y0285245
X0343431Y0292691
X0320374Y0287598
X0358563Y0277559
X0361041Y0232492
X0367913Y0231201
X0410748Y0220877
X0405512Y0207874
X043435Y0208268
X0427362Y0200197
X0396949Y0173327
X0388583Y0174213
X039252Y0156988
X0303642Y0159941
X0302461Y018061
X0305906Y0229528
X0308366Y0251378
X0308071Y029252
X0306201Y0301476
X0290945Y0308071
X0273031Y0283858
X0280315Y0267224
X0272736Y0238681
X0273524Y0369193
X0249902Y0371161
X0272539Y0400984
X0297933Y0375886
X0308169Y0368602
X0310433Y0384941
X0290945Y0352953
X032559Y0356398
X0338206Y0355332
X0344505Y0359959
X0349902Y0365846
X0358268Y0361221
X0366831Y035561
X0369801Y0372164
X0364272Y0376575
X0355413Y039124
X0337205Y0398917
X0339173Y0374114
X0345866Y0338484
X0356988Y0334646
X0351279Y0328839
X0341651Y032413
X0328953Y0326886
X0329528Y0334252
X0354921Y0313779
X0386221Y0329134
X0418307Y0332801
X042313Y0317421
X0402756Y0384154
X0391437Y0375984
X0411614Y040689
T02
X0408465Y0229213
Y0239213
Y0249213
X0431043Y0266535
Y0276535
Y0286535
Y0296535
Y0306535
X0441043
Y0296535
Y0286535
Y0276535
Y0266535
Y0316535
Y0326535
Y0336535
Y0346535
Y0356535
Y0366535
Y0376535
X0431043
Y0366535
Y0356535
Y0346535
Y0336535
Y0326535
Y0316535
X0410827Y0477205
X0400827
X0390827
Y0487205
X0400827
X0410827
T03
X0324587Y0213878
X0334587
X0344587
X0344193Y0245276
X0334193
X0324193
X0319409Y0276378
X032941
X0339409
X034941
T04
X0250098Y0143799
X029685Y0149016
X0315059
X0250098Y0163799
X0250295Y0188976
Y0208976
X0245177Y0400197
X0292421
Y0448228
X0268799Y0456102
X0245177Y0448228
X03125Y0448032
X0336122Y0455905
X0359744Y0448032
Y04
X03125
X0316516Y0486122
X0336516
X0356516
X0288602Y0486221
X0268602
X0248602
M30
