%FSLAX25Y25*%
%MOIN*%
G70*
G01*
G75*
G04 Layer_Color=32896*
%ADD10O,0.06890X0.02165*%
%ADD11O,0.02165X0.06890*%
G04:AMPARAMS|DCode=12|XSize=78.74mil|YSize=39.37mil|CornerRadius=7.87mil|HoleSize=0mil|Usage=FLASHONLY|Rotation=270.000|XOffset=0mil|YOffset=0mil|HoleType=Round|Shape=RoundedRectangle|*
%AMROUNDEDRECTD12*
21,1,0.07874,0.02362,0,0,270.0*
21,1,0.06299,0.03937,0,0,270.0*
1,1,0.01575,-0.01181,-0.03150*
1,1,0.01575,-0.01181,0.03150*
1,1,0.01575,0.01181,0.03150*
1,1,0.01575,0.01181,-0.03150*
%
%ADD12ROUNDEDRECTD12*%
G04:AMPARAMS|DCode=13|XSize=39.37mil|YSize=78.74mil|CornerRadius=7.87mil|HoleSize=0mil|Usage=FLASHONLY|Rotation=270.000|XOffset=0mil|YOffset=0mil|HoleType=Round|Shape=RoundedRectangle|*
%AMROUNDEDRECTD13*
21,1,0.03937,0.06299,0,0,270.0*
21,1,0.02362,0.07874,0,0,270.0*
1,1,0.01575,-0.03150,-0.01181*
1,1,0.01575,-0.03150,0.01181*
1,1,0.01575,0.03150,0.01181*
1,1,0.01575,0.03150,-0.01181*
%
%ADD13ROUNDEDRECTD13*%
%ADD14R,0.03937X0.09449*%
%ADD15R,0.12992X0.09449*%
G04:AMPARAMS|DCode=16|XSize=83mil|YSize=55mil|CornerRadius=13.75mil|HoleSize=0mil|Usage=FLASHONLY|Rotation=90.000|XOffset=0mil|YOffset=0mil|HoleType=Round|Shape=RoundedRectangle|*
%AMROUNDEDRECTD16*
21,1,0.08300,0.02750,0,0,90.0*
21,1,0.05550,0.05500,0,0,90.0*
1,1,0.02750,0.01375,0.02775*
1,1,0.02750,0.01375,-0.02775*
1,1,0.02750,-0.01375,-0.02775*
1,1,0.02750,-0.01375,0.02775*
%
%ADD16ROUNDEDRECTD16*%
%ADD17R,0.03937X0.03937*%
%ADD18R,0.03937X0.03937*%
G04:AMPARAMS|DCode=19|XSize=74.8mil|YSize=74.8mil|CornerRadius=18.7mil|HoleSize=0mil|Usage=FLASHONLY|Rotation=90.000|XOffset=0mil|YOffset=0mil|HoleType=Round|Shape=RoundedRectangle|*
%AMROUNDEDRECTD19*
21,1,0.07480,0.03740,0,0,90.0*
21,1,0.03740,0.07480,0,0,90.0*
1,1,0.03740,0.01870,0.01870*
1,1,0.03740,0.01870,-0.01870*
1,1,0.03740,-0.01870,-0.01870*
1,1,0.03740,-0.01870,0.01870*
%
%ADD19ROUNDEDRECTD19*%
G04:AMPARAMS|DCode=20|XSize=15.75mil|YSize=53.15mil|CornerRadius=3.94mil|HoleSize=0mil|Usage=FLASHONLY|Rotation=90.000|XOffset=0mil|YOffset=0mil|HoleType=Round|Shape=RoundedRectangle|*
%AMROUNDEDRECTD20*
21,1,0.01575,0.04528,0,0,90.0*
21,1,0.00787,0.05315,0,0,90.0*
1,1,0.00787,0.02264,0.00394*
1,1,0.00787,0.02264,-0.00394*
1,1,0.00787,-0.02264,-0.00394*
1,1,0.00787,-0.02264,0.00394*
%
%ADD20ROUNDEDRECTD20*%
G04:AMPARAMS|DCode=21|XSize=70.87mil|YSize=74.8mil|CornerRadius=17.72mil|HoleSize=0mil|Usage=FLASHONLY|Rotation=90.000|XOffset=0mil|YOffset=0mil|HoleType=Round|Shape=RoundedRectangle|*
%AMROUNDEDRECTD21*
21,1,0.07087,0.03937,0,0,90.0*
21,1,0.03543,0.07480,0,0,90.0*
1,1,0.03543,0.01969,0.01772*
1,1,0.03543,0.01969,-0.01772*
1,1,0.03543,-0.01969,-0.01772*
1,1,0.03543,-0.01969,0.01772*
%
%ADD21ROUNDEDRECTD21*%
G04:AMPARAMS|DCode=22|XSize=82.68mil|YSize=62.99mil|CornerRadius=15.75mil|HoleSize=0mil|Usage=FLASHONLY|Rotation=90.000|XOffset=0mil|YOffset=0mil|HoleType=Round|Shape=RoundedRectangle|*
%AMROUNDEDRECTD22*
21,1,0.08268,0.03150,0,0,90.0*
21,1,0.05118,0.06299,0,0,90.0*
1,1,0.03150,0.01575,0.02559*
1,1,0.03150,0.01575,-0.02559*
1,1,0.03150,-0.01575,-0.02559*
1,1,0.03150,-0.01575,0.02559*
%
%ADD22ROUNDEDRECTD22*%
%ADD23R,0.07087X0.08661*%
%ADD24R,0.03740X0.03937*%
%ADD25R,0.07677X0.04724*%
%ADD26R,0.03937X0.03740*%
%ADD27C,0.02000*%
%ADD28C,0.01500*%
%ADD29C,0.01000*%
%ADD30C,0.10000*%
%ADD31C,0.09843*%
%ADD32C,0.10000*%
%ADD33R,0.05906X0.05906*%
%ADD34C,0.05906*%
%ADD35R,0.05906X0.05906*%
%ADD36C,0.05118*%
%ADD37C,0.05000*%
%ADD38R,0.02284X0.04646*%
%ADD39R,0.04134X0.12992*%
%ADD40R,0.41339X0.33071*%
%ADD41R,0.05118X0.02362*%
%ADD42R,0.08661X0.11417*%
%ADD43R,0.04724X0.07677*%
%ADD44C,0.02362*%
%ADD45C,0.00984*%
%ADD46C,0.00394*%
%ADD47C,0.00787*%
%ADD48C,0.00100*%
%ADD49O,0.07690X0.02965*%
%ADD50O,0.02965X0.07690*%
G04:AMPARAMS|DCode=51|XSize=86.74mil|YSize=47.37mil|CornerRadius=11.87mil|HoleSize=0mil|Usage=FLASHONLY|Rotation=270.000|XOffset=0mil|YOffset=0mil|HoleType=Round|Shape=RoundedRectangle|*
%AMROUNDEDRECTD51*
21,1,0.08674,0.02362,0,0,270.0*
21,1,0.06299,0.04737,0,0,270.0*
1,1,0.02375,-0.01181,-0.03150*
1,1,0.02375,-0.01181,0.03150*
1,1,0.02375,0.01181,0.03150*
1,1,0.02375,0.01181,-0.03150*
%
%ADD51ROUNDEDRECTD51*%
G04:AMPARAMS|DCode=52|XSize=47.37mil|YSize=86.74mil|CornerRadius=11.87mil|HoleSize=0mil|Usage=FLASHONLY|Rotation=270.000|XOffset=0mil|YOffset=0mil|HoleType=Round|Shape=RoundedRectangle|*
%AMROUNDEDRECTD52*
21,1,0.04737,0.06299,0,0,270.0*
21,1,0.02362,0.08674,0,0,270.0*
1,1,0.02375,-0.03150,-0.01181*
1,1,0.02375,-0.03150,0.01181*
1,1,0.02375,0.03150,0.01181*
1,1,0.02375,0.03150,-0.01181*
%
%ADD52ROUNDEDRECTD52*%
%ADD53R,0.04737X0.10249*%
%ADD54R,0.13792X0.10249*%
G04:AMPARAMS|DCode=55|XSize=91mil|YSize=63mil|CornerRadius=17.75mil|HoleSize=0mil|Usage=FLASHONLY|Rotation=90.000|XOffset=0mil|YOffset=0mil|HoleType=Round|Shape=RoundedRectangle|*
%AMROUNDEDRECTD55*
21,1,0.09100,0.02750,0,0,90.0*
21,1,0.05550,0.06300,0,0,90.0*
1,1,0.03550,0.01375,0.02775*
1,1,0.03550,0.01375,-0.02775*
1,1,0.03550,-0.01375,-0.02775*
1,1,0.03550,-0.01375,0.02775*
%
%ADD55ROUNDEDRECTD55*%
%ADD56R,0.04737X0.04737*%
%ADD57R,0.04737X0.04737*%
G04:AMPARAMS|DCode=58|XSize=82.8mil|YSize=82.8mil|CornerRadius=22.7mil|HoleSize=0mil|Usage=FLASHONLY|Rotation=90.000|XOffset=0mil|YOffset=0mil|HoleType=Round|Shape=RoundedRectangle|*
%AMROUNDEDRECTD58*
21,1,0.08280,0.03740,0,0,90.0*
21,1,0.03740,0.08280,0,0,90.0*
1,1,0.04540,0.01870,0.01870*
1,1,0.04540,0.01870,-0.01870*
1,1,0.04540,-0.01870,-0.01870*
1,1,0.04540,-0.01870,0.01870*
%
%ADD58ROUNDEDRECTD58*%
G04:AMPARAMS|DCode=59|XSize=23.75mil|YSize=61.15mil|CornerRadius=7.94mil|HoleSize=0mil|Usage=FLASHONLY|Rotation=90.000|XOffset=0mil|YOffset=0mil|HoleType=Round|Shape=RoundedRectangle|*
%AMROUNDEDRECTD59*
21,1,0.02375,0.04528,0,0,90.0*
21,1,0.00787,0.06115,0,0,90.0*
1,1,0.01587,0.02264,0.00394*
1,1,0.01587,0.02264,-0.00394*
1,1,0.01587,-0.02264,-0.00394*
1,1,0.01587,-0.02264,0.00394*
%
%ADD59ROUNDEDRECTD59*%
G04:AMPARAMS|DCode=60|XSize=78.87mil|YSize=82.8mil|CornerRadius=21.72mil|HoleSize=0mil|Usage=FLASHONLY|Rotation=90.000|XOffset=0mil|YOffset=0mil|HoleType=Round|Shape=RoundedRectangle|*
%AMROUNDEDRECTD60*
21,1,0.07887,0.03937,0,0,90.0*
21,1,0.03543,0.08280,0,0,90.0*
1,1,0.04343,0.01969,0.01772*
1,1,0.04343,0.01969,-0.01772*
1,1,0.04343,-0.01969,-0.01772*
1,1,0.04343,-0.01969,0.01772*
%
%ADD60ROUNDEDRECTD60*%
G04:AMPARAMS|DCode=61|XSize=90.68mil|YSize=70.99mil|CornerRadius=19.75mil|HoleSize=0mil|Usage=FLASHONLY|Rotation=90.000|XOffset=0mil|YOffset=0mil|HoleType=Round|Shape=RoundedRectangle|*
%AMROUNDEDRECTD61*
21,1,0.09068,0.03150,0,0,90.0*
21,1,0.05118,0.07099,0,0,90.0*
1,1,0.03950,0.01575,0.02559*
1,1,0.03950,0.01575,-0.02559*
1,1,0.03950,-0.01575,-0.02559*
1,1,0.03950,-0.01575,0.02559*
%
%ADD61ROUNDEDRECTD61*%
%ADD62R,0.07887X0.09461*%
%ADD63R,0.04540X0.04737*%
%ADD64R,0.08477X0.05524*%
%ADD65R,0.04737X0.04540*%
%ADD66C,0.10642*%
%ADD67C,0.10800*%
%ADD68R,0.06706X0.06706*%
%ADD69C,0.06706*%
%ADD70R,0.06706X0.06706*%
%ADD71C,0.05918*%
%ADD72R,0.03084X0.05446*%
%ADD73R,0.04934X0.13792*%
%ADD74R,0.42139X0.33871*%
%ADD75R,0.05918X0.03162*%
%ADD76R,0.09461X0.12217*%
%ADD77R,0.05524X0.08477*%
G36*
X432551Y491909D02*
X432546Y491782D01*
X432540Y491665D01*
X432529Y491560D01*
X432518Y491471D01*
X432507Y491393D01*
X432501Y491338D01*
X432496Y491321D01*
X432490Y491304D01*
Y491299D01*
Y491293D01*
X432462Y491193D01*
X432429Y491105D01*
X432401Y491027D01*
X432368Y490960D01*
X432340Y490905D01*
X432318Y490866D01*
X432301Y490844D01*
X432296Y490833D01*
X432246Y490761D01*
X432185Y490699D01*
X432129Y490638D01*
X432074Y490589D01*
X432024Y490544D01*
X431985Y490511D01*
X431957Y490489D01*
X431946Y490483D01*
X431857Y490427D01*
X431763Y490372D01*
X431674Y490328D01*
X431586Y490294D01*
X431508Y490261D01*
X431447Y490239D01*
X431425Y490233D01*
X431408Y490228D01*
X431397Y490222D01*
X431391D01*
X431258Y490189D01*
X431125Y490161D01*
X430997Y490144D01*
X430875Y490128D01*
X430770Y490122D01*
X430725D01*
X430686Y490117D01*
X430614D01*
X430426Y490122D01*
X430254Y490139D01*
X430098Y490167D01*
X430026Y490178D01*
X429965Y490194D01*
X429904Y490211D01*
X429854Y490222D01*
X429810Y490233D01*
X429771Y490250D01*
X429737Y490255D01*
X429715Y490267D01*
X429704Y490272D01*
X429699D01*
X429554Y490333D01*
X429426Y490405D01*
X429316Y490483D01*
X429221Y490555D01*
X429143Y490622D01*
X429088Y490677D01*
X429071Y490699D01*
X429055Y490716D01*
X429049Y490722D01*
X429044Y490727D01*
X428971Y490816D01*
X428916Y490910D01*
X428866Y491005D01*
X428827Y491093D01*
X428799Y491171D01*
X428783Y491232D01*
X428772Y491255D01*
Y491271D01*
X428766Y491282D01*
Y491288D01*
X428749Y491382D01*
X428733Y491493D01*
X428722Y491604D01*
X428716Y491715D01*
X428711Y491815D01*
Y491859D01*
Y491898D01*
Y491926D01*
Y491948D01*
Y491965D01*
Y491970D01*
Y493291D01*
X432551D01*
Y491909D01*
D02*
G37*
G36*
X440618Y451279D02*
X436644Y450163D01*
Y450541D01*
X440618Y451656D01*
Y451279D01*
D02*
G37*
G36*
X432551Y489301D02*
X431386Y488885D01*
Y487275D01*
X432551Y486826D01*
Y486248D01*
X428711Y487819D01*
Y488374D01*
X432551Y489839D01*
Y489301D01*
D02*
G37*
G36*
Y481370D02*
X428711D01*
Y481881D01*
X432551D01*
Y481370D01*
D02*
G37*
G36*
Y485355D02*
X429537D01*
X432551Y483346D01*
Y482819D01*
X428711D01*
Y483307D01*
X431730D01*
X428711Y485322D01*
Y485843D01*
X432551D01*
Y485355D01*
D02*
G37*
G36*
X439885Y461607D02*
X439941Y461602D01*
X440057Y461574D01*
X440152Y461535D01*
X440235Y461491D01*
X440301Y461446D01*
X440351Y461408D01*
X440379Y461380D01*
X440390Y461369D01*
X440462Y461269D01*
X440518Y461158D01*
X440557Y461036D01*
X440585Y460925D01*
X440601Y460825D01*
X440607Y460780D01*
Y460742D01*
X440612Y460708D01*
Y460686D01*
Y460669D01*
Y460664D01*
X440607Y460564D01*
X440596Y460464D01*
X440585Y460375D01*
X440568Y460298D01*
X440551Y460237D01*
X440534Y460187D01*
X440529Y460153D01*
X440523Y460142D01*
X440485Y460048D01*
X440435Y459959D01*
X440379Y459876D01*
X440329Y459793D01*
X440279Y459726D01*
X440240Y459676D01*
X440213Y459643D01*
X440202Y459637D01*
Y459632D01*
X440274Y459621D01*
X440340Y459609D01*
X440401Y459598D01*
X440451Y459582D01*
X440496Y459565D01*
X440523Y459554D01*
X440546Y459548D01*
X440551Y459543D01*
Y459049D01*
X440490Y459077D01*
X440429Y459104D01*
X440374Y459127D01*
X440324Y459138D01*
X440279Y459154D01*
X440246Y459160D01*
X440224Y459165D01*
X440218D01*
X440179Y459171D01*
X440129Y459176D01*
X440074D01*
X440013Y459182D01*
X439874Y459188D01*
X439735D01*
X439602Y459193D01*
X438648D01*
X438553Y459199D01*
X438481Y459204D01*
X438420D01*
X438376Y459210D01*
X438342Y459215D01*
X438326Y459221D01*
X438320D01*
X438248Y459237D01*
X438187Y459260D01*
X438137Y459282D01*
X438087Y459310D01*
X438054Y459332D01*
X438026Y459348D01*
X438009Y459360D01*
X438004Y459365D01*
X437959Y459410D01*
X437915Y459459D01*
X437882Y459515D01*
X437848Y459571D01*
X437826Y459621D01*
X437810Y459659D01*
X437798Y459687D01*
X437793Y459698D01*
X437765Y459787D01*
X437743Y459881D01*
X437726Y459976D01*
X437715Y460070D01*
X437710Y460153D01*
X437704Y460214D01*
Y460242D01*
Y460259D01*
Y460270D01*
Y460275D01*
X437710Y460409D01*
X437721Y460525D01*
X437737Y460636D01*
X437754Y460725D01*
X437771Y460803D01*
X437787Y460858D01*
X437793Y460880D01*
X437798Y460897D01*
X437804Y460903D01*
Y460908D01*
X437843Y461002D01*
X437893Y461086D01*
X437937Y461158D01*
X437982Y461219D01*
X438026Y461263D01*
X438059Y461297D01*
X438081Y461319D01*
X438087Y461324D01*
X438159Y461374D01*
X438237Y461419D01*
X438314Y461452D01*
X438387Y461480D01*
X438459Y461502D01*
X438509Y461519D01*
X438531Y461524D01*
X438548D01*
X438553Y461530D01*
X438559D01*
X438620Y461069D01*
X438520Y461036D01*
X438431Y461002D01*
X438359Y460964D01*
X438303Y460930D01*
X438259Y460897D01*
X438231Y460869D01*
X438215Y460847D01*
X438209Y460842D01*
X438170Y460775D01*
X438142Y460697D01*
X438120Y460614D01*
X438109Y460536D01*
X438098Y460459D01*
X438093Y460403D01*
Y460381D01*
Y460364D01*
Y460353D01*
Y460348D01*
X438098Y460220D01*
X438115Y460109D01*
X438142Y460020D01*
X438170Y459942D01*
X438203Y459887D01*
X438226Y459842D01*
X438248Y459815D01*
X438253Y459809D01*
X438303Y459765D01*
X438365Y459731D01*
X438431Y459704D01*
X438498Y459687D01*
X438559Y459676D01*
X438614Y459670D01*
X438731D01*
X438764Y459676D01*
X438781D01*
X438797Y459731D01*
X438814Y459793D01*
X438847Y459920D01*
X438875Y460065D01*
X438903Y460198D01*
X438914Y460264D01*
X438919Y460325D01*
X438931Y460381D01*
X438936Y460425D01*
X438942Y460464D01*
Y460492D01*
X438947Y460514D01*
Y460520D01*
X438958Y460619D01*
X438975Y460703D01*
X438986Y460775D01*
X438997Y460830D01*
X439003Y460875D01*
X439014Y460908D01*
X439019Y460930D01*
Y460936D01*
X439042Y461008D01*
X439064Y461069D01*
X439091Y461130D01*
X439114Y461180D01*
X439136Y461224D01*
X439158Y461252D01*
X439169Y461274D01*
X439175Y461280D01*
X439214Y461335D01*
X439258Y461380D01*
X439302Y461424D01*
X439347Y461457D01*
X439386Y461485D01*
X439419Y461508D01*
X439441Y461519D01*
X439447Y461524D01*
X439508Y461552D01*
X439574Y461574D01*
X439635Y461591D01*
X439697Y461602D01*
X439746Y461607D01*
X439785Y461613D01*
X439819D01*
X439885Y461607D01*
D02*
G37*
G36*
X439308Y464593D02*
X439425Y464582D01*
X439536Y464566D01*
X439635Y464543D01*
X439730Y464516D01*
X439819Y464488D01*
X439896Y464455D01*
X439968Y464421D01*
X440029Y464388D01*
X440085Y464355D01*
X440129Y464327D01*
X440168Y464299D01*
X440202Y464277D01*
X440224Y464260D01*
X440235Y464249D01*
X440240Y464244D01*
X440307Y464172D01*
X440363Y464099D01*
X440412Y464022D01*
X440457Y463938D01*
X440490Y463861D01*
X440523Y463777D01*
X440568Y463622D01*
X440579Y463550D01*
X440590Y463483D01*
X440601Y463422D01*
X440607Y463372D01*
X440612Y463333D01*
Y463300D01*
Y463278D01*
Y463272D01*
X440601Y463100D01*
X440573Y462945D01*
X440540Y462806D01*
X440518Y462751D01*
X440496Y462695D01*
X440474Y462645D01*
X440451Y462601D01*
X440435Y462568D01*
X440418Y462534D01*
X440401Y462512D01*
X440390Y462495D01*
X440379Y462484D01*
Y462479D01*
X440279Y462368D01*
X440174Y462279D01*
X440063Y462201D01*
X439957Y462146D01*
X439863Y462101D01*
X439819Y462085D01*
X439785Y462068D01*
X439752Y462057D01*
X439730Y462051D01*
X439719Y462046D01*
X439713D01*
X439652Y462534D01*
X439757Y462579D01*
X439846Y462629D01*
X439924Y462678D01*
X439985Y462723D01*
X440029Y462762D01*
X440063Y462795D01*
X440085Y462823D01*
X440091Y462828D01*
X440135Y462900D01*
X440168Y462973D01*
X440190Y463050D01*
X440207Y463117D01*
X440218Y463178D01*
X440224Y463228D01*
Y463261D01*
Y463267D01*
Y463272D01*
X440218Y463339D01*
X440213Y463400D01*
X440185Y463511D01*
X440146Y463611D01*
X440102Y463700D01*
X440063Y463766D01*
X440024Y463816D01*
X439996Y463850D01*
X439985Y463855D01*
Y463861D01*
X439885Y463938D01*
X439774Y463999D01*
X439652Y464044D01*
X439541Y464077D01*
X439441Y464094D01*
X439397Y464105D01*
X439358Y464110D01*
X439325D01*
X439302Y464116D01*
X439280D01*
Y462035D01*
X439225Y462029D01*
X439158D01*
X439031Y462035D01*
X438914Y462046D01*
X438803Y462063D01*
X438697Y462085D01*
X438603Y462112D01*
X438514Y462140D01*
X438437Y462174D01*
X438365Y462207D01*
X438298Y462240D01*
X438242Y462273D01*
X438198Y462301D01*
X438159Y462329D01*
X438126Y462351D01*
X438104Y462368D01*
X438093Y462379D01*
X438087Y462384D01*
X438020Y462451D01*
X437959Y462523D01*
X437909Y462601D01*
X437865Y462678D01*
X437826Y462756D01*
X437798Y462828D01*
X437771Y462906D01*
X437754Y462973D01*
X437737Y463045D01*
X437726Y463106D01*
X437715Y463161D01*
X437710Y463206D01*
X437704Y463245D01*
Y463278D01*
Y463295D01*
Y463300D01*
X437710Y463406D01*
X437721Y463506D01*
X437737Y463600D01*
X437765Y463689D01*
X437793Y463772D01*
X437826Y463850D01*
X437859Y463922D01*
X437898Y463983D01*
X437932Y464044D01*
X437970Y464094D01*
X438004Y464138D01*
X438031Y464172D01*
X438059Y464199D01*
X438076Y464221D01*
X438087Y464232D01*
X438093Y464238D01*
X438170Y464299D01*
X438253Y464355D01*
X438337Y464405D01*
X438425Y464449D01*
X438520Y464482D01*
X438609Y464510D01*
X438786Y464554D01*
X438864Y464571D01*
X438942Y464582D01*
X439008Y464588D01*
X439069Y464593D01*
X439119Y464599D01*
X439186D01*
X439308Y464593D01*
D02*
G37*
G36*
X440551Y457795D02*
X440013D01*
Y458333D01*
X440551D01*
Y457795D01*
D02*
G37*
G36*
X439286Y454459D02*
X439408Y454448D01*
X439519Y454431D01*
X439624Y454409D01*
X439719Y454381D01*
X439808Y454354D01*
X439891Y454320D01*
X439963Y454287D01*
X440029Y454254D01*
X440085Y454220D01*
X440129Y454193D01*
X440168Y454165D01*
X440202Y454143D01*
X440224Y454126D01*
X440235Y454115D01*
X440240Y454109D01*
X440307Y454037D01*
X440363Y453965D01*
X440412Y453887D01*
X440457Y453810D01*
X440490Y453732D01*
X440523Y453649D01*
X440568Y453499D01*
X440579Y453432D01*
X440590Y453366D01*
X440601Y453310D01*
X440607Y453260D01*
X440612Y453216D01*
Y453188D01*
Y453166D01*
Y453160D01*
X440607Y453027D01*
X440585Y452905D01*
X440557Y452788D01*
X440529Y452694D01*
X440496Y452611D01*
X440485Y452577D01*
X440474Y452550D01*
X440462Y452522D01*
X440451Y452505D01*
X440446Y452500D01*
Y452494D01*
X440374Y452383D01*
X440296Y452289D01*
X440218Y452206D01*
X440140Y452139D01*
X440074Y452089D01*
X440018Y452050D01*
X439996Y452039D01*
X439980Y452028D01*
X439974Y452023D01*
X439968D01*
X439841Y451967D01*
X439702Y451928D01*
X439563Y451895D01*
X439425Y451878D01*
X439363Y451867D01*
X439308D01*
X439253Y451862D01*
X439208Y451856D01*
X439119D01*
X438997Y451862D01*
X438886Y451873D01*
X438781Y451889D01*
X438681Y451911D01*
X438587Y451939D01*
X438503Y451973D01*
X438420Y452006D01*
X438353Y452039D01*
X438292Y452072D01*
X438237Y452106D01*
X438187Y452139D01*
X438148Y452167D01*
X438120Y452189D01*
X438098Y452206D01*
X438087Y452217D01*
X438081Y452222D01*
X438015Y452294D01*
X437959Y452367D01*
X437904Y452444D01*
X437865Y452522D01*
X437826Y452600D01*
X437798Y452677D01*
X437748Y452827D01*
X437737Y452899D01*
X437726Y452960D01*
X437715Y453016D01*
X437710Y453066D01*
X437704Y453105D01*
Y453132D01*
Y453155D01*
Y453160D01*
X437710Y453255D01*
X437715Y453343D01*
X437754Y453515D01*
X437804Y453665D01*
X437832Y453732D01*
X437859Y453793D01*
X437887Y453849D01*
X437915Y453893D01*
X437943Y453937D01*
X437965Y453971D01*
X437987Y453998D01*
X438004Y454021D01*
X438009Y454032D01*
X438015Y454037D01*
X438087Y454115D01*
X438170Y454176D01*
X438259Y454237D01*
X438348Y454281D01*
X438442Y454326D01*
X438542Y454359D01*
X438636Y454387D01*
X438725Y454409D01*
X438814Y454431D01*
X438892Y454442D01*
X438969Y454453D01*
X439031Y454459D01*
X439086D01*
X439125Y454464D01*
X439158D01*
X439286Y454459D01*
D02*
G37*
G36*
X439297Y457106D02*
X439413Y457095D01*
X439530Y457079D01*
X439630Y457056D01*
X439730Y457034D01*
X439813Y457001D01*
X439896Y456973D01*
X439968Y456940D01*
X440029Y456907D01*
X440085Y456879D01*
X440135Y456846D01*
X440174Y456823D01*
X440202Y456801D01*
X440224Y456784D01*
X440235Y456773D01*
X440240Y456768D01*
X440307Y456701D01*
X440363Y456629D01*
X440412Y456557D01*
X440457Y456479D01*
X440490Y456401D01*
X440523Y456329D01*
X440568Y456180D01*
X440579Y456113D01*
X440590Y456052D01*
X440601Y455996D01*
X440607Y455946D01*
X440612Y455907D01*
Y455880D01*
Y455858D01*
Y455852D01*
X440607Y455769D01*
X440601Y455686D01*
X440568Y455541D01*
X440529Y455408D01*
X440479Y455297D01*
X440451Y455253D01*
X440429Y455208D01*
X440407Y455169D01*
X440385Y455142D01*
X440368Y455119D01*
X440357Y455103D01*
X440351Y455092D01*
X440346Y455086D01*
X440290Y455031D01*
X440235Y454981D01*
X440113Y454892D01*
X439985Y454820D01*
X439868Y454770D01*
X439757Y454731D01*
X439713Y454720D01*
X439669Y454709D01*
X439635Y454703D01*
X439613Y454698D01*
X439597Y454692D01*
X439591D01*
X439530Y455158D01*
X439652Y455181D01*
X439763Y455214D01*
X439852Y455258D01*
X439924Y455297D01*
X439985Y455336D01*
X440024Y455369D01*
X440052Y455386D01*
X440057Y455397D01*
X440113Y455469D01*
X440152Y455547D01*
X440185Y455624D01*
X440202Y455697D01*
X440213Y455758D01*
X440218Y455813D01*
X440224Y455847D01*
Y455852D01*
Y455858D01*
X440218Y455919D01*
X440213Y455980D01*
X440185Y456091D01*
X440146Y456185D01*
X440096Y456268D01*
X440052Y456329D01*
X440013Y456379D01*
X439985Y456407D01*
X439974Y456418D01*
X439924Y456457D01*
X439863Y456490D01*
X439741Y456540D01*
X439602Y456579D01*
X439469Y456601D01*
X439347Y456618D01*
X439297Y456624D01*
X439247D01*
X439214Y456629D01*
X439058D01*
X438964Y456618D01*
X438875Y456607D01*
X438797Y456596D01*
X438725Y456579D01*
X438659Y456557D01*
X438598Y456540D01*
X438542Y456518D01*
X438498Y456496D01*
X438459Y456479D01*
X438425Y456457D01*
X438398Y456440D01*
X438376Y456429D01*
X438359Y456418D01*
X438353Y456407D01*
X438348D01*
X438303Y456363D01*
X438265Y456318D01*
X438198Y456224D01*
X438154Y456124D01*
X438126Y456035D01*
X438104Y455952D01*
X438098Y455891D01*
X438093Y455863D01*
Y455847D01*
Y455835D01*
Y455830D01*
X438098Y455747D01*
X438115Y455669D01*
X438137Y455602D01*
X438165Y455541D01*
X438192Y455497D01*
X438215Y455458D01*
X438231Y455436D01*
X438237Y455430D01*
X438292Y455375D01*
X438359Y455325D01*
X438431Y455280D01*
X438498Y455253D01*
X438559Y455225D01*
X438609Y455208D01*
X438642Y455203D01*
X438648Y455197D01*
X438653D01*
X438581Y454737D01*
X438431Y454775D01*
X438303Y454831D01*
X438192Y454892D01*
X438104Y454953D01*
X438031Y455014D01*
X437982Y455064D01*
X437948Y455097D01*
X437937Y455103D01*
Y455108D01*
X437859Y455225D01*
X437804Y455347D01*
X437759Y455469D01*
X437732Y455586D01*
X437715Y455691D01*
X437710Y455735D01*
Y455769D01*
X437704Y455802D01*
Y455824D01*
Y455841D01*
Y455847D01*
X437710Y455980D01*
X437732Y456102D01*
X437759Y456218D01*
X437787Y456313D01*
X437821Y456396D01*
X437837Y456429D01*
X437848Y456457D01*
X437859Y456479D01*
X437871Y456496D01*
X437876Y456507D01*
Y456512D01*
X437943Y456618D01*
X438026Y456712D01*
X438109Y456790D01*
X438192Y456857D01*
X438265Y456907D01*
X438326Y456940D01*
X438348Y456951D01*
X438365Y456962D01*
X438376Y456968D01*
X438381D01*
X438514Y457018D01*
X438648Y457051D01*
X438781Y457079D01*
X438903Y457095D01*
X438958Y457101D01*
X439008Y457106D01*
X439053D01*
X439091Y457112D01*
X439169D01*
X439297Y457106D01*
D02*
G37*
G36*
X429166Y456528D02*
X432551D01*
Y456017D01*
X429166D01*
Y454752D01*
X428711D01*
Y457794D01*
X429166D01*
Y456528D01*
D02*
G37*
G36*
X432551Y460968D02*
X431386Y460552D01*
Y458942D01*
X432551Y458493D01*
Y457916D01*
X428711Y459486D01*
Y460041D01*
X432551Y461507D01*
Y460968D01*
D02*
G37*
G36*
X430875Y454369D02*
X431047Y454347D01*
X431214Y454314D01*
X431286Y454291D01*
X431358Y454269D01*
X431419Y454253D01*
X431474Y454230D01*
X431524Y454214D01*
X431569Y454197D01*
X431602Y454186D01*
X431624Y454175D01*
X431641Y454164D01*
X431646D01*
X431808Y454070D01*
X431946Y453970D01*
X432068Y453859D01*
X432168Y453753D01*
X432252Y453659D01*
X432285Y453620D01*
X432307Y453587D01*
X432329Y453553D01*
X432346Y453531D01*
X432351Y453520D01*
X432357Y453514D01*
X432401Y453431D01*
X432440Y453348D01*
X432507Y453182D01*
X432551Y453020D01*
X432584Y452871D01*
X432596Y452799D01*
X432601Y452738D01*
X432612Y452682D01*
Y452632D01*
X432618Y452599D01*
Y452565D01*
Y452549D01*
Y452543D01*
X432607Y452360D01*
X432579Y452188D01*
X432546Y452027D01*
X432523Y451955D01*
X432501Y451888D01*
X432479Y451827D01*
X432457Y451772D01*
X432440Y451727D01*
X432423Y451688D01*
X432407Y451655D01*
X432396Y451627D01*
X432385Y451616D01*
Y451611D01*
X432285Y451455D01*
X432174Y451322D01*
X432057Y451211D01*
X431946Y451117D01*
X431841Y451039D01*
X431802Y451011D01*
X431763Y450989D01*
X431730Y450967D01*
X431708Y450956D01*
X431691Y450945D01*
X431685D01*
X431597Y450900D01*
X431508Y450867D01*
X431330Y450806D01*
X431153Y450762D01*
X430992Y450734D01*
X430920Y450728D01*
X430853Y450717D01*
X430792Y450712D01*
X430742D01*
X430697Y450706D01*
X430642D01*
X430431Y450717D01*
X430237Y450739D01*
X430148Y450756D01*
X430059Y450778D01*
X429982Y450801D01*
X429909Y450817D01*
X429843Y450839D01*
X429782Y450862D01*
X429732Y450878D01*
X429687Y450900D01*
X429654Y450912D01*
X429632Y450923D01*
X429615Y450934D01*
X429610D01*
X429449Y451022D01*
X429304Y451128D01*
X429182Y451239D01*
X429082Y451339D01*
X429005Y451433D01*
X428971Y451478D01*
X428944Y451511D01*
X428927Y451544D01*
X428910Y451566D01*
X428905Y451578D01*
X428899Y451583D01*
X428855Y451666D01*
X428816Y451750D01*
X428749Y451910D01*
X428705Y452077D01*
X428677Y452221D01*
X428666Y452288D01*
X428655Y452354D01*
X428650Y452404D01*
Y452454D01*
X428644Y452493D01*
Y452521D01*
Y452538D01*
Y452543D01*
X428650Y452693D01*
X428666Y452832D01*
X428694Y452965D01*
X428727Y453093D01*
X428772Y453209D01*
X428816Y453320D01*
X428866Y453420D01*
X428916Y453509D01*
X428966Y453592D01*
X429016Y453664D01*
X429060Y453725D01*
X429105Y453775D01*
X429138Y453814D01*
X429166Y453848D01*
X429182Y453864D01*
X429188Y453870D01*
X429293Y453959D01*
X429404Y454036D01*
X429526Y454108D01*
X429648Y454164D01*
X429776Y454214D01*
X429898Y454258D01*
X430020Y454291D01*
X430137Y454314D01*
X430248Y454336D01*
X430353Y454353D01*
X430448Y454364D01*
X430525Y454375D01*
X430592D01*
X430642Y454380D01*
X430686D01*
X430875Y454369D01*
D02*
G37*
G36*
X432551Y444984D02*
X428711D01*
Y445495D01*
X432551D01*
Y444984D01*
D02*
G37*
G36*
Y449579D02*
X429282D01*
X432551Y448469D01*
Y448014D01*
X429338Y446893D01*
X432551D01*
Y446405D01*
X428711D01*
Y447088D01*
X431386Y448009D01*
X431530Y448059D01*
X431652Y448098D01*
X431757Y448137D01*
X431846Y448164D01*
X431913Y448186D01*
X431963Y448203D01*
X431991Y448209D01*
X432002Y448214D01*
X431924Y448236D01*
X431835Y448264D01*
X431741Y448298D01*
X431646Y448325D01*
X431563Y448353D01*
X431497Y448375D01*
X431469Y448386D01*
X431452Y448392D01*
X431441Y448397D01*
X431436D01*
X428711Y449308D01*
Y450068D01*
X432551D01*
Y449579D01*
D02*
G37*
G36*
Y474510D02*
X432096D01*
Y476403D01*
X428711D01*
Y476913D01*
X432551D01*
Y474510D01*
D02*
G37*
G36*
Y477596D02*
X432096D01*
Y479955D01*
X430792D01*
Y477829D01*
X430337D01*
Y479955D01*
X429166D01*
Y477685D01*
X428711D01*
Y480465D01*
X432551D01*
Y477596D01*
D02*
G37*
G36*
Y471924D02*
X431219D01*
X430614Y471297D01*
X432551Y469931D01*
Y469260D01*
X430270Y470941D01*
X428711Y469332D01*
Y470026D01*
X430620Y471924D01*
X428711D01*
Y472434D01*
X432551D01*
Y471924D01*
D02*
G37*
G36*
Y464442D02*
X430847D01*
Y463854D01*
Y463788D01*
X430853Y463727D01*
Y463682D01*
X430858Y463643D01*
X430864Y463616D01*
Y463593D01*
X430869Y463582D01*
Y463577D01*
X430897Y463488D01*
X430914Y463449D01*
X430931Y463416D01*
X430947Y463382D01*
X430958Y463360D01*
X430964Y463349D01*
X430969Y463343D01*
X431003Y463299D01*
X431042Y463255D01*
X431125Y463171D01*
X431164Y463133D01*
X431197Y463105D01*
X431219Y463088D01*
X431225Y463083D01*
X431302Y463027D01*
X431386Y462966D01*
X431474Y462905D01*
X431558Y462844D01*
X431635Y462794D01*
X431697Y462755D01*
X431719Y462739D01*
X431735Y462727D01*
X431746Y462716D01*
X431752D01*
X432551Y462211D01*
Y461579D01*
X431508Y462239D01*
X431397Y462317D01*
X431297Y462389D01*
X431214Y462461D01*
X431136Y462522D01*
X431080Y462578D01*
X431036Y462622D01*
X431008Y462650D01*
X430997Y462661D01*
X430964Y462705D01*
X430925Y462755D01*
X430864Y462855D01*
X430842Y462899D01*
X430820Y462933D01*
X430808Y462955D01*
X430803Y462966D01*
X430786Y462866D01*
X430770Y462772D01*
X430742Y462689D01*
X430720Y462605D01*
X430692Y462533D01*
X430659Y462467D01*
X430631Y462406D01*
X430603Y462350D01*
X430570Y462306D01*
X430542Y462261D01*
X430520Y462228D01*
X430498Y462200D01*
X430481Y462178D01*
X430464Y462161D01*
X430459Y462156D01*
X430453Y462150D01*
X430398Y462106D01*
X430342Y462062D01*
X430226Y461995D01*
X430109Y461950D01*
X429998Y461917D01*
X429904Y461895D01*
X429865Y461889D01*
X429826D01*
X429798Y461884D01*
X429760D01*
X429643Y461889D01*
X429537Y461906D01*
X429438Y461934D01*
X429354Y461962D01*
X429282Y461995D01*
X429227Y462017D01*
X429193Y462039D01*
X429188Y462045D01*
X429182D01*
X429094Y462111D01*
X429016Y462178D01*
X428949Y462250D01*
X428899Y462317D01*
X428860Y462378D01*
X428838Y462428D01*
X428822Y462461D01*
X428816Y462467D01*
Y462472D01*
X428799Y462522D01*
X428783Y462583D01*
X428755Y462705D01*
X428738Y462839D01*
X428722Y462961D01*
X428716Y463077D01*
Y463127D01*
X428711Y463171D01*
Y463205D01*
Y463233D01*
Y463249D01*
Y463255D01*
Y464953D01*
X432551D01*
Y464442D01*
D02*
G37*
G36*
X431147Y468821D02*
X431247Y468816D01*
X431341Y468805D01*
X431425Y468794D01*
X431502Y468783D01*
X431574Y468766D01*
X431641Y468755D01*
X431702Y468744D01*
X431752Y468727D01*
X431796Y468716D01*
X431830Y468705D01*
X431857Y468694D01*
X431880Y468688D01*
X431891Y468683D01*
X431896D01*
X432018Y468622D01*
X432129Y468544D01*
X432218Y468466D01*
X432296Y468383D01*
X432357Y468311D01*
X432401Y468250D01*
X432412Y468227D01*
X432423Y468211D01*
X432435Y468200D01*
Y468194D01*
X432496Y468055D01*
X432540Y467911D01*
X432573Y467761D01*
X432596Y467623D01*
X432601Y467561D01*
X432607Y467500D01*
X432612Y467445D01*
Y467401D01*
X432618Y467362D01*
Y467334D01*
Y467317D01*
Y467312D01*
X432607Y467112D01*
X432596Y467023D01*
X432584Y466940D01*
X432568Y466857D01*
X432551Y466784D01*
X432535Y466718D01*
X432512Y466657D01*
X432490Y466601D01*
X432474Y466557D01*
X432457Y466513D01*
X432440Y466479D01*
X432423Y466452D01*
X432418Y466435D01*
X432407Y466424D01*
Y466418D01*
X432324Y466296D01*
X432229Y466196D01*
X432140Y466118D01*
X432052Y466052D01*
X431974Y466002D01*
X431913Y465969D01*
X431891Y465958D01*
X431874Y465946D01*
X431863Y465941D01*
X431857D01*
X431791Y465919D01*
X431719Y465897D01*
X431569Y465863D01*
X431413Y465841D01*
X431264Y465824D01*
X431197Y465819D01*
X431130Y465813D01*
X431075D01*
X431025Y465808D01*
X428711D01*
Y466318D01*
X431058D01*
X431180Y466329D01*
X431286Y466340D01*
X431386Y466357D01*
X431474Y466374D01*
X431558Y466396D01*
X431630Y466413D01*
X431691Y466435D01*
X431741Y466457D01*
X431791Y466479D01*
X431824Y466502D01*
X431857Y466518D01*
X431880Y466535D01*
X431896Y466546D01*
X431902Y466551D01*
X431907Y466557D01*
X431952Y466607D01*
X431991Y466662D01*
X432052Y466784D01*
X432096Y466912D01*
X432124Y467045D01*
X432146Y467168D01*
X432152Y467217D01*
Y467267D01*
X432157Y467301D01*
Y467334D01*
Y467351D01*
Y467356D01*
X432152Y467473D01*
X432135Y467578D01*
X432118Y467678D01*
X432091Y467756D01*
X432068Y467822D01*
X432052Y467872D01*
X432035Y467900D01*
X432029Y467911D01*
X431980Y467989D01*
X431918Y468055D01*
X431857Y468111D01*
X431802Y468150D01*
X431746Y468183D01*
X431708Y468211D01*
X431680Y468222D01*
X431669Y468227D01*
X431619Y468244D01*
X431569Y468255D01*
X431452Y468278D01*
X431330Y468294D01*
X431208Y468305D01*
X431103Y468311D01*
X431053D01*
X431014Y468316D01*
X428711D01*
Y468827D01*
X431042D01*
X431147Y468821D01*
D02*
G37*
G36*
X440618Y483818D02*
X436644Y482703D01*
Y483080D01*
X440618Y484196D01*
Y483818D01*
D02*
G37*
G36*
X438303Y484668D02*
X437765D01*
Y485206D01*
X438303D01*
Y484668D01*
D02*
G37*
G36*
X440618Y482326D02*
X436644Y481210D01*
Y481587D01*
X440618Y482703D01*
Y482326D01*
D02*
G37*
G36*
X439308Y478024D02*
X439425Y478013D01*
X439536Y477996D01*
X439635Y477974D01*
X439730Y477947D01*
X439819Y477919D01*
X439896Y477885D01*
X439968Y477852D01*
X440029Y477819D01*
X440085Y477786D01*
X440129Y477758D01*
X440168Y477730D01*
X440202Y477708D01*
X440224Y477691D01*
X440235Y477680D01*
X440240Y477675D01*
X440307Y477602D01*
X440363Y477530D01*
X440412Y477453D01*
X440457Y477369D01*
X440490Y477292D01*
X440523Y477208D01*
X440568Y477053D01*
X440579Y476981D01*
X440590Y476914D01*
X440601Y476853D01*
X440607Y476803D01*
X440612Y476764D01*
Y476731D01*
Y476709D01*
Y476703D01*
X440601Y476531D01*
X440573Y476376D01*
X440540Y476237D01*
X440518Y476182D01*
X440496Y476126D01*
X440474Y476076D01*
X440451Y476032D01*
X440435Y475998D01*
X440418Y475965D01*
X440401Y475943D01*
X440390Y475926D01*
X440379Y475915D01*
Y475910D01*
X440279Y475799D01*
X440174Y475710D01*
X440063Y475632D01*
X439957Y475577D01*
X439863Y475532D01*
X439819Y475516D01*
X439785Y475499D01*
X439752Y475488D01*
X439730Y475482D01*
X439719Y475477D01*
X439713D01*
X439652Y475965D01*
X439757Y476010D01*
X439846Y476060D01*
X439924Y476110D01*
X439985Y476154D01*
X440029Y476193D01*
X440063Y476226D01*
X440085Y476254D01*
X440091Y476259D01*
X440135Y476332D01*
X440168Y476404D01*
X440190Y476481D01*
X440207Y476548D01*
X440218Y476609D01*
X440224Y476659D01*
Y476692D01*
Y476698D01*
Y476703D01*
X440218Y476770D01*
X440213Y476831D01*
X440185Y476942D01*
X440146Y477042D01*
X440102Y477131D01*
X440063Y477197D01*
X440024Y477247D01*
X439996Y477281D01*
X439985Y477286D01*
Y477292D01*
X439885Y477369D01*
X439774Y477430D01*
X439652Y477475D01*
X439541Y477508D01*
X439441Y477525D01*
X439397Y477536D01*
X439358Y477541D01*
X439325D01*
X439302Y477547D01*
X439280D01*
Y475466D01*
X439225Y475460D01*
X439158D01*
X439031Y475466D01*
X438914Y475477D01*
X438803Y475493D01*
X438697Y475516D01*
X438603Y475543D01*
X438514Y475571D01*
X438437Y475604D01*
X438365Y475638D01*
X438298Y475671D01*
X438242Y475704D01*
X438198Y475732D01*
X438159Y475760D01*
X438126Y475782D01*
X438104Y475799D01*
X438093Y475810D01*
X438087Y475815D01*
X438020Y475882D01*
X437959Y475954D01*
X437909Y476032D01*
X437865Y476110D01*
X437826Y476187D01*
X437798Y476259D01*
X437771Y476337D01*
X437754Y476404D01*
X437737Y476476D01*
X437726Y476537D01*
X437715Y476592D01*
X437710Y476637D01*
X437704Y476676D01*
Y476709D01*
Y476726D01*
Y476731D01*
X437710Y476837D01*
X437721Y476936D01*
X437737Y477031D01*
X437765Y477120D01*
X437793Y477203D01*
X437826Y477281D01*
X437859Y477353D01*
X437898Y477414D01*
X437932Y477475D01*
X437970Y477525D01*
X438004Y477569D01*
X438031Y477602D01*
X438059Y477630D01*
X438076Y477652D01*
X438087Y477664D01*
X438093Y477669D01*
X438170Y477730D01*
X438253Y477786D01*
X438337Y477836D01*
X438425Y477880D01*
X438520Y477913D01*
X438609Y477941D01*
X438786Y477985D01*
X438864Y478002D01*
X438942Y478013D01*
X439008Y478019D01*
X439069Y478024D01*
X439119Y478030D01*
X439186D01*
X439308Y478024D01*
D02*
G37*
G36*
X439319Y481027D02*
X439463Y481010D01*
X439591Y480982D01*
X439702Y480955D01*
X439752Y480944D01*
X439791Y480933D01*
X439830Y480916D01*
X439863Y480905D01*
X439885Y480894D01*
X439902Y480888D01*
X439913Y480883D01*
X439919D01*
X440035Y480822D01*
X440135Y480749D01*
X440224Y480677D01*
X440296Y480605D01*
X440351Y480544D01*
X440396Y480494D01*
X440418Y480461D01*
X440429Y480455D01*
Y480450D01*
X440490Y480344D01*
X440534Y480239D01*
X440568Y480133D01*
X440590Y480039D01*
X440601Y479961D01*
X440607Y479895D01*
X440612Y479872D01*
Y479856D01*
Y479845D01*
Y479839D01*
X440607Y479745D01*
X440596Y479656D01*
X440573Y479573D01*
X440546Y479501D01*
X440518Y479428D01*
X440485Y479362D01*
X440446Y479306D01*
X440407Y479256D01*
X440368Y479206D01*
X440329Y479168D01*
X440296Y479134D01*
X440268Y479107D01*
X440240Y479084D01*
X440218Y479068D01*
X440207Y479062D01*
X440202Y479057D01*
X440551D01*
Y478618D01*
X436711D01*
Y479090D01*
X438087D01*
X438026Y479140D01*
X437976Y479195D01*
X437926Y479245D01*
X437887Y479301D01*
X437859Y479345D01*
X437832Y479379D01*
X437821Y479401D01*
X437815Y479412D01*
X437776Y479484D01*
X437748Y479562D01*
X437732Y479639D01*
X437715Y479711D01*
X437710Y479773D01*
X437704Y479817D01*
Y479850D01*
Y479856D01*
Y479861D01*
X437710Y479983D01*
X437732Y480100D01*
X437759Y480205D01*
X437793Y480294D01*
X437832Y480372D01*
X437859Y480427D01*
X437871Y480450D01*
X437882Y480466D01*
X437887Y480472D01*
Y480477D01*
X437959Y480577D01*
X438048Y480660D01*
X438131Y480733D01*
X438215Y480788D01*
X438292Y480833D01*
X438353Y480866D01*
X438376Y480877D01*
X438392Y480888D01*
X438403Y480894D01*
X438409D01*
X438537Y480938D01*
X438670Y480971D01*
X438797Y480999D01*
X438914Y481016D01*
X439014Y481027D01*
X439058D01*
X439091Y481032D01*
X439164D01*
X439319Y481027D01*
D02*
G37*
G36*
X438131Y491228D02*
X439885D01*
X439946Y491222D01*
X440007Y491217D01*
X440057D01*
X440102Y491211D01*
X440174Y491200D01*
X440229Y491189D01*
X440268Y491183D01*
X440290Y491172D01*
X440296D01*
X440346Y491150D01*
X440385Y491117D01*
X440423Y491083D01*
X440451Y491056D01*
X440479Y491022D01*
X440496Y491000D01*
X440507Y490983D01*
X440512Y490978D01*
X440540Y490917D01*
X440557Y490856D01*
X440573Y490789D01*
X440579Y490723D01*
X440585Y490667D01*
X440590Y490623D01*
Y490590D01*
Y490578D01*
X440585Y490456D01*
X440579Y490395D01*
X440568Y490340D01*
X440562Y490290D01*
X440557Y490251D01*
X440551Y490229D01*
Y490218D01*
X440135Y490279D01*
X440140Y490323D01*
X440146Y490368D01*
Y490406D01*
X440152Y490434D01*
Y490456D01*
Y490473D01*
Y490484D01*
Y490490D01*
X440146Y490562D01*
X440135Y490612D01*
X440124Y490639D01*
X440118Y490651D01*
X440091Y490689D01*
X440063Y490712D01*
X440041Y490728D01*
X440029Y490734D01*
X440002Y490739D01*
X439963Y490745D01*
X439874Y490750D01*
X439835Y490756D01*
X438131D01*
Y490279D01*
X437765D01*
Y490756D01*
X436794D01*
X437077Y491228D01*
X437765D01*
Y491577D01*
X438131D01*
Y491228D01*
D02*
G37*
G36*
X440551Y493820D02*
X439031D01*
X438914Y493814D01*
X438814Y493809D01*
X438725Y493797D01*
X438653Y493781D01*
X438598Y493764D01*
X438553Y493753D01*
X438531Y493747D01*
X438520Y493742D01*
X438453Y493709D01*
X438392Y493670D01*
X438342Y493625D01*
X438298Y493581D01*
X438265Y493542D01*
X438242Y493509D01*
X438226Y493487D01*
X438220Y493481D01*
X438181Y493409D01*
X438154Y493342D01*
X438137Y493276D01*
X438120Y493220D01*
X438115Y493165D01*
X438109Y493126D01*
Y493104D01*
Y493092D01*
X438115Y492993D01*
X438137Y492904D01*
X438159Y492832D01*
X438192Y492771D01*
X438220Y492721D01*
X438248Y492687D01*
X438270Y492665D01*
X438276Y492660D01*
X438342Y492610D01*
X438425Y492571D01*
X438509Y492543D01*
X438592Y492521D01*
X438670Y492510D01*
X438731Y492504D01*
X440551D01*
Y492032D01*
X438792D01*
X438648Y492038D01*
X438520Y492049D01*
X438414Y492066D01*
X438326Y492082D01*
X438253Y492099D01*
X438203Y492116D01*
X438176Y492127D01*
X438165Y492132D01*
X438087Y492177D01*
X438020Y492227D01*
X437965Y492282D01*
X437915Y492332D01*
X437876Y492382D01*
X437848Y492421D01*
X437832Y492449D01*
X437826Y492460D01*
X437787Y492549D01*
X437754Y492637D01*
X437732Y492726D01*
X437721Y492809D01*
X437710Y492882D01*
X437704Y492943D01*
Y492965D01*
Y492981D01*
Y492987D01*
Y492993D01*
X437710Y493081D01*
X437721Y493170D01*
X437737Y493254D01*
X437765Y493331D01*
X437826Y493475D01*
X437859Y493537D01*
X437893Y493592D01*
X437932Y493642D01*
X437965Y493692D01*
X437998Y493731D01*
X438026Y493758D01*
X438054Y493786D01*
X438070Y493803D01*
X438081Y493814D01*
X438087Y493820D01*
X436711D01*
Y494291D01*
X440551D01*
Y493820D01*
D02*
G37*
G36*
X438131Y489735D02*
X439885D01*
X439946Y489729D01*
X440007Y489724D01*
X440057D01*
X440102Y489718D01*
X440174Y489707D01*
X440229Y489696D01*
X440268Y489690D01*
X440290Y489679D01*
X440296D01*
X440346Y489657D01*
X440385Y489624D01*
X440423Y489591D01*
X440451Y489563D01*
X440479Y489529D01*
X440496Y489507D01*
X440507Y489491D01*
X440512Y489485D01*
X440540Y489424D01*
X440557Y489363D01*
X440573Y489296D01*
X440579Y489230D01*
X440585Y489174D01*
X440590Y489130D01*
Y489096D01*
Y489085D01*
X440585Y488963D01*
X440579Y488902D01*
X440568Y488847D01*
X440562Y488797D01*
X440557Y488758D01*
X440551Y488736D01*
Y488725D01*
X440135Y488786D01*
X440140Y488830D01*
X440146Y488874D01*
Y488913D01*
X440152Y488941D01*
Y488963D01*
Y488980D01*
Y488991D01*
Y488997D01*
X440146Y489069D01*
X440135Y489119D01*
X440124Y489147D01*
X440118Y489158D01*
X440091Y489196D01*
X440063Y489219D01*
X440041Y489235D01*
X440029Y489241D01*
X440002Y489246D01*
X439963Y489252D01*
X439874Y489257D01*
X439835Y489263D01*
X438131D01*
Y488786D01*
X437765D01*
Y489263D01*
X436794D01*
X437077Y489735D01*
X437765D01*
Y490084D01*
X438131D01*
Y489735D01*
D02*
G37*
G36*
X440551Y484668D02*
X440013D01*
Y485206D01*
X440551D01*
Y484668D01*
D02*
G37*
G36*
X441617Y487848D02*
X440263D01*
X440318Y487803D01*
X440368Y487753D01*
X440412Y487698D01*
X440446Y487653D01*
X440479Y487609D01*
X440501Y487576D01*
X440512Y487548D01*
X440518Y487542D01*
X440551Y487470D01*
X440573Y487398D01*
X440590Y487326D01*
X440601Y487259D01*
X440607Y487204D01*
X440612Y487160D01*
Y487132D01*
Y487121D01*
X440607Y487004D01*
X440585Y486888D01*
X440557Y486788D01*
X440523Y486693D01*
X440490Y486616D01*
X440462Y486560D01*
X440451Y486538D01*
X440440Y486521D01*
X440435Y486516D01*
Y486510D01*
X440357Y486405D01*
X440274Y486316D01*
X440190Y486238D01*
X440107Y486177D01*
X440029Y486127D01*
X439968Y486088D01*
X439946Y486077D01*
X439930Y486066D01*
X439919Y486061D01*
X439913D01*
X439780Y486011D01*
X439646Y485972D01*
X439519Y485944D01*
X439397Y485922D01*
X439297Y485911D01*
X439253D01*
X439214Y485905D01*
X439142D01*
X438997Y485911D01*
X438858Y485927D01*
X438736Y485950D01*
X438625Y485977D01*
X438537Y486005D01*
X438498Y486016D01*
X438464Y486027D01*
X438442Y486038D01*
X438425Y486044D01*
X438414Y486050D01*
X438409D01*
X438292Y486105D01*
X438187Y486172D01*
X438098Y486238D01*
X438026Y486305D01*
X437970Y486366D01*
X437926Y486416D01*
X437904Y486449D01*
X437893Y486455D01*
Y486460D01*
X437832Y486566D01*
X437782Y486671D01*
X437748Y486777D01*
X437726Y486876D01*
X437715Y486960D01*
X437710Y486999D01*
X437704Y487026D01*
Y487054D01*
Y487071D01*
Y487082D01*
Y487087D01*
X437710Y487187D01*
X437721Y487276D01*
X437737Y487354D01*
X437759Y487420D01*
X437782Y487476D01*
X437798Y487520D01*
X437810Y487542D01*
X437815Y487554D01*
X437859Y487620D01*
X437909Y487687D01*
X437959Y487742D01*
X438015Y487792D01*
X438059Y487837D01*
X438098Y487864D01*
X438120Y487887D01*
X438131Y487892D01*
X437765D01*
Y488319D01*
X441617D01*
Y487848D01*
D02*
G37*
G36*
X439397Y467640D02*
X438925D01*
Y469100D01*
X439397D01*
Y467640D01*
D02*
G37*
G36*
X439308Y475038D02*
X439425Y475027D01*
X439536Y475011D01*
X439635Y474988D01*
X439730Y474961D01*
X439819Y474933D01*
X439896Y474900D01*
X439968Y474866D01*
X440029Y474833D01*
X440085Y474800D01*
X440129Y474772D01*
X440168Y474744D01*
X440202Y474722D01*
X440224Y474705D01*
X440235Y474694D01*
X440240Y474689D01*
X440307Y474617D01*
X440363Y474544D01*
X440412Y474467D01*
X440457Y474383D01*
X440490Y474306D01*
X440523Y474223D01*
X440568Y474067D01*
X440579Y473995D01*
X440590Y473928D01*
X440601Y473867D01*
X440607Y473817D01*
X440612Y473778D01*
Y473745D01*
Y473723D01*
Y473717D01*
X440601Y473545D01*
X440573Y473390D01*
X440540Y473251D01*
X440518Y473196D01*
X440496Y473140D01*
X440474Y473090D01*
X440451Y473046D01*
X440435Y473013D01*
X440418Y472979D01*
X440401Y472957D01*
X440390Y472940D01*
X440379Y472929D01*
Y472924D01*
X440279Y472813D01*
X440174Y472724D01*
X440063Y472646D01*
X439957Y472591D01*
X439863Y472546D01*
X439819Y472530D01*
X439785Y472513D01*
X439752Y472502D01*
X439730Y472497D01*
X439719Y472491D01*
X439713D01*
X439652Y472979D01*
X439757Y473024D01*
X439846Y473074D01*
X439924Y473124D01*
X439985Y473168D01*
X440029Y473207D01*
X440063Y473240D01*
X440085Y473268D01*
X440091Y473274D01*
X440135Y473346D01*
X440168Y473418D01*
X440190Y473495D01*
X440207Y473562D01*
X440218Y473623D01*
X440224Y473673D01*
Y473706D01*
Y473712D01*
Y473717D01*
X440218Y473784D01*
X440213Y473845D01*
X440185Y473956D01*
X440146Y474056D01*
X440102Y474145D01*
X440063Y474211D01*
X440024Y474261D01*
X439996Y474295D01*
X439985Y474300D01*
Y474306D01*
X439885Y474383D01*
X439774Y474444D01*
X439652Y474489D01*
X439541Y474522D01*
X439441Y474539D01*
X439397Y474550D01*
X439358Y474555D01*
X439325D01*
X439302Y474561D01*
X439280D01*
Y472480D01*
X439225Y472474D01*
X439158D01*
X439031Y472480D01*
X438914Y472491D01*
X438803Y472508D01*
X438697Y472530D01*
X438603Y472557D01*
X438514Y472585D01*
X438437Y472619D01*
X438365Y472652D01*
X438298Y472685D01*
X438242Y472718D01*
X438198Y472746D01*
X438159Y472774D01*
X438126Y472796D01*
X438104Y472813D01*
X438093Y472824D01*
X438087Y472829D01*
X438020Y472896D01*
X437959Y472968D01*
X437909Y473046D01*
X437865Y473124D01*
X437826Y473201D01*
X437798Y473274D01*
X437771Y473351D01*
X437754Y473418D01*
X437737Y473490D01*
X437726Y473551D01*
X437715Y473606D01*
X437710Y473651D01*
X437704Y473690D01*
Y473723D01*
Y473740D01*
Y473745D01*
X437710Y473851D01*
X437721Y473951D01*
X437737Y474045D01*
X437765Y474134D01*
X437793Y474217D01*
X437826Y474295D01*
X437859Y474367D01*
X437898Y474428D01*
X437932Y474489D01*
X437970Y474539D01*
X438004Y474583D01*
X438031Y474617D01*
X438059Y474644D01*
X438076Y474667D01*
X438087Y474678D01*
X438093Y474683D01*
X438170Y474744D01*
X438253Y474800D01*
X438337Y474850D01*
X438425Y474894D01*
X438520Y474927D01*
X438609Y474955D01*
X438786Y475000D01*
X438864Y475016D01*
X438942Y475027D01*
X439008Y475033D01*
X439069Y475038D01*
X439119Y475044D01*
X439186D01*
X439308Y475038D01*
D02*
G37*
G36*
X439874Y467274D02*
X440013Y467224D01*
X440124Y467163D01*
X440218Y467102D01*
X440296Y467046D01*
X440346Y466996D01*
X440379Y466963D01*
X440385Y466958D01*
X440390Y466952D01*
X440429Y466896D01*
X440462Y466835D01*
X440518Y466702D01*
X440557Y466564D01*
X440585Y466430D01*
X440596Y466369D01*
X440601Y466314D01*
X440607Y466258D01*
Y466214D01*
X440612Y466175D01*
Y466147D01*
Y466131D01*
Y466125D01*
X440607Y466003D01*
X440596Y465898D01*
X440579Y465798D01*
X440557Y465709D01*
X440534Y465637D01*
X440518Y465581D01*
X440507Y465548D01*
X440501Y465542D01*
Y465537D01*
X440451Y465442D01*
X440401Y465365D01*
X440346Y465298D01*
X440296Y465237D01*
X440251Y465193D01*
X440213Y465165D01*
X440190Y465143D01*
X440179Y465137D01*
X440102Y465093D01*
X440018Y465060D01*
X439946Y465032D01*
X439880Y465015D01*
X439819Y465004D01*
X439774Y464998D01*
X439735D01*
X439646Y465004D01*
X439569Y465015D01*
X439502Y465037D01*
X439441Y465054D01*
X439391Y465076D01*
X439358Y465098D01*
X439336Y465109D01*
X439330Y465115D01*
X439275Y465159D01*
X439225Y465209D01*
X439180Y465259D01*
X439147Y465309D01*
X439119Y465359D01*
X439103Y465392D01*
X439091Y465415D01*
X439086Y465426D01*
X439069Y465465D01*
X439053Y465509D01*
X439014Y465615D01*
X438975Y465731D01*
X438942Y465848D01*
X438908Y465953D01*
X438897Y466003D01*
X438886Y466042D01*
X438875Y466075D01*
X438869Y466103D01*
X438864Y466119D01*
Y466125D01*
X438847Y466186D01*
X438831Y466242D01*
X438820Y466292D01*
X438803Y466336D01*
X438786Y466408D01*
X438770Y466464D01*
X438753Y466503D01*
X438747Y466525D01*
X438742Y466536D01*
Y466541D01*
X438720Y466586D01*
X438703Y466625D01*
X438681Y466658D01*
X438664Y466680D01*
X438648Y466702D01*
X438631Y466713D01*
X438625Y466719D01*
X438620Y466724D01*
X438564Y466758D01*
X438509Y466774D01*
X438487D01*
X438470Y466780D01*
X438453D01*
X438403Y466774D01*
X438353Y466758D01*
X438309Y466736D01*
X438276Y466708D01*
X438242Y466686D01*
X438220Y466663D01*
X438209Y466647D01*
X438203Y466641D01*
X438165Y466580D01*
X438137Y466508D01*
X438120Y466430D01*
X438104Y466358D01*
X438098Y466286D01*
X438093Y466230D01*
Y466208D01*
Y466192D01*
Y466181D01*
Y466175D01*
X438098Y466081D01*
X438109Y465992D01*
X438131Y465920D01*
X438154Y465864D01*
X438176Y465814D01*
X438198Y465781D01*
X438209Y465759D01*
X438215Y465753D01*
X438265Y465698D01*
X438320Y465659D01*
X438376Y465626D01*
X438425Y465598D01*
X438476Y465581D01*
X438514Y465570D01*
X438537Y465564D01*
X438548D01*
X438487Y465104D01*
X438392Y465126D01*
X438309Y465148D01*
X438237Y465176D01*
X438170Y465204D01*
X438126Y465232D01*
X438087Y465254D01*
X438065Y465265D01*
X438059Y465270D01*
X438004Y465320D01*
X437954Y465376D01*
X437909Y465437D01*
X437871Y465498D01*
X437843Y465553D01*
X437821Y465598D01*
X437810Y465626D01*
X437804Y465631D01*
Y465637D01*
X437771Y465731D01*
X437748Y465831D01*
X437726Y465925D01*
X437715Y466014D01*
X437710Y466097D01*
X437704Y466158D01*
Y466181D01*
Y466197D01*
Y466208D01*
Y466214D01*
Y466292D01*
X437715Y466369D01*
X437721Y466436D01*
X437732Y466497D01*
X437743Y466547D01*
X437754Y466586D01*
X437759Y466608D01*
X437765Y466619D01*
X437787Y466686D01*
X437810Y466747D01*
X437832Y466797D01*
X437854Y466841D01*
X437871Y466874D01*
X437887Y466896D01*
X437893Y466913D01*
X437898Y466919D01*
X437937Y466974D01*
X437982Y467019D01*
X438031Y467058D01*
X438070Y467091D01*
X438109Y467119D01*
X438137Y467135D01*
X438159Y467146D01*
X438165Y467152D01*
X438226Y467180D01*
X438281Y467202D01*
X438342Y467213D01*
X438392Y467224D01*
X438442Y467230D01*
X438476Y467235D01*
X438509D01*
X438587Y467230D01*
X438653Y467218D01*
X438720Y467202D01*
X438775Y467185D01*
X438820Y467169D01*
X438858Y467152D01*
X438881Y467141D01*
X438886Y467135D01*
X438947Y467091D01*
X438997Y467041D01*
X439042Y466991D01*
X439080Y466941D01*
X439108Y466896D01*
X439130Y466863D01*
X439142Y466841D01*
X439147Y466830D01*
X439164Y466791D01*
X439186Y466741D01*
X439225Y466630D01*
X439258Y466514D01*
X439297Y466392D01*
X439325Y466286D01*
X439341Y466236D01*
X439352Y466192D01*
X439363Y466158D01*
X439369Y466131D01*
X439375Y466114D01*
Y466108D01*
X439391Y466036D01*
X439408Y465975D01*
X439425Y465920D01*
X439441Y465870D01*
X439452Y465825D01*
X439469Y465787D01*
X439491Y465720D01*
X439508Y465675D01*
X439524Y465648D01*
X439530Y465631D01*
X439536Y465626D01*
X439569Y465576D01*
X439613Y465542D01*
X439652Y465515D01*
X439691Y465498D01*
X439730Y465487D01*
X439757Y465481D01*
X439785D01*
X439852Y465487D01*
X439907Y465504D01*
X439963Y465531D01*
X440007Y465559D01*
X440046Y465592D01*
X440074Y465615D01*
X440091Y465637D01*
X440096Y465642D01*
X440140Y465709D01*
X440168Y465781D01*
X440190Y465864D01*
X440207Y465942D01*
X440218Y466014D01*
X440224Y466070D01*
Y466092D01*
Y466108D01*
Y466119D01*
Y466125D01*
X440218Y466242D01*
X440202Y466341D01*
X440179Y466425D01*
X440152Y466497D01*
X440124Y466552D01*
X440102Y466597D01*
X440085Y466619D01*
X440079Y466630D01*
X440018Y466691D01*
X439946Y466741D01*
X439874Y466774D01*
X439808Y466802D01*
X439746Y466824D01*
X439691Y466835D01*
X439658Y466847D01*
X439646D01*
X439719Y467313D01*
X439874Y467274D01*
D02*
G37*
G36*
X441617Y471425D02*
X440263D01*
X440318Y471381D01*
X440368Y471331D01*
X440412Y471276D01*
X440446Y471231D01*
X440479Y471187D01*
X440501Y471153D01*
X440512Y471126D01*
X440518Y471120D01*
X440551Y471048D01*
X440573Y470976D01*
X440590Y470904D01*
X440601Y470837D01*
X440607Y470782D01*
X440612Y470737D01*
Y470709D01*
Y470698D01*
X440607Y470582D01*
X440585Y470465D01*
X440557Y470365D01*
X440523Y470271D01*
X440490Y470193D01*
X440462Y470138D01*
X440451Y470116D01*
X440440Y470099D01*
X440435Y470093D01*
Y470088D01*
X440357Y469982D01*
X440274Y469894D01*
X440190Y469816D01*
X440107Y469755D01*
X440029Y469705D01*
X439968Y469666D01*
X439946Y469655D01*
X439930Y469644D01*
X439919Y469638D01*
X439913D01*
X439780Y469588D01*
X439646Y469549D01*
X439519Y469522D01*
X439397Y469499D01*
X439297Y469488D01*
X439253D01*
X439214Y469483D01*
X439142D01*
X438997Y469488D01*
X438858Y469505D01*
X438736Y469527D01*
X438625Y469555D01*
X438537Y469583D01*
X438498Y469594D01*
X438464Y469605D01*
X438442Y469616D01*
X438425Y469622D01*
X438414Y469627D01*
X438409D01*
X438292Y469683D01*
X438187Y469749D01*
X438098Y469816D01*
X438026Y469882D01*
X437970Y469944D01*
X437926Y469993D01*
X437904Y470027D01*
X437893Y470032D01*
Y470038D01*
X437832Y470143D01*
X437782Y470249D01*
X437748Y470354D01*
X437726Y470454D01*
X437715Y470537D01*
X437710Y470576D01*
X437704Y470604D01*
Y470632D01*
Y470648D01*
Y470659D01*
Y470665D01*
X437710Y470765D01*
X437721Y470854D01*
X437737Y470931D01*
X437759Y470998D01*
X437782Y471054D01*
X437798Y471098D01*
X437810Y471120D01*
X437815Y471131D01*
X437859Y471198D01*
X437909Y471264D01*
X437959Y471320D01*
X438015Y471370D01*
X438059Y471414D01*
X438098Y471442D01*
X438120Y471464D01*
X438131Y471470D01*
X437765D01*
Y471897D01*
X441617D01*
Y471425D01*
D02*
G37*
%LPC*%
G36*
X430969Y460402D02*
X429848Y459986D01*
X429710Y459936D01*
X429576Y459897D01*
X429454Y459858D01*
X429343Y459830D01*
X429249Y459808D01*
X429210Y459797D01*
X429171Y459792D01*
X429149Y459780D01*
X429127D01*
X429116Y459775D01*
X429110D01*
X429238Y459736D01*
X429371Y459692D01*
X429504Y459647D01*
X429632Y459603D01*
X429687Y459581D01*
X429743Y459564D01*
X429793Y459547D01*
X429832Y459531D01*
X429865Y459520D01*
X429893Y459509D01*
X429909Y459503D01*
X429915D01*
X430969Y459103D01*
Y460402D01*
D02*
G37*
G36*
X439835Y461108D02*
X439802D01*
X439757Y461102D01*
X439713Y461097D01*
X439680Y461086D01*
X439646Y461075D01*
X439619Y461063D01*
X439597Y461058D01*
X439585Y461047D01*
X439580D01*
X439513Y460991D01*
X439469Y460925D01*
X439452Y460903D01*
X439441Y460880D01*
X439430Y460864D01*
Y460858D01*
X439408Y460803D01*
X439391Y460742D01*
X439375Y460675D01*
X439363Y460608D01*
X439352Y460547D01*
X439341Y460492D01*
X439336Y460459D01*
Y460453D01*
Y460447D01*
X439319Y460353D01*
X439308Y460264D01*
X439291Y460187D01*
X439275Y460109D01*
X439258Y460037D01*
X439241Y459976D01*
X439230Y459915D01*
X439214Y459865D01*
X439202Y459820D01*
X439191Y459781D01*
X439180Y459748D01*
X439169Y459720D01*
X439164Y459698D01*
X439158Y459682D01*
X439153Y459676D01*
Y459670D01*
X439330Y459676D01*
X439441Y459682D01*
X439536Y459687D01*
X439613Y459698D01*
X439680Y459715D01*
X439730Y459731D01*
X439769Y459743D01*
X439791Y459748D01*
X439796Y459754D01*
X439868Y459798D01*
X439935Y459842D01*
X439991Y459898D01*
X440035Y459948D01*
X440074Y459992D01*
X440102Y460031D01*
X440118Y460053D01*
X440124Y460065D01*
X440163Y460148D01*
X440190Y460231D01*
X440213Y460309D01*
X440224Y460386D01*
X440235Y460447D01*
X440240Y460503D01*
Y460536D01*
Y460542D01*
Y460547D01*
X440235Y460647D01*
X440224Y460731D01*
X440202Y460803D01*
X440179Y460864D01*
X440157Y460908D01*
X440135Y460941D01*
X440124Y460964D01*
X440118Y460969D01*
X440068Y461014D01*
X440013Y461047D01*
X439963Y461075D01*
X439913Y461091D01*
X439868Y461102D01*
X439835Y461108D01*
D02*
G37*
G36*
X438892Y464088D02*
X438764Y464072D01*
X438648Y464038D01*
X438548Y463999D01*
X438470Y463955D01*
X438403Y463916D01*
X438353Y463877D01*
X438326Y463855D01*
X438314Y463844D01*
X438242Y463755D01*
X438187Y463666D01*
X438148Y463572D01*
X438120Y463483D01*
X438104Y463411D01*
X438098Y463350D01*
X438093Y463328D01*
Y463311D01*
Y463300D01*
Y463295D01*
X438098Y463228D01*
X438104Y463167D01*
X438137Y463050D01*
X438181Y462951D01*
X438231Y462867D01*
X438281Y462801D01*
X438326Y462751D01*
X438359Y462723D01*
X438365Y462712D01*
X438370D01*
X438442Y462662D01*
X438525Y462617D01*
X438609Y462590D01*
X438697Y462562D01*
X438770Y462545D01*
X438836Y462534D01*
X438858D01*
X438875Y462529D01*
X438892D01*
Y464088D01*
D02*
G37*
G36*
X439225Y487892D02*
X439075D01*
X438986Y487881D01*
X438903Y487870D01*
X438820Y487859D01*
X438747Y487837D01*
X438681Y487820D01*
X438620Y487798D01*
X438564Y487776D01*
X438520Y487759D01*
X438476Y487737D01*
X438442Y487715D01*
X438409Y487698D01*
X438387Y487687D01*
X438370Y487676D01*
X438365Y487665D01*
X438359D01*
X438309Y487620D01*
X438265Y487576D01*
X438226Y487531D01*
X438192Y487481D01*
X438142Y487393D01*
X438109Y487309D01*
X438093Y487237D01*
X438081Y487182D01*
X438076Y487160D01*
Y487143D01*
Y487137D01*
Y487132D01*
X438081Y487076D01*
X438087Y487021D01*
X438115Y486921D01*
X438159Y486832D01*
X438209Y486754D01*
X438259Y486693D01*
X438298Y486649D01*
X438331Y486621D01*
X438337Y486610D01*
X438342D01*
X438392Y486571D01*
X438453Y486538D01*
X438581Y486482D01*
X438709Y486444D01*
X438836Y486416D01*
X438953Y486399D01*
X439003Y486394D01*
X439047D01*
X439086Y486388D01*
X439236D01*
X439330Y486399D01*
X439419Y486410D01*
X439502Y486421D01*
X439574Y486438D01*
X439641Y486460D01*
X439708Y486482D01*
X439757Y486499D01*
X439808Y486521D01*
X439846Y486544D01*
X439885Y486560D01*
X439913Y486582D01*
X439935Y486593D01*
X439952Y486605D01*
X439957Y486616D01*
X439963D01*
X440007Y486660D01*
X440046Y486704D01*
X440113Y486793D01*
X440157Y486882D01*
X440190Y486965D01*
X440207Y487043D01*
X440218Y487099D01*
X440224Y487121D01*
Y487137D01*
Y487149D01*
Y487154D01*
X440218Y487210D01*
X440213Y487265D01*
X440185Y487365D01*
X440140Y487454D01*
X440096Y487531D01*
X440052Y487593D01*
X440007Y487637D01*
X439980Y487665D01*
X439968Y487676D01*
X439919Y487715D01*
X439863Y487748D01*
X439735Y487803D01*
X439608Y487837D01*
X439474Y487864D01*
X439358Y487881D01*
X439308Y487887D01*
X439264D01*
X439225Y487892D01*
D02*
G37*
G36*
X430758Y453859D02*
X430692D01*
X430537Y453853D01*
X430392Y453842D01*
X430254Y453825D01*
X430131Y453797D01*
X430020Y453770D01*
X429920Y453736D01*
X429826Y453698D01*
X429748Y453664D01*
X429676Y453625D01*
X429615Y453592D01*
X429565Y453559D01*
X429526Y453531D01*
X429493Y453503D01*
X429471Y453487D01*
X429460Y453476D01*
X429454Y453470D01*
X429388Y453398D01*
X429332Y453320D01*
X429282Y453242D01*
X429238Y453159D01*
X429205Y453082D01*
X429171Y453004D01*
X429127Y452860D01*
X429116Y452793D01*
X429105Y452732D01*
X429094Y452682D01*
X429088Y452632D01*
X429082Y452593D01*
Y452565D01*
Y452549D01*
Y452543D01*
X429088Y452404D01*
X429110Y452271D01*
X429143Y452155D01*
X429177Y452055D01*
X429216Y451972D01*
X429232Y451938D01*
X429243Y451910D01*
X429260Y451883D01*
X429266Y451866D01*
X429277Y451861D01*
Y451855D01*
X429354Y451750D01*
X429443Y451655D01*
X429532Y451572D01*
X429621Y451505D01*
X429699Y451455D01*
X429765Y451417D01*
X429787Y451405D01*
X429804Y451394D01*
X429815Y451389D01*
X429821D01*
X429954Y451333D01*
X430098Y451295D01*
X430231Y451267D01*
X430359Y451250D01*
X430420Y451239D01*
X430470Y451233D01*
X430520D01*
X430559Y451228D01*
X430636D01*
X430770Y451233D01*
X430897Y451244D01*
X431019Y451261D01*
X431130Y451283D01*
X431230Y451317D01*
X431325Y451344D01*
X431413Y451378D01*
X431491Y451411D01*
X431558Y451450D01*
X431619Y451483D01*
X431669Y451511D01*
X431708Y451539D01*
X431741Y451566D01*
X431769Y451583D01*
X431780Y451594D01*
X431785Y451600D01*
X431857Y451672D01*
X431918Y451750D01*
X431968Y451827D01*
X432018Y451905D01*
X432057Y451983D01*
X432085Y452066D01*
X432113Y452138D01*
X432135Y452216D01*
X432152Y452282D01*
X432163Y452349D01*
X432174Y452404D01*
X432179Y452454D01*
Y452493D01*
X432185Y452521D01*
Y452543D01*
Y452549D01*
X432179Y452654D01*
X432168Y452754D01*
X432146Y452843D01*
X432124Y452932D01*
X432091Y453015D01*
X432057Y453093D01*
X432024Y453165D01*
X431985Y453231D01*
X431946Y453287D01*
X431913Y453337D01*
X431880Y453381D01*
X431846Y453420D01*
X431824Y453448D01*
X431802Y453470D01*
X431791Y453481D01*
X431785Y453487D01*
X431708Y453553D01*
X431624Y453609D01*
X431535Y453659D01*
X431447Y453703D01*
X431352Y453736D01*
X431264Y453770D01*
X431086Y453814D01*
X431008Y453825D01*
X430931Y453836D01*
X430864Y453848D01*
X430808Y453853D01*
X430758Y453859D01*
D02*
G37*
G36*
X438892Y477519D02*
X438764Y477503D01*
X438648Y477469D01*
X438548Y477430D01*
X438470Y477386D01*
X438403Y477347D01*
X438353Y477308D01*
X438326Y477286D01*
X438314Y477275D01*
X438242Y477186D01*
X438187Y477097D01*
X438148Y477003D01*
X438120Y476914D01*
X438104Y476842D01*
X438098Y476781D01*
X438093Y476759D01*
Y476742D01*
Y476731D01*
Y476726D01*
X438098Y476659D01*
X438104Y476598D01*
X438137Y476481D01*
X438181Y476381D01*
X438231Y476298D01*
X438281Y476232D01*
X438326Y476182D01*
X438359Y476154D01*
X438365Y476143D01*
X438370D01*
X438442Y476093D01*
X438525Y476049D01*
X438609Y476021D01*
X438697Y475993D01*
X438770Y475976D01*
X438836Y475965D01*
X438858D01*
X438875Y475960D01*
X438892D01*
Y477519D01*
D02*
G37*
G36*
X432096Y492781D02*
X429166D01*
Y491976D01*
Y491893D01*
X429171Y491821D01*
Y491748D01*
X429177Y491682D01*
X429193Y491571D01*
X429205Y491482D01*
X429221Y491410D01*
X429238Y491360D01*
X429243Y491332D01*
X429249Y491321D01*
X429299Y491221D01*
X429360Y491127D01*
X429432Y491044D01*
X429504Y490971D01*
X429571Y490916D01*
X429626Y490871D01*
X429648Y490860D01*
X429665Y490849D01*
X429676Y490838D01*
X429682D01*
X429743Y490805D01*
X429815Y490772D01*
X429959Y490722D01*
X430115Y490688D01*
X430265Y490661D01*
X430331Y490655D01*
X430398Y490650D01*
X430453Y490644D01*
X430503D01*
X430548Y490638D01*
X430603D01*
X430758Y490644D01*
X430903Y490655D01*
X431031Y490672D01*
X431142Y490688D01*
X431186Y490699D01*
X431225Y490711D01*
X431264Y490722D01*
X431291Y490727D01*
X431314Y490733D01*
X431330Y490738D01*
X431341Y490744D01*
X431347D01*
X431452Y490783D01*
X431547Y490827D01*
X431630Y490877D01*
X431702Y490921D01*
X431757Y490960D01*
X431796Y490994D01*
X431819Y491016D01*
X431830Y491021D01*
X431874Y491077D01*
X431913Y491132D01*
X431946Y491188D01*
X431980Y491243D01*
X432002Y491293D01*
X432018Y491332D01*
X432024Y491360D01*
X432029Y491371D01*
X432052Y491454D01*
X432068Y491554D01*
X432079Y491654D01*
X432085Y491748D01*
X432091Y491832D01*
X432096Y491870D01*
Y491904D01*
Y491926D01*
Y491948D01*
Y491959D01*
Y491965D01*
Y492781D01*
D02*
G37*
G36*
X430969Y488735D02*
X429848Y488318D01*
X429710Y488269D01*
X429576Y488230D01*
X429454Y488191D01*
X429343Y488163D01*
X429249Y488141D01*
X429210Y488130D01*
X429171Y488124D01*
X429149Y488113D01*
X429127D01*
X429116Y488108D01*
X429110D01*
X429238Y488069D01*
X429371Y488024D01*
X429504Y487980D01*
X429632Y487936D01*
X429687Y487913D01*
X429743Y487897D01*
X429793Y487880D01*
X429832Y487863D01*
X429865Y487852D01*
X429893Y487841D01*
X429909Y487836D01*
X429915D01*
X430969Y487436D01*
Y488735D01*
D02*
G37*
G36*
X438892Y474533D02*
X438764Y474517D01*
X438648Y474483D01*
X438548Y474444D01*
X438470Y474400D01*
X438403Y474361D01*
X438353Y474322D01*
X438326Y474300D01*
X438314Y474289D01*
X438242Y474200D01*
X438187Y474112D01*
X438148Y474017D01*
X438120Y473928D01*
X438104Y473856D01*
X438098Y473795D01*
X438093Y473773D01*
Y473756D01*
Y473745D01*
Y473740D01*
X438098Y473673D01*
X438104Y473612D01*
X438137Y473495D01*
X438181Y473396D01*
X438231Y473312D01*
X438281Y473246D01*
X438326Y473196D01*
X438359Y473168D01*
X438365Y473157D01*
X438370D01*
X438442Y473107D01*
X438525Y473063D01*
X438609Y473035D01*
X438697Y473007D01*
X438770Y472990D01*
X438836Y472979D01*
X438858D01*
X438875Y472974D01*
X438892D01*
Y474533D01*
D02*
G37*
G36*
X439208Y453982D02*
X439158D01*
X439064Y453976D01*
X438969Y453971D01*
X438886Y453960D01*
X438808Y453943D01*
X438736Y453926D01*
X438670Y453909D01*
X438614Y453887D01*
X438559Y453865D01*
X438514Y453843D01*
X438470Y453821D01*
X438437Y453804D01*
X438409Y453787D01*
X438387Y453771D01*
X438370Y453760D01*
X438365Y453749D01*
X438359D01*
X438314Y453704D01*
X438270Y453654D01*
X438203Y453560D01*
X438159Y453460D01*
X438126Y453366D01*
X438104Y453282D01*
X438098Y453221D01*
X438093Y453194D01*
Y453177D01*
Y453166D01*
Y453160D01*
X438098Y453094D01*
X438104Y453033D01*
X438131Y452922D01*
X438176Y452822D01*
X438226Y452739D01*
X438276Y452672D01*
X438314Y452622D01*
X438348Y452589D01*
X438353Y452577D01*
X438359D01*
X438409Y452533D01*
X438470Y452500D01*
X438592Y452439D01*
X438725Y452394D01*
X438847Y452367D01*
X438964Y452350D01*
X439014Y452344D01*
X439058D01*
X439091Y452339D01*
X439241D01*
X439336Y452350D01*
X439419Y452361D01*
X439502Y452378D01*
X439574Y452394D01*
X439641Y452417D01*
X439702Y452433D01*
X439757Y452455D01*
X439802Y452478D01*
X439846Y452500D01*
X439880Y452522D01*
X439907Y452539D01*
X439930Y452555D01*
X439946Y452566D01*
X439952Y452572D01*
X439957Y452577D01*
X440002Y452622D01*
X440046Y452672D01*
X440113Y452766D01*
X440157Y452866D01*
X440190Y452955D01*
X440207Y453038D01*
X440218Y453099D01*
X440224Y453127D01*
Y453144D01*
Y453155D01*
Y453160D01*
X440218Y453227D01*
X440213Y453288D01*
X440185Y453405D01*
X440140Y453504D01*
X440091Y453588D01*
X440046Y453654D01*
X440002Y453704D01*
X439974Y453737D01*
X439963Y453743D01*
Y453749D01*
X439907Y453787D01*
X439852Y453826D01*
X439724Y453882D01*
X439591Y453926D01*
X439458Y453954D01*
X439341Y453971D01*
X439291Y453976D01*
X439247D01*
X439208Y453982D01*
D02*
G37*
G36*
X430409Y464442D02*
X429138D01*
Y463233D01*
X429143Y463083D01*
X429166Y462955D01*
X429193Y462844D01*
X429227Y462761D01*
X429260Y462689D01*
X429288Y462644D01*
X429310Y462616D01*
X429316Y462605D01*
X429388Y462539D01*
X429460Y462489D01*
X429537Y462456D01*
X429604Y462428D01*
X429671Y462417D01*
X429721Y462411D01*
X429754Y462406D01*
X429765D01*
X429832Y462411D01*
X429898Y462422D01*
X429954Y462439D01*
X430004Y462456D01*
X430048Y462478D01*
X430081Y462494D01*
X430104Y462505D01*
X430109Y462511D01*
X430165Y462550D01*
X430215Y462600D01*
X430254Y462650D01*
X430287Y462700D01*
X430309Y462744D01*
X430326Y462777D01*
X430337Y462800D01*
X430342Y462811D01*
X430365Y462888D01*
X430381Y462977D01*
X430392Y463066D01*
X430398Y463155D01*
X430403Y463233D01*
X430409Y463299D01*
Y463321D01*
Y463338D01*
Y463349D01*
Y463355D01*
Y464442D01*
D02*
G37*
G36*
X439214Y480549D02*
X439064D01*
X438969Y480538D01*
X438881Y480527D01*
X438803Y480516D01*
X438731Y480500D01*
X438664Y480483D01*
X438603Y480466D01*
X438548Y480444D01*
X438503Y480422D01*
X438464Y480405D01*
X438431Y480389D01*
X438403Y480372D01*
X438381Y480355D01*
X438365Y480350D01*
X438359Y480339D01*
X438353D01*
X438309Y480300D01*
X438265Y480255D01*
X438203Y480167D01*
X438154Y480078D01*
X438126Y479994D01*
X438104Y479922D01*
X438098Y479861D01*
X438093Y479839D01*
Y479822D01*
Y479817D01*
Y479811D01*
X438098Y479750D01*
X438104Y479695D01*
X438137Y479589D01*
X438176Y479495D01*
X438226Y479417D01*
X438276Y479356D01*
X438320Y479306D01*
X438353Y479279D01*
X438359Y479268D01*
X438365D01*
X438420Y479229D01*
X438476Y479195D01*
X438609Y479140D01*
X438747Y479101D01*
X438881Y479073D01*
X438947Y479062D01*
X439008Y479057D01*
X439064Y479051D01*
X439108D01*
X439147Y479045D01*
X439297D01*
X439386Y479057D01*
X439463Y479068D01*
X439541Y479079D01*
X439608Y479095D01*
X439674Y479118D01*
X439730Y479134D01*
X439780Y479156D01*
X439824Y479179D01*
X439868Y479195D01*
X439896Y479217D01*
X439924Y479234D01*
X439946Y479245D01*
X439963Y479256D01*
X439968Y479268D01*
X439974D01*
X440018Y479306D01*
X440057Y479351D01*
X440118Y479439D01*
X440163Y479528D01*
X440190Y479612D01*
X440213Y479684D01*
X440218Y479745D01*
X440224Y479767D01*
Y479778D01*
Y479789D01*
Y479795D01*
X440218Y479850D01*
X440213Y479906D01*
X440185Y480006D01*
X440140Y480100D01*
X440091Y480178D01*
X440046Y480239D01*
X440002Y480289D01*
X439974Y480316D01*
X439963Y480322D01*
Y480328D01*
X439907Y480366D01*
X439852Y480400D01*
X439724Y480455D01*
X439591Y480494D01*
X439463Y480522D01*
X439347Y480538D01*
X439297Y480544D01*
X439253D01*
X439214Y480549D01*
D02*
G37*
G36*
X439225Y471470D02*
X439075D01*
X438986Y471459D01*
X438903Y471448D01*
X438820Y471436D01*
X438747Y471414D01*
X438681Y471398D01*
X438620Y471375D01*
X438564Y471353D01*
X438520Y471337D01*
X438476Y471314D01*
X438442Y471292D01*
X438409Y471276D01*
X438387Y471264D01*
X438370Y471253D01*
X438365Y471242D01*
X438359D01*
X438309Y471198D01*
X438265Y471153D01*
X438226Y471109D01*
X438192Y471059D01*
X438142Y470970D01*
X438109Y470887D01*
X438093Y470815D01*
X438081Y470759D01*
X438076Y470737D01*
Y470720D01*
Y470715D01*
Y470709D01*
X438081Y470654D01*
X438087Y470598D01*
X438115Y470499D01*
X438159Y470410D01*
X438209Y470332D01*
X438259Y470271D01*
X438298Y470226D01*
X438331Y470199D01*
X438337Y470188D01*
X438342D01*
X438392Y470149D01*
X438453Y470116D01*
X438581Y470060D01*
X438709Y470021D01*
X438836Y469993D01*
X438953Y469977D01*
X439003Y469971D01*
X439047D01*
X439086Y469966D01*
X439236D01*
X439330Y469977D01*
X439419Y469988D01*
X439502Y469999D01*
X439574Y470016D01*
X439641Y470038D01*
X439708Y470060D01*
X439757Y470077D01*
X439808Y470099D01*
X439846Y470121D01*
X439885Y470138D01*
X439913Y470160D01*
X439935Y470171D01*
X439952Y470182D01*
X439957Y470193D01*
X439963D01*
X440007Y470238D01*
X440046Y470282D01*
X440113Y470371D01*
X440157Y470460D01*
X440190Y470543D01*
X440207Y470621D01*
X440218Y470676D01*
X440224Y470698D01*
Y470715D01*
Y470726D01*
Y470732D01*
X440218Y470787D01*
X440213Y470843D01*
X440185Y470942D01*
X440140Y471031D01*
X440096Y471109D01*
X440052Y471170D01*
X440007Y471214D01*
X439980Y471242D01*
X439968Y471253D01*
X439919Y471292D01*
X439863Y471325D01*
X439735Y471381D01*
X439608Y471414D01*
X439474Y471442D01*
X439358Y471459D01*
X439308Y471464D01*
X439264D01*
X439225Y471470D01*
D02*
G37*
%LPD*%
D29*
X275178Y184252D02*
G03*
X275178Y184252I-1261J0D01*
G01*
D45*
X397894Y269488D02*
G03*
X397894Y269488I-492J0D01*
G01*
X273228Y419980D02*
G03*
X273228Y419980I-492J0D01*
G01*
X256693Y367618D02*
G03*
X256693Y367618I-492J0D01*
G01*
X321850Y367224D02*
G03*
X321850Y367224I-492J0D01*
G01*
X340945Y418209D02*
G03*
X340945Y418209I-492J0D01*
G01*
D46*
X379921Y253740D02*
G03*
X379921Y253740I-197J0D01*
G01*
X368307Y253839D02*
G03*
X368307Y253839I-197J0D01*
G01*
D47*
X362697Y283071D02*
Y288976D01*
Y283071D02*
X403642D01*
Y288976D01*
X265846Y418799D02*
X268602D01*
X265846Y415650D02*
Y418799D01*
Y406988D02*
X268602D01*
X265846D02*
Y410138D01*
X268602Y370177D02*
X270571D01*
X268602Y389075D02*
X270571D01*
X254823Y370177D02*
X256791D01*
X254823Y389075D02*
X256791D01*
X270571Y370177D02*
Y389075D01*
X254823Y370177D02*
Y389075D01*
X333760Y369783D02*
X335728D01*
X333760Y388681D02*
X335728D01*
X319980Y369783D02*
X321949D01*
X319980Y388681D02*
X321949D01*
X335728Y369783D02*
Y388681D01*
X319980Y369783D02*
Y388681D01*
X387205Y238779D02*
Y252165D01*
X379724Y238779D02*
Y252165D01*
X375590Y238878D02*
Y252264D01*
X368110Y238878D02*
Y252264D01*
X333563Y417028D02*
X336319D01*
X333563Y413878D02*
Y417028D01*
Y405217D02*
X336319D01*
X333563D02*
Y408366D01*
M02*
