%FSLAX25Y25*%
%MOIN*%
G70*
G01*
G75*
G04 Layer_Physical_Order=1*
G04 Layer_Color=255*
%ADD10O,0.06890X0.02165*%
%ADD11O,0.02165X0.06890*%
G04:AMPARAMS|DCode=12|XSize=78.74mil|YSize=39.37mil|CornerRadius=7.87mil|HoleSize=0mil|Usage=FLASHONLY|Rotation=270.000|XOffset=0mil|YOffset=0mil|HoleType=Round|Shape=RoundedRectangle|*
%AMROUNDEDRECTD12*
21,1,0.07874,0.02362,0,0,270.0*
21,1,0.06299,0.03937,0,0,270.0*
1,1,0.01575,-0.01181,-0.03150*
1,1,0.01575,-0.01181,0.03150*
1,1,0.01575,0.01181,0.03150*
1,1,0.01575,0.01181,-0.03150*
%
%ADD12ROUNDEDRECTD12*%
G04:AMPARAMS|DCode=13|XSize=39.37mil|YSize=78.74mil|CornerRadius=7.87mil|HoleSize=0mil|Usage=FLASHONLY|Rotation=270.000|XOffset=0mil|YOffset=0mil|HoleType=Round|Shape=RoundedRectangle|*
%AMROUNDEDRECTD13*
21,1,0.03937,0.06299,0,0,270.0*
21,1,0.02362,0.07874,0,0,270.0*
1,1,0.01575,-0.03150,-0.01181*
1,1,0.01575,-0.03150,0.01181*
1,1,0.01575,0.03150,0.01181*
1,1,0.01575,0.03150,-0.01181*
%
%ADD13ROUNDEDRECTD13*%
%ADD14R,0.03937X0.09449*%
%ADD15R,0.12992X0.09449*%
G04:AMPARAMS|DCode=16|XSize=83mil|YSize=55mil|CornerRadius=13.75mil|HoleSize=0mil|Usage=FLASHONLY|Rotation=90.000|XOffset=0mil|YOffset=0mil|HoleType=Round|Shape=RoundedRectangle|*
%AMROUNDEDRECTD16*
21,1,0.08300,0.02750,0,0,90.0*
21,1,0.05550,0.05500,0,0,90.0*
1,1,0.02750,0.01375,0.02775*
1,1,0.02750,0.01375,-0.02775*
1,1,0.02750,-0.01375,-0.02775*
1,1,0.02750,-0.01375,0.02775*
%
%ADD16ROUNDEDRECTD16*%
%ADD17R,0.03937X0.03937*%
%ADD18R,0.03937X0.03937*%
G04:AMPARAMS|DCode=19|XSize=74.8mil|YSize=74.8mil|CornerRadius=18.7mil|HoleSize=0mil|Usage=FLASHONLY|Rotation=90.000|XOffset=0mil|YOffset=0mil|HoleType=Round|Shape=RoundedRectangle|*
%AMROUNDEDRECTD19*
21,1,0.07480,0.03740,0,0,90.0*
21,1,0.03740,0.07480,0,0,90.0*
1,1,0.03740,0.01870,0.01870*
1,1,0.03740,0.01870,-0.01870*
1,1,0.03740,-0.01870,-0.01870*
1,1,0.03740,-0.01870,0.01870*
%
%ADD19ROUNDEDRECTD19*%
G04:AMPARAMS|DCode=20|XSize=15.75mil|YSize=53.15mil|CornerRadius=3.94mil|HoleSize=0mil|Usage=FLASHONLY|Rotation=90.000|XOffset=0mil|YOffset=0mil|HoleType=Round|Shape=RoundedRectangle|*
%AMROUNDEDRECTD20*
21,1,0.01575,0.04528,0,0,90.0*
21,1,0.00787,0.05315,0,0,90.0*
1,1,0.00787,0.02264,0.00394*
1,1,0.00787,0.02264,-0.00394*
1,1,0.00787,-0.02264,-0.00394*
1,1,0.00787,-0.02264,0.00394*
%
%ADD20ROUNDEDRECTD20*%
G04:AMPARAMS|DCode=21|XSize=70.87mil|YSize=74.8mil|CornerRadius=17.72mil|HoleSize=0mil|Usage=FLASHONLY|Rotation=90.000|XOffset=0mil|YOffset=0mil|HoleType=Round|Shape=RoundedRectangle|*
%AMROUNDEDRECTD21*
21,1,0.07087,0.03937,0,0,90.0*
21,1,0.03543,0.07480,0,0,90.0*
1,1,0.03543,0.01969,0.01772*
1,1,0.03543,0.01969,-0.01772*
1,1,0.03543,-0.01969,-0.01772*
1,1,0.03543,-0.01969,0.01772*
%
%ADD21ROUNDEDRECTD21*%
G04:AMPARAMS|DCode=22|XSize=82.68mil|YSize=62.99mil|CornerRadius=15.75mil|HoleSize=0mil|Usage=FLASHONLY|Rotation=90.000|XOffset=0mil|YOffset=0mil|HoleType=Round|Shape=RoundedRectangle|*
%AMROUNDEDRECTD22*
21,1,0.08268,0.03150,0,0,90.0*
21,1,0.05118,0.06299,0,0,90.0*
1,1,0.03150,0.01575,0.02559*
1,1,0.03150,0.01575,-0.02559*
1,1,0.03150,-0.01575,-0.02559*
1,1,0.03150,-0.01575,0.02559*
%
%ADD22ROUNDEDRECTD22*%
%ADD23R,0.07087X0.08661*%
%ADD24R,0.03740X0.03937*%
%ADD25R,0.07677X0.04724*%
%ADD26R,0.03937X0.03740*%
%ADD27C,0.02000*%
%ADD28C,0.01500*%
%ADD29C,0.01000*%
%ADD30C,0.10000*%
%ADD31C,0.09843*%
%ADD32C,0.10000*%
%ADD33R,0.05906X0.05906*%
%ADD34C,0.05906*%
%ADD35R,0.05906X0.05906*%
%ADD36C,0.05118*%
%ADD37C,0.05000*%
G36*
X302445Y319067D02*
X285996D01*
X285996Y319067D01*
X285216Y318912D01*
X284554Y318470D01*
X284554Y318470D01*
X268391Y302307D01*
X267929Y302498D01*
Y303910D01*
X283987Y319968D01*
X302445D01*
Y319067D01*
D02*
G37*
G36*
X415285Y316947D02*
X414343Y316005D01*
X412242D01*
X412242Y316005D01*
X412004Y315957D01*
X381546D01*
X380557Y316947D01*
X380748Y317409D01*
X415093D01*
X415285Y316947D01*
D02*
G37*
G36*
X351466Y314351D02*
X351391Y313779D01*
X351508Y312890D01*
X347852Y309234D01*
X347584Y308832D01*
X347087Y308783D01*
X346523Y309347D01*
X346575Y309736D01*
X339646D01*
X339700Y309323D01*
X340053Y308471D01*
X340614Y307740D01*
X341345Y307179D01*
X341999Y306908D01*
X342048Y306411D01*
X341674Y306161D01*
X341490Y305886D01*
X340990D01*
X340806Y306161D01*
X340283Y306511D01*
X339665Y306633D01*
X339048Y306511D01*
X338524Y306161D01*
X338341Y305886D01*
X337841D01*
X337657Y306161D01*
X337133Y306511D01*
X336516Y306633D01*
X335898Y306511D01*
X335591Y306306D01*
X335150Y306541D01*
Y307050D01*
X335747Y307297D01*
X336478Y307858D01*
X337039Y308589D01*
X337392Y309441D01*
X337512Y310354D01*
X337392Y311268D01*
X337039Y312119D01*
X336478Y312851D01*
X336636Y313315D01*
X337825D01*
X338605Y313470D01*
X339266Y313912D01*
X339266Y313912D01*
X339266Y313912D01*
X340835Y315480D01*
X350336D01*
X351466Y314351D01*
D02*
G37*
G36*
X419889Y323433D02*
X419889Y323433D01*
X417434Y320977D01*
X397570D01*
X397378Y321439D01*
X399844Y323905D01*
X419574D01*
X419889Y323433D01*
D02*
G37*
G36*
X360748Y376624D02*
X360741Y376575D01*
X360862Y375661D01*
X361214Y374810D01*
X361775Y374079D01*
X362507Y373518D01*
X362684Y373444D01*
Y370783D01*
X361500D01*
Y364846D01*
X366060D01*
X366251Y364385D01*
X362152Y360286D01*
X361704Y360507D01*
X361798Y361221D01*
X361678Y362134D01*
X361325Y362986D01*
X360764Y363717D01*
X360033Y364278D01*
X359844Y364356D01*
X359941Y364846D01*
X360941D01*
Y370783D01*
X359757D01*
Y371555D01*
X359757Y371555D01*
X359621Y372238D01*
X359234Y372817D01*
X359234Y372817D01*
X355513Y376538D01*
X355704Y377000D01*
X360418D01*
X360748Y376624D01*
D02*
G37*
G36*
X336632Y376552D02*
X336116Y375879D01*
X335763Y375028D01*
X335643Y374114D01*
X335763Y373200D01*
X336116Y372349D01*
X336677Y371618D01*
X337408Y371057D01*
X338260Y370704D01*
X339173Y370584D01*
X340087Y370704D01*
X340938Y371057D01*
X341670Y371618D01*
X342216Y372330D01*
X343799D01*
X344482Y372466D01*
X345061Y372852D01*
X346408Y374200D01*
X352804D01*
X355759Y371245D01*
X355568Y370783D01*
X355004D01*
Y364846D01*
X356594D01*
X356692Y364356D01*
X356503Y364278D01*
X355771Y363717D01*
X355210Y362986D01*
X354858Y362134D01*
X354737Y361221D01*
X354855Y360331D01*
X351510Y356986D01*
X351048Y357177D01*
Y362533D01*
X351667Y362789D01*
X352398Y363350D01*
X352959Y364081D01*
X353311Y364933D01*
X353432Y365846D01*
X353311Y366760D01*
X352959Y367612D01*
X352398Y368343D01*
X351667Y368904D01*
X350815Y369256D01*
X349902Y369377D01*
X348988Y369256D01*
X348136Y368904D01*
X347405Y368343D01*
X346844Y367612D01*
X346492Y366760D01*
X346371Y365846D01*
X346492Y364933D01*
X346844Y364081D01*
X347405Y363350D01*
X347480Y363293D01*
Y362609D01*
X347006Y362449D01*
X347001Y362455D01*
X346270Y363016D01*
X345419Y363368D01*
X345005Y363423D01*
Y359959D01*
X344505D01*
Y359458D01*
X341041D01*
X341095Y359045D01*
X341448Y358193D01*
X342009Y357462D01*
X342740Y356901D01*
X343591Y356549D01*
X344062Y356487D01*
Y351109D01*
X343621Y350873D01*
X343432Y350999D01*
X342815Y351122D01*
X342197Y350999D01*
X341674Y350649D01*
X341490Y350374D01*
X340990D01*
X340806Y350649D01*
X340283Y350999D01*
X339665Y351122D01*
X339048Y350999D01*
X338900Y350900D01*
X338151Y350900D01*
X338150Y350900D01*
X338048Y351413D01*
X338339Y351820D01*
X339119Y351922D01*
X339971Y352275D01*
X340702Y352836D01*
X341263Y353567D01*
X341615Y354419D01*
X341736Y355332D01*
X341615Y356246D01*
X341263Y357097D01*
X340702Y357828D01*
X339971Y358389D01*
X339119Y358742D01*
X338206Y358862D01*
X337292Y358742D01*
X336440Y358389D01*
X335709Y357828D01*
X335148Y357097D01*
X334796Y356246D01*
X334675Y355332D01*
X334792Y354443D01*
X334565Y354215D01*
X334178Y353636D01*
X334043Y352954D01*
X334043Y352954D01*
X334043D01*
X334043Y352954D01*
X334043D01*
Y352157D01*
X333580Y351966D01*
X332967Y352580D01*
Y354250D01*
X332831Y354933D01*
X332444Y355512D01*
X332444Y355512D01*
X330297Y357659D01*
X329718Y358046D01*
X329035Y358182D01*
X328633D01*
X328087Y358894D01*
X327356Y359455D01*
X326504Y359807D01*
X325590Y359928D01*
X324677Y359807D01*
X323826Y359455D01*
X323094Y358894D01*
X322533Y358163D01*
X322181Y357311D01*
X322060Y356398D01*
X322181Y355484D01*
X322533Y354632D01*
X323094Y353901D01*
X323826Y353340D01*
X324677Y352988D01*
X325590Y352867D01*
X326504Y352988D01*
X327356Y353340D01*
X328087Y353901D01*
X328256Y354122D01*
X328755Y354155D01*
X329398Y353511D01*
Y351841D01*
X329534Y351158D01*
Y351158D01*
X329599Y350999D01*
X329599Y350999D01*
D01*
X329076Y350649D01*
X328892Y350374D01*
X328392D01*
X328208Y350649D01*
X327684Y350999D01*
X327067Y351122D01*
X326449Y350999D01*
X325926Y350649D01*
X325576Y350125D01*
X325453Y349508D01*
Y348930D01*
X291026D01*
X290993Y349429D01*
X291859Y349543D01*
X292710Y349896D01*
X293441Y350457D01*
X294002Y351188D01*
X294355Y352039D01*
X294475Y352953D01*
X294400Y353524D01*
X306416Y365540D01*
X307256Y365193D01*
X308169Y365072D01*
X309083Y365193D01*
X309934Y365545D01*
X310665Y366106D01*
X311227Y366837D01*
X311579Y367689D01*
X311700Y368602D01*
X311579Y369516D01*
X311227Y370368D01*
X310665Y371099D01*
X309934Y371660D01*
X309083Y372012D01*
X308169Y372133D01*
X307256Y372012D01*
X306404Y371660D01*
X305673Y371099D01*
X305112Y370368D01*
X304855Y369747D01*
X301363Y366255D01*
X300902Y366447D01*
Y370783D01*
X299717D01*
Y372843D01*
X300429Y373390D01*
X300990Y374121D01*
X301343Y374972D01*
X301463Y375886D01*
X301366Y376624D01*
X301696Y377000D01*
X336411D01*
X336632Y376552D01*
D02*
G37*
G36*
X351780Y325374D02*
X352193Y325429D01*
X353045Y325781D01*
X353776Y326342D01*
X354322Y327054D01*
X358368D01*
X359051Y327190D01*
X359630Y327577D01*
X360717Y328664D01*
X361158Y328429D01*
X361083Y328051D01*
X361206Y327434D01*
X361556Y326910D01*
X361831Y326726D01*
Y326226D01*
X361556Y326043D01*
X361206Y325519D01*
X361083Y324902D01*
X361206Y324284D01*
X361556Y323761D01*
X361831Y323577D01*
Y323077D01*
X361556Y322893D01*
X361206Y322370D01*
X361083Y321752D01*
X361206Y321134D01*
X361556Y320611D01*
X361831Y320427D01*
Y319927D01*
X361556Y319743D01*
X361206Y319220D01*
X361083Y318602D01*
X361206Y317985D01*
X361556Y317461D01*
X361831Y317278D01*
Y316981D01*
X361444Y316664D01*
X361120Y316728D01*
X360933Y317009D01*
X358076Y319866D01*
X357497Y320253D01*
X356814Y320389D01*
X355432D01*
X353789Y322031D01*
X353210Y322418D01*
X352664Y322527D01*
X350221Y324970D01*
X350442Y325419D01*
X350780Y325374D01*
Y328839D01*
X351780D01*
Y325374D01*
D02*
G37*
G36*
X357945Y298804D02*
X358520Y298690D01*
X373609Y283601D01*
Y247507D01*
X373609Y247507D01*
X373609D01*
X373745Y246824D01*
X374132Y246245D01*
X392769Y227609D01*
X392549Y227164D01*
X391660Y227047D01*
X365097Y253609D01*
Y286205D01*
X364962Y286888D01*
X364575Y287467D01*
X357198Y294844D01*
Y298774D01*
X357639Y299009D01*
X357945Y298804D01*
D02*
G37*
G36*
X355535Y231050D02*
X355535Y231050D01*
X355535Y231050D01*
Y231050D01*
X355535Y231050D01*
Y231050D01*
X356196Y230608D01*
X356977Y230452D01*
X358194D01*
X358545Y229995D01*
X359276Y229434D01*
X360128Y229082D01*
X361041Y228961D01*
X361955Y229082D01*
X362402Y229267D01*
X362680Y228851D01*
X362587Y228758D01*
X362145Y228096D01*
X361989Y227316D01*
X362145Y226536D01*
X362587Y225874D01*
X362725Y225782D01*
Y220005D01*
X360354Y217634D01*
X359653D01*
Y214665D01*
Y211697D01*
X362122D01*
Y214355D01*
X363499Y215732D01*
X363961Y215541D01*
Y211598D01*
X369898D01*
Y212783D01*
X370828D01*
X371076Y212500D01*
X371196Y211586D01*
X371549Y210735D01*
X372110Y210004D01*
X372841Y209443D01*
X373693Y209090D01*
X374606Y208970D01*
X375520Y209090D01*
X376371Y209443D01*
X377102Y210004D01*
X377663Y210735D01*
X378016Y211586D01*
X378136Y212500D01*
X378581Y212719D01*
X384393Y206908D01*
X384393Y206908D01*
X384972Y206521D01*
X385654Y206385D01*
X388567D01*
Y205201D01*
D01*
Y205201D01*
X388366Y205000D01*
X370000D01*
Y201921D01*
X368406D01*
X367708Y201782D01*
X367117Y201387D01*
X366884Y201038D01*
X366384D01*
X366151Y201387D01*
X365560Y201782D01*
X364862Y201921D01*
X362500D01*
X361803Y201782D01*
X361211Y201387D01*
X360978Y201038D01*
X360478D01*
X360245Y201387D01*
X359654Y201782D01*
X358957Y201921D01*
X356594D01*
X355897Y201782D01*
X355306Y201387D01*
X355073Y201038D01*
X354573D01*
X354340Y201387D01*
X353749Y201782D01*
X353051Y201921D01*
X352381D01*
X352317Y202240D01*
X352140Y202505D01*
X351875Y202902D01*
X351875Y202902D01*
X345314Y209463D01*
X345505Y209925D01*
X348539D01*
Y217831D01*
X346626D01*
Y239306D01*
X347088Y239497D01*
X355535Y231050D01*
D02*
G37*
G36*
X361211Y192511D02*
X361803Y192115D01*
X362500Y191977D01*
X364862D01*
X365560Y192115D01*
X366151Y192511D01*
X366384Y192859D01*
X366884D01*
X367117Y192511D01*
X367708Y192115D01*
X368406Y191977D01*
X370000D01*
Y146803D01*
X368406D01*
X367708Y146664D01*
X367117Y146269D01*
X366884Y145920D01*
X366384D01*
X366151Y146269D01*
X365560Y146664D01*
X364862Y146803D01*
X362500D01*
X361803Y146664D01*
X361211Y146269D01*
X360978Y145920D01*
X360478D01*
X360245Y146269D01*
X359654Y146664D01*
X358957Y146803D01*
X356594D01*
X355897Y146664D01*
X355306Y146269D01*
X355073Y145920D01*
X354573D01*
X354340Y146269D01*
X353749Y146664D01*
X353051Y146803D01*
X350689D01*
X349992Y146664D01*
X349400Y146269D01*
X349167Y145920D01*
X348667D01*
X348434Y146269D01*
X348004Y146557D01*
Y192223D01*
X348434Y192511D01*
X348667Y192859D01*
X349167D01*
X349400Y192511D01*
X349991Y192115D01*
X350618Y191991D01*
Y189756D01*
X350161Y189406D01*
X349600Y188674D01*
X349248Y187823D01*
X349127Y186909D01*
X349248Y185996D01*
X349600Y185144D01*
X350161Y184413D01*
X350892Y183852D01*
X351744Y183500D01*
X352658Y183379D01*
X353571Y183500D01*
X354423Y183852D01*
X355154Y184413D01*
X355715Y185144D01*
X356067Y185996D01*
X356188Y186909D01*
X356067Y187823D01*
X355715Y188674D01*
X355154Y189406D01*
X354697Y189756D01*
Y192561D01*
X355175Y192706D01*
X355306Y192511D01*
X355897Y192115D01*
X356594Y191977D01*
X358957D01*
X359654Y192115D01*
X360245Y192511D01*
X360478Y192859D01*
X360978D01*
X361211Y192511D01*
D02*
G37*
G36*
X326449Y298804D02*
X327067Y298682D01*
X327684Y298804D01*
X327991Y299009D01*
X328432Y298774D01*
Y298180D01*
X321264Y291012D01*
X320374Y291129D01*
X319460Y291008D01*
X318609Y290656D01*
X317878Y290095D01*
X317317Y289364D01*
X316964Y288512D01*
X316844Y287598D01*
X316964Y286685D01*
X317317Y285833D01*
X317878Y285102D01*
X318609Y284541D01*
X319460Y284189D01*
X320374Y284068D01*
X321288Y284189D01*
X322139Y284541D01*
X322870Y285102D01*
X323431Y285833D01*
X323784Y286685D01*
X323904Y287598D01*
X323787Y288488D01*
X330770Y295472D01*
X330899Y295497D01*
X331478Y295884D01*
X331865Y296463D01*
X332001Y297146D01*
Y298774D01*
X332442Y299009D01*
X332749Y298804D01*
X333366Y298682D01*
X333984Y298804D01*
X334141Y298909D01*
X334582Y298674D01*
Y293038D01*
X334718Y292356D01*
X335104Y291777D01*
X335129Y291752D01*
X334908Y291304D01*
X334744Y291325D01*
X333830Y291205D01*
X332979Y290852D01*
X332248Y290292D01*
X331687Y289560D01*
X331334Y288709D01*
X331214Y287795D01*
X331331Y286906D01*
X327790Y283365D01*
X317254D01*
X316572Y283229D01*
X315993Y282842D01*
X315993Y282842D01*
X312945Y279795D01*
X312558Y279216D01*
X312422Y278533D01*
X312422Y278533D01*
X312422D01*
X312422Y278533D01*
X312422D01*
Y238568D01*
X306795Y232941D01*
X305906Y233058D01*
X304992Y232938D01*
X304140Y232585D01*
X303409Y232024D01*
X302848Y231293D01*
X302496Y230441D01*
X302375Y229528D01*
X302496Y228614D01*
X302848Y227763D01*
X303409Y227031D01*
X304140Y226470D01*
X304992Y226118D01*
X305906Y225997D01*
X306819Y226118D01*
X307671Y226470D01*
X308402Y227031D01*
X308963Y227763D01*
X309315Y228614D01*
X309436Y229528D01*
X309319Y230417D01*
X315468Y236567D01*
X315468Y236567D01*
X315855Y237146D01*
X315855Y237146D01*
X315855Y237146D01*
X315991Y237829D01*
X315991Y237829D01*
Y273562D01*
X316464Y273723D01*
X316590Y273559D01*
X317370Y272960D01*
Y250059D01*
X317370Y250059D01*
X317370D01*
X317526Y249279D01*
X317968Y248617D01*
X320334Y246250D01*
X320272Y245776D01*
X323693D01*
Y249197D01*
X323218Y249134D01*
X321449Y250904D01*
Y272960D01*
X322229Y273559D01*
X322862Y274384D01*
X323260Y275346D01*
X323330Y275878D01*
X319409D01*
Y276878D01*
X323330D01*
X323260Y277410D01*
X322862Y278371D01*
X322229Y279197D01*
X322065Y279323D01*
X322225Y279796D01*
X326594D01*
X326754Y279323D01*
X326590Y279197D01*
X325957Y278371D01*
X325558Y277410D01*
X325423Y276378D01*
X325558Y275346D01*
X325957Y274384D01*
X326590Y273559D01*
X327416Y272925D01*
X328378Y272527D01*
X329410Y272391D01*
X330441Y272527D01*
X331403Y272925D01*
X332229Y273559D01*
X332862Y274384D01*
X333260Y275346D01*
X333396Y276378D01*
X333260Y277410D01*
X332862Y278371D01*
X332229Y279197D01*
X331403Y279831D01*
X330441Y280229D01*
X330348Y280241D01*
X330187Y280715D01*
X333854Y284382D01*
X334744Y284265D01*
X335658Y284385D01*
X336509Y284738D01*
X337240Y285299D01*
X337801Y286030D01*
X338154Y286882D01*
X338274Y287795D01*
X338253Y287959D01*
X338701Y288180D01*
X340746Y286135D01*
X340629Y285245D01*
X340750Y284331D01*
X341102Y283480D01*
X341663Y282749D01*
X342394Y282188D01*
X343246Y281835D01*
X344160Y281715D01*
X345073Y281835D01*
X345924Y282188D01*
X346656Y282749D01*
X347217Y283480D01*
X347569Y284331D01*
X347690Y285245D01*
X347569Y286159D01*
X347217Y287010D01*
X346656Y287741D01*
X345924Y288302D01*
X345073Y288655D01*
X344230Y288766D01*
Y289266D01*
X344345Y289281D01*
X345196Y289634D01*
X345927Y290195D01*
X346488Y290926D01*
X346841Y291777D01*
X346961Y292691D01*
X346841Y293605D01*
X346488Y294456D01*
X345927Y295187D01*
X346087Y295657D01*
X347096D01*
X356779Y285974D01*
Y280602D01*
X356067Y280055D01*
X355506Y279324D01*
X355153Y278473D01*
X355033Y277559D01*
X355153Y276645D01*
X355506Y275794D01*
X356067Y275063D01*
X356798Y274502D01*
X357649Y274149D01*
X358563Y274029D01*
X359477Y274149D01*
X360328Y274502D01*
X361059Y275063D01*
X361529Y274903D01*
Y252870D01*
X361529Y252870D01*
X361529D01*
X361665Y252187D01*
X362051Y251608D01*
X389136Y224524D01*
X389019Y223634D01*
X389139Y222720D01*
X389492Y221869D01*
X390053Y221138D01*
X389894Y220668D01*
X388971D01*
X386798Y222842D01*
X386915Y223731D01*
X386795Y224645D01*
X386442Y225497D01*
X385881Y226228D01*
X385150Y226789D01*
X384298Y227141D01*
X383385Y227262D01*
X382471Y227141D01*
X381620Y226789D01*
X380889Y226228D01*
X380328Y225497D01*
X379975Y224645D01*
X379855Y223731D01*
X379975Y222818D01*
X380328Y221966D01*
X380889Y221235D01*
X381620Y220674D01*
X382471Y220321D01*
X383385Y220201D01*
X384275Y220318D01*
X386971Y217622D01*
X386971Y217622D01*
X387550Y217235D01*
X388232Y217100D01*
X388567D01*
Y211697D01*
X394504D01*
Y212881D01*
X395752D01*
Y211697D01*
X401689D01*
Y215639D01*
X402151Y215830D01*
X406189Y211793D01*
X405968Y211344D01*
X405512Y211404D01*
X404598Y211284D01*
X403747Y210931D01*
X403016Y210370D01*
X402469Y209658D01*
X401689D01*
Y211138D01*
X395752D01*
Y205201D01*
D01*
Y205201D01*
X395551Y205000D01*
X394504D01*
Y205201D01*
X394504D01*
Y207669D01*
X391535D01*
Y208169D01*
X391035D01*
Y211138D01*
X388567D01*
Y209954D01*
X386394D01*
X376300Y220047D01*
X375721Y220434D01*
X375038Y220570D01*
X366803D01*
Y227206D01*
X367342Y227746D01*
X367413Y227736D01*
Y231201D01*
Y234665D01*
X367000Y234611D01*
X366148Y234258D01*
X365417Y233697D01*
X364957Y233098D01*
X364475Y233227D01*
X364451Y233405D01*
X364099Y234257D01*
X363538Y234988D01*
X362806Y235549D01*
X361955Y235902D01*
X361041Y236022D01*
X360128Y235902D01*
X359276Y235549D01*
X358545Y234988D01*
X358263Y234621D01*
X357764Y234588D01*
X348146Y244207D01*
Y246344D01*
X350851Y249050D01*
X351293Y249712D01*
X351449Y250492D01*
X351449Y250492D01*
X351449Y250492D01*
Y250492D01*
Y272425D01*
X353362D01*
Y280331D01*
X345457D01*
Y272425D01*
X347370D01*
Y251337D01*
X345262Y249228D01*
X340240D01*
Y241323D01*
X342547D01*
Y217831D01*
X340634D01*
Y210464D01*
X337409D01*
X337248Y210938D01*
X337406Y211059D01*
X338039Y211884D01*
X338438Y212846D01*
X338574Y213878D01*
X338438Y214910D01*
X338039Y215871D01*
X337406Y216697D01*
X336580Y217331D01*
X335618Y217729D01*
X334587Y217865D01*
X333555Y217729D01*
X332593Y217331D01*
X331768Y216697D01*
X331134Y215871D01*
X330736Y214910D01*
X330600Y213878D01*
X330736Y212846D01*
X331134Y211884D01*
X331768Y211059D01*
X331925Y210938D01*
X331764Y210464D01*
X327409D01*
X327248Y210938D01*
X327406Y211059D01*
X328039Y211884D01*
X328438Y212846D01*
X328508Y213378D01*
X324587D01*
Y214378D01*
X328508D01*
X328438Y214910D01*
X328039Y215871D01*
X327406Y216697D01*
X326626Y217296D01*
Y242160D01*
X327012Y242457D01*
X327646Y243282D01*
X328044Y244244D01*
X328114Y244776D01*
X320272D01*
X320342Y244244D01*
X320740Y243282D01*
X321374Y242457D01*
X322200Y241823D01*
X322547Y241679D01*
Y217296D01*
X321767Y216697D01*
X321169Y215917D01*
X305175D01*
X297610Y223482D01*
Y239074D01*
X297455Y239854D01*
X298086Y240276D01*
X300177D01*
X301104Y240460D01*
X301890Y240985D01*
X302415Y241771D01*
X302599Y242697D01*
Y248247D01*
X302415Y249174D01*
X302102Y249642D01*
X302337Y250083D01*
X305114D01*
X305309Y249613D01*
X305870Y248882D01*
X306601Y248321D01*
X307453Y247968D01*
X308366Y247848D01*
X309280Y247968D01*
X310131Y248321D01*
X310862Y248882D01*
X311423Y249613D01*
X311776Y250464D01*
X311896Y251378D01*
X311776Y252292D01*
X311423Y253143D01*
X310862Y253874D01*
X310131Y254435D01*
X309280Y254788D01*
X308366Y254908D01*
X307453Y254788D01*
X306601Y254435D01*
X306244Y254162D01*
X296262D01*
X283770Y266653D01*
X283845Y267224D01*
X283725Y268138D01*
X283372Y268989D01*
X282811Y269721D01*
X282080Y270282D01*
X281229Y270634D01*
X280315Y270755D01*
X279401Y270634D01*
X278550Y270282D01*
X277819Y269721D01*
X277258Y268989D01*
X276905Y268138D01*
X276785Y267224D01*
X276905Y266311D01*
X277258Y265459D01*
X277819Y264728D01*
X278550Y264167D01*
X279401Y263814D01*
X280315Y263694D01*
X280886Y263769D01*
X293975Y250680D01*
X293975D01*
X293975Y250680D01*
X293975D01*
X293975Y250680D01*
Y250680D01*
X293975Y250680D01*
Y250680D01*
X294637Y250238D01*
X295312Y250104D01*
X295417Y249850D01*
X295417Y249514D01*
X295190Y249174D01*
X295006Y248247D01*
Y243176D01*
X294544Y242985D01*
X290614Y246914D01*
X289953Y247356D01*
X289172Y247512D01*
X284899D01*
Y248247D01*
X284715Y249174D01*
X284190Y249960D01*
X283404Y250485D01*
X282477Y250669D01*
X281602D01*
Y245472D01*
Y240276D01*
X282477D01*
X283404Y240460D01*
X284190Y240985D01*
X284715Y241771D01*
X284899Y242697D01*
Y243433D01*
X288328D01*
X293532Y238229D01*
Y222638D01*
X293532Y222638D01*
X293532D01*
X293687Y221857D01*
X294129Y221196D01*
X302889Y212436D01*
X303550Y211994D01*
X304331Y211839D01*
X321169D01*
X321767Y211059D01*
X321925Y210938D01*
X321764Y210464D01*
X285431D01*
X274775Y221120D01*
Y235834D01*
X275233Y236185D01*
X275794Y236916D01*
X276146Y237767D01*
X276266Y238681D01*
X276146Y239595D01*
X275794Y240446D01*
X275233Y241177D01*
X274501Y241738D01*
X273650Y242091D01*
X272736Y242211D01*
X272242Y242146D01*
X272021Y242595D01*
X272860Y243433D01*
X277306D01*
Y242697D01*
X277490Y241771D01*
X278015Y240985D01*
X278801Y240460D01*
X279727Y240276D01*
X280602D01*
Y245472D01*
Y250669D01*
X279727D01*
X278801Y250485D01*
X278015Y249960D01*
X277490Y249174D01*
X277306Y248247D01*
Y247512D01*
X272015D01*
X271235Y247356D01*
X270573Y246914D01*
X266644Y242985D01*
X266182Y243176D01*
Y248247D01*
X265997Y249174D01*
X265472Y249960D01*
X264687Y250485D01*
X264169Y250588D01*
Y276157D01*
X264687Y276260D01*
X265472Y276785D01*
X265997Y277571D01*
X266182Y278497D01*
Y284047D01*
X265997Y284974D01*
X265472Y285760D01*
X265444Y286050D01*
X266779Y287386D01*
X270193D01*
Y291110D01*
X270609Y291388D01*
X270752Y291328D01*
Y287386D01*
X271072D01*
X271238Y286985D01*
X271262Y286912D01*
X270535Y286354D01*
X269974Y285623D01*
X269622Y284772D01*
X269501Y283858D01*
X269622Y282945D01*
X269974Y282093D01*
X270535Y281362D01*
X271266Y280801D01*
X272118Y280448D01*
X273031Y280328D01*
X273945Y280448D01*
X274797Y280801D01*
X275528Y281362D01*
X276089Y282093D01*
X276441Y282945D01*
X276562Y283858D01*
X276441Y284772D01*
X276089Y285623D01*
X275760Y286052D01*
Y287386D01*
X276689D01*
Y288315D01*
X278846D01*
X279627Y288470D01*
X280288Y288912D01*
X280288Y288912D01*
X280288Y288912D01*
X287908Y296532D01*
X288370Y296341D01*
Y292406D01*
X289554D01*
Y289287D01*
X287779D01*
Y283350D01*
D01*
Y283350D01*
X287741Y283312D01*
X284899D01*
Y284047D01*
X284715Y284974D01*
X284190Y285760D01*
X283404Y286285D01*
X282477Y286469D01*
X281602D01*
Y281272D01*
Y276076D01*
X282477D01*
X283404Y276260D01*
X284190Y276785D01*
X284715Y277571D01*
X284899Y278497D01*
Y279233D01*
X287779D01*
Y277051D01*
X290150D01*
Y280020D01*
X290650D01*
Y280520D01*
X293520D01*
Y282454D01*
X294031D01*
X295006Y281479D01*
Y278497D01*
X295190Y277571D01*
X295715Y276785D01*
X296501Y276260D01*
X297427Y276076D01*
X300177D01*
X301104Y276260D01*
X301890Y276785D01*
X302415Y277571D01*
X302599Y278497D01*
Y284047D01*
X302415Y284974D01*
X302033Y285544D01*
X302269Y285985D01*
X312179D01*
X312862Y286121D01*
X313441Y286508D01*
X326023Y299090D01*
X326449Y298804D01*
D02*
G37*
G36*
X315153Y312952D02*
X307090Y304889D01*
X306201Y305007D01*
X305287Y304886D01*
X304436Y304534D01*
X303705Y303973D01*
X303144Y303241D01*
X302791Y302390D01*
X302671Y301476D01*
X302791Y300563D01*
X303144Y299711D01*
X303705Y298980D01*
X304436Y298419D01*
X305287Y298066D01*
X306201Y297946D01*
X306308Y297960D01*
X306572Y297536D01*
X306422Y297312D01*
X306287Y296629D01*
Y295562D01*
X305575Y295016D01*
X305014Y294285D01*
X304661Y293433D01*
X304541Y292520D01*
X304661Y291606D01*
X305014Y290755D01*
X305575Y290023D01*
X305415Y289554D01*
X299059D01*
X296669Y291944D01*
X296861Y292406D01*
X300803D01*
Y298342D01*
X298727D01*
X297270Y299799D01*
X305230Y307760D01*
X308185D01*
Y308689D01*
X308760D01*
X309540Y308844D01*
X310202Y309286D01*
X310202Y309286D01*
X310202Y309286D01*
X314329Y313414D01*
X314961D01*
X315153Y312952D01*
D02*
G37*
G36*
X331486Y312851D02*
X330925Y312119D01*
X330572Y311268D01*
X330452Y310354D01*
X330572Y309441D01*
X330925Y308589D01*
X331486Y307858D01*
X331582Y307785D01*
Y306541D01*
X331141Y306306D01*
X330834Y306511D01*
X330217Y306633D01*
X329599Y306511D01*
X329076Y306161D01*
X328892Y305886D01*
X328392D01*
X328208Y306161D01*
X327684Y306511D01*
X327067Y306633D01*
X326449Y306511D01*
X325926Y306161D01*
X325576Y305637D01*
X325453Y305020D01*
Y303567D01*
X311440Y289554D01*
X310726D01*
X310567Y290023D01*
X311128Y290755D01*
X311481Y291606D01*
X311601Y292520D01*
X311481Y293433D01*
X311128Y294285D01*
X310567Y295016D01*
X309971Y295474D01*
X309938Y295973D01*
X321505Y307540D01*
X322933D01*
X323551Y307663D01*
X324074Y308013D01*
X324424Y308536D01*
X324547Y309154D01*
X324424Y309771D01*
X324074Y310295D01*
X323799Y310478D01*
Y310978D01*
X324074Y311162D01*
X324424Y311686D01*
X324547Y312303D01*
X324424Y312921D01*
X324635Y313315D01*
X331328D01*
X331486Y312851D01*
D02*
G37*
G36*
X258589Y282546D02*
Y278497D01*
X258773Y277571D01*
X259298Y276785D01*
X260083Y276260D01*
X260601Y276157D01*
Y250588D01*
X260083Y250485D01*
X259298Y249960D01*
X258773Y249174D01*
X258589Y248247D01*
Y243176D01*
X258127Y242985D01*
X254197Y246914D01*
X253535Y247356D01*
X252755Y247512D01*
X248482D01*
Y248247D01*
X248297Y249174D01*
X247772Y249960D01*
X246987Y250485D01*
X246724Y250537D01*
Y276208D01*
X246987Y276260D01*
X247772Y276785D01*
X248297Y277571D01*
X248482Y278497D01*
Y279233D01*
X249295D01*
Y277445D01*
X251665D01*
Y280413D01*
X252165D01*
Y280913D01*
X255035D01*
Y283382D01*
D01*
Y283382D01*
X255035Y283382D01*
Y283744D01*
X255035D01*
Y284928D01*
X256206D01*
X258589Y282546D01*
D02*
G37*
G36*
X294500Y376624D02*
X294403Y375886D01*
X294523Y374972D01*
X294876Y374121D01*
X295437Y373390D01*
X296149Y372843D01*
Y370783D01*
X294965D01*
Y364846D01*
X299302D01*
X299493Y364385D01*
X291516Y356408D01*
X290945Y356483D01*
X290031Y356363D01*
X289180Y356010D01*
X288449Y355449D01*
X287888Y354718D01*
X287535Y353866D01*
X287415Y352953D01*
X287535Y352039D01*
X287888Y351188D01*
X288449Y350457D01*
X289180Y349896D01*
X290031Y349543D01*
X290897Y349429D01*
X290864Y348930D01*
X271132D01*
X267929Y352133D01*
Y355547D01*
X261992D01*
Y349610D01*
X265406D01*
X269131Y345884D01*
X269710Y345497D01*
X270393Y345361D01*
X270393Y345361D01*
X325453D01*
Y344783D01*
X325576Y344166D01*
X325926Y343642D01*
X326449Y343293D01*
X327067Y343170D01*
X327684Y343293D01*
X327991Y343498D01*
X328432Y343262D01*
Y342451D01*
X328432Y342451D01*
X328432D01*
X328568Y341768D01*
X328955Y341189D01*
X342060Y328084D01*
X341839Y327635D01*
X341651Y327660D01*
X340737Y327540D01*
X339885Y327187D01*
X339154Y326626D01*
X338593Y325895D01*
X338241Y325044D01*
X338186Y324630D01*
X341651D01*
Y323630D01*
X338186D01*
X338238Y323240D01*
X335533Y320536D01*
X324555D01*
X324319Y320977D01*
X324424Y321134D01*
X324547Y321752D01*
X324424Y322370D01*
X324074Y322893D01*
X323799Y323077D01*
Y323577D01*
X324074Y323761D01*
X324424Y324284D01*
X324547Y324902D01*
X324424Y325519D01*
X324219Y325826D01*
X324455Y326267D01*
X325504D01*
X325543Y325972D01*
X325896Y325121D01*
X326457Y324390D01*
X327188Y323829D01*
X328039Y323476D01*
X328953Y323356D01*
X329867Y323476D01*
X330718Y323829D01*
X331449Y324390D01*
X332010Y325121D01*
X332363Y325972D01*
X332483Y326886D01*
X332363Y327800D01*
X332010Y328651D01*
X331449Y329382D01*
X330718Y329943D01*
X329897Y330283D01*
X329962Y330779D01*
X330441Y330842D01*
X331293Y331195D01*
X332024Y331756D01*
X332585Y332487D01*
X332938Y333338D01*
X333058Y334252D01*
X332938Y335166D01*
X332585Y336017D01*
X332024Y336748D01*
X331293Y337309D01*
X330441Y337662D01*
X329528Y337782D01*
X328614Y337662D01*
X327763Y337309D01*
X327031Y336748D01*
X326470Y336017D01*
X326118Y335166D01*
X325997Y334252D01*
X326115Y333362D01*
X325737Y332985D01*
X324455D01*
X324219Y333426D01*
X324424Y333733D01*
X324547Y334350D01*
X324424Y334968D01*
X324074Y335491D01*
X323799Y335675D01*
Y336175D01*
X324074Y336359D01*
X324424Y336882D01*
X324547Y337500D01*
X324424Y338118D01*
X324074Y338641D01*
X323799Y338825D01*
Y339325D01*
X324074Y339509D01*
X324424Y340032D01*
X324547Y340650D01*
X324424Y341267D01*
X324074Y341791D01*
X323551Y342141D01*
X322933Y342263D01*
X321306D01*
X321254Y342298D01*
X320571Y342434D01*
X267929D01*
Y345724D01*
X261992D01*
Y339787D01*
X265406D01*
X265805Y339388D01*
X265805Y339388D01*
X266384Y339001D01*
X267066Y338865D01*
X267717D01*
X267908Y338403D01*
X265406Y335901D01*
X261992D01*
Y329964D01*
X267929D01*
Y333378D01*
X270267Y335716D01*
X274390D01*
X274581Y335254D01*
X265406Y326079D01*
X261992D01*
Y320142D01*
X267929D01*
Y323555D01*
X276940Y332566D01*
X316687D01*
X316923Y332125D01*
X316718Y331818D01*
X316595Y331201D01*
X316718Y330583D01*
X317068Y330060D01*
X317343Y329876D01*
Y329376D01*
X317068Y329192D01*
X316718Y328669D01*
X316595Y328051D01*
X316718Y327434D01*
X316923Y327127D01*
X316687Y326686D01*
X276575D01*
X276575Y326686D01*
X275892Y326550D01*
X275313Y326163D01*
X265406Y316256D01*
X261992D01*
Y310319D01*
X267929D01*
Y313733D01*
X277314Y323117D01*
X281437D01*
X281628Y322655D01*
X265406Y306433D01*
X261992D01*
Y301035D01*
X261433D01*
Y306433D01*
X255496D01*
Y305180D01*
X248539D01*
Y306433D01*
X242602D01*
Y302498D01*
X242459Y302438D01*
X242043Y302716D01*
Y302965D01*
X236106D01*
Y300496D01*
X237036D01*
Y286883D01*
X237036Y286883D01*
X237036D01*
X237191Y286102D01*
X237633Y285441D01*
X240889Y282185D01*
Y281772D01*
X244185D01*
Y286469D01*
X243310D01*
X242528Y286313D01*
X241114Y287727D01*
Y297031D01*
X241555Y297267D01*
X241787Y297112D01*
X242567Y296957D01*
X267965D01*
X268745Y297112D01*
X269407Y297554D01*
X286841Y314988D01*
X302445D01*
Y314059D01*
X302445Y314059D01*
X302445Y313697D01*
X302445D01*
Y310742D01*
X293584Y301882D01*
X288334D01*
X287554Y301727D01*
X286893Y301285D01*
X278002Y292393D01*
X276689D01*
Y293323D01*
X272747D01*
X272555Y293785D01*
X285057Y306287D01*
X287902D01*
X288449Y305575D01*
X289180Y305014D01*
X290031Y304661D01*
X290945Y304541D01*
X291859Y304661D01*
X292710Y305014D01*
X293441Y305575D01*
X294002Y306306D01*
X294355Y307157D01*
X294475Y308071D01*
X294355Y308984D01*
X294002Y309836D01*
X293441Y310567D01*
X292710Y311128D01*
X291859Y311481D01*
X290945Y311601D01*
X290031Y311481D01*
X289180Y311128D01*
X288449Y310567D01*
X287902Y309855D01*
X284318D01*
X283635Y309719D01*
X283056Y309332D01*
X267047Y293323D01*
X264256D01*
Y289909D01*
X262844Y288497D01*
X255035D01*
Y289681D01*
X249295D01*
Y283744D01*
X249295Y283744D01*
X249295Y283382D01*
D01*
X249295Y283312D01*
X248482D01*
Y284047D01*
X248297Y284974D01*
X247772Y285760D01*
X246987Y286285D01*
X246060Y286469D01*
X245185D01*
Y281272D01*
X244685D01*
Y280772D01*
X240889D01*
Y278497D01*
X241073Y277571D01*
X241598Y276785D01*
X242383Y276260D01*
X242646Y276208D01*
Y250537D01*
X242383Y250485D01*
X241598Y249960D01*
X241073Y249174D01*
X240889Y248247D01*
Y245972D01*
X244685D01*
Y245472D01*
X245185D01*
Y240276D01*
X246060D01*
X246987Y240460D01*
X247772Y240985D01*
X248297Y241771D01*
X248482Y242697D01*
Y243433D01*
X251910D01*
X257963Y237381D01*
X258625Y236939D01*
X259405Y236783D01*
X263326D01*
Y233355D01*
X263326Y233355D01*
X263326D01*
X263481Y232575D01*
X263923Y231913D01*
X267197Y228640D01*
Y218826D01*
X267197Y218826D01*
X267197D01*
X267352Y218045D01*
X267794Y217384D01*
X281695Y203483D01*
X282357Y203041D01*
X283137Y202886D01*
X292951D01*
X300816Y195021D01*
X300624Y194559D01*
X297063D01*
Y195390D01*
X294595D01*
Y192520D01*
Y189650D01*
X297063D01*
Y190480D01*
X305356D01*
X314059Y181778D01*
Y180618D01*
X318102D01*
Y185449D01*
X316156D01*
X307643Y193962D01*
X295680Y205924D01*
X295872Y206386D01*
X342623D01*
X346626Y202383D01*
X346465Y201992D01*
Y196949D01*
X345465D01*
Y201921D01*
X344783D01*
X344086Y201782D01*
X343495Y201387D01*
X343100Y200796D01*
X342961Y200098D01*
Y198733D01*
X335370D01*
X335370Y198733D01*
X334687Y198597D01*
X334398Y198404D01*
X334108Y198211D01*
X334108Y198211D01*
X321346Y185449D01*
X319102D01*
Y180618D01*
X323146D01*
Y182201D01*
X331672Y190728D01*
X332134Y190537D01*
Y188878D01*
X332273Y188181D01*
X332668Y187589D01*
X333017Y187356D01*
Y186856D01*
X332668Y186623D01*
X332273Y186032D01*
X332134Y185335D01*
Y182973D01*
X332273Y182275D01*
X332668Y181684D01*
X333017Y181451D01*
Y180951D01*
X332668Y180718D01*
X332273Y180127D01*
X332134Y179429D01*
Y177067D01*
X332273Y176370D01*
X332668Y175778D01*
X333017Y175545D01*
Y175045D01*
X332668Y174812D01*
X332273Y174221D01*
X332134Y173524D01*
Y171161D01*
X332273Y170464D01*
X332668Y169873D01*
X333017Y169640D01*
Y169140D01*
X332668Y168907D01*
X332273Y168315D01*
X332134Y167618D01*
Y165256D01*
X332273Y164558D01*
X332668Y163967D01*
X333017Y163734D01*
Y163234D01*
X332668Y163001D01*
X332273Y162410D01*
X332134Y161713D01*
Y159350D01*
X332273Y158653D01*
X332668Y158062D01*
X333017Y157829D01*
Y157329D01*
X332668Y157096D01*
X332273Y156504D01*
X332134Y155807D01*
Y153445D01*
X332273Y152747D01*
X332668Y152156D01*
X333017Y151923D01*
Y151423D01*
X332668Y151190D01*
X332273Y150599D01*
X332134Y149902D01*
Y149221D01*
X342078D01*
Y149902D01*
X341940Y150599D01*
X341545Y151190D01*
X341196Y151423D01*
Y151923D01*
X341545Y152156D01*
X341940Y152747D01*
X342078Y153445D01*
Y155807D01*
X341940Y156504D01*
X341545Y157096D01*
X341196Y157329D01*
Y157829D01*
X341545Y158062D01*
X341940Y158653D01*
X342078Y159350D01*
Y161713D01*
X341940Y162410D01*
X341545Y163001D01*
X341196Y163234D01*
Y163734D01*
X341545Y163967D01*
X341940Y164558D01*
X342078Y165256D01*
Y167618D01*
X341940Y168315D01*
X341545Y168907D01*
X341196Y169140D01*
Y169640D01*
X341545Y169873D01*
X341940Y170464D01*
X342078Y171161D01*
Y173524D01*
X341940Y174221D01*
X341545Y174812D01*
X341196Y175045D01*
Y175545D01*
X341545Y175778D01*
X341940Y176370D01*
X342078Y177067D01*
Y179429D01*
X341940Y180127D01*
X341545Y180718D01*
X341196Y180951D01*
Y181451D01*
X341545Y181684D01*
X341940Y182275D01*
X342078Y182973D01*
Y185335D01*
X341940Y186032D01*
X341545Y186623D01*
X341196Y186856D01*
Y187356D01*
X341545Y187589D01*
X341940Y188181D01*
X342078Y188878D01*
Y191240D01*
X341940Y191938D01*
X341545Y192529D01*
X340953Y192924D01*
X340256Y193063D01*
X334660D01*
X334469Y193525D01*
X336109Y195165D01*
X342961D01*
Y193799D01*
X343100Y193102D01*
X343495Y192511D01*
X343925Y192223D01*
Y146557D01*
X343495Y146269D01*
X343292Y145965D01*
X342794Y145916D01*
X341911Y146799D01*
X341940Y146842D01*
X342078Y147539D01*
Y148221D01*
X337606D01*
Y145337D01*
X342554Y140389D01*
X342961Y140117D01*
Y138681D01*
X343100Y137984D01*
X343495Y137392D01*
X344086Y136997D01*
X344783Y136859D01*
X345465D01*
Y141831D01*
X346465D01*
Y136859D01*
X347146D01*
X347843Y136997D01*
X348434Y137392D01*
X348667Y137741D01*
X349167D01*
X349400Y137392D01*
X349992Y136997D01*
X350689Y136859D01*
X353051D01*
X353749Y136997D01*
X354340Y137392D01*
X354573Y137741D01*
X355073D01*
X355306Y137392D01*
X355897Y136997D01*
X356594Y136859D01*
X358957D01*
X359654Y136997D01*
X360245Y137392D01*
X360478Y137741D01*
X360978D01*
X361211Y137392D01*
X361803Y136997D01*
X362500Y136859D01*
X364862D01*
X365560Y136997D01*
X366151Y137392D01*
X366384Y137741D01*
X366884D01*
X367117Y137392D01*
X367708Y136997D01*
X368406Y136859D01*
X370000D01*
Y132000D01*
X235000D01*
Y377000D01*
X244362D01*
Y375691D01*
X237633Y368962D01*
X237191Y368300D01*
X237036Y367520D01*
Y355547D01*
X236106D01*
Y353078D01*
X242043D01*
Y355547D01*
X241114D01*
Y366675D01*
X245938Y371499D01*
X246387Y371278D01*
X246371Y371161D01*
X246492Y370248D01*
X246844Y369396D01*
X247405Y368665D01*
X248136Y368104D01*
X248988Y367752D01*
X249902Y367631D01*
X250815Y367752D01*
X251667Y368104D01*
X252398Y368665D01*
X252959Y369396D01*
X253311Y370248D01*
X253432Y371161D01*
X253311Y372075D01*
X252959Y372926D01*
X252398Y373658D01*
X251941Y374008D01*
Y377000D01*
X294170D01*
X294500Y376624D01*
D02*
G37*
G36*
X446000Y205000D02*
X443913D01*
Y205004D01*
X443913D01*
Y210941D01*
D01*
Y210941D01*
X443913Y210941D01*
Y211303D01*
X443913D01*
Y213772D01*
X441043D01*
Y214772D01*
X443913D01*
Y217240D01*
X443083D01*
Y219427D01*
X443223Y219445D01*
X443898Y219725D01*
X444477Y220169D01*
X444921Y220748D01*
X445200Y221422D01*
X445296Y222146D01*
Y223417D01*
X440531D01*
Y224417D01*
X445296D01*
Y225689D01*
X445200Y226413D01*
X444921Y227087D01*
X444477Y227666D01*
X443898Y228110D01*
X443223Y228389D01*
X442571Y228475D01*
Y229408D01*
X443170Y229487D01*
X443869Y229777D01*
X444468Y230237D01*
X444928Y230836D01*
X445218Y231534D01*
X445316Y232283D01*
Y233653D01*
X435786D01*
Y232283D01*
X435885Y231534D01*
X436174Y230836D01*
X436634Y230237D01*
X437234Y229777D01*
X437932Y229487D01*
X438492Y229414D01*
Y228475D01*
X437839Y228389D01*
X437165Y228110D01*
X436586Y227666D01*
X436142Y227087D01*
X435863Y226413D01*
X435803Y225957D01*
X434684D01*
Y226173D01*
X431012D01*
Y221517D01*
X432087D01*
X432759Y221606D01*
X433385Y221865D01*
X433402Y221878D01*
X435803D01*
X435863Y221422D01*
X436142Y220748D01*
X436586Y220169D01*
X437165Y219725D01*
X437839Y219445D01*
X438563Y219350D01*
X439004D01*
Y217240D01*
X438173D01*
Y216311D01*
X430364D01*
Y217634D01*
X427895D01*
Y214665D01*
Y211697D01*
X430364D01*
Y212232D01*
X433829D01*
X433861Y211734D01*
X433437Y211678D01*
X432585Y211325D01*
X431854Y210764D01*
X431293Y210033D01*
X430940Y209181D01*
X430862Y208589D01*
X430364Y208621D01*
Y211138D01*
X424427D01*
Y209855D01*
X423146D01*
Y211039D01*
X417209D01*
Y210715D01*
X416747Y210524D01*
X410349Y216922D01*
X410570Y217370D01*
X410748Y217347D01*
X411662Y217467D01*
X412513Y217820D01*
X413245Y218381D01*
X413254Y218393D01*
X413828D01*
X417209Y215012D01*
Y211598D01*
X423146D01*
Y217535D01*
X419732D01*
X415829Y221439D01*
X415250Y221826D01*
X414567Y221961D01*
X414087D01*
X413806Y222642D01*
X413245Y223373D01*
X412513Y223934D01*
X411662Y224287D01*
X410748Y224407D01*
X409835Y224287D01*
X408983Y223934D01*
X408252Y223373D01*
X407691Y222642D01*
X407338Y221791D01*
X407218Y220877D01*
X407242Y220699D01*
X406793Y220478D01*
X399107Y228164D01*
X399298Y228626D01*
X401394D01*
Y234563D01*
X397677D01*
X397399Y234979D01*
X397458Y235122D01*
X401394D01*
Y237428D01*
X404925D01*
X405012Y237219D01*
X405645Y236393D01*
X406471Y235760D01*
X407433Y235362D01*
X408465Y235226D01*
X409496Y235362D01*
X410458Y235760D01*
X411284Y236393D01*
X411917Y237219D01*
X412316Y238181D01*
X412451Y239213D01*
X412316Y240245D01*
X411917Y241206D01*
X411284Y242032D01*
X410458Y242665D01*
X409496Y243064D01*
X408465Y243199D01*
X407433Y243064D01*
X406471Y242665D01*
X405645Y242032D01*
X405012Y241206D01*
X404925Y240997D01*
X401394D01*
Y241059D01*
X395457D01*
Y240758D01*
X394995Y240566D01*
X394651Y240910D01*
X394031Y241325D01*
X393540Y241965D01*
X392808Y242526D01*
X391957Y242878D01*
X391043Y242999D01*
X390130Y242878D01*
X389278Y242526D01*
X388547Y241965D01*
X387986Y241234D01*
X387633Y240382D01*
X387513Y239469D01*
X387633Y238555D01*
X387683Y238434D01*
X387268Y238156D01*
X377178Y248246D01*
Y283622D01*
X377640Y283813D01*
X387124Y274329D01*
X387124Y274329D01*
X387414Y274135D01*
X387703Y273942D01*
X388386Y273806D01*
X388386Y273806D01*
X396924D01*
X397607Y273942D01*
X398186Y274329D01*
X402521Y278664D01*
X402966Y278445D01*
X403086Y277531D01*
X403439Y276680D01*
X404000Y275949D01*
X404731Y275388D01*
X405582Y275035D01*
X406496Y274915D01*
X407410Y275035D01*
X408261Y275388D01*
X408992Y275949D01*
X409010Y275972D01*
X410348D01*
X410508Y275498D01*
X409905Y275036D01*
X409344Y274305D01*
X408992Y273453D01*
X408871Y272539D01*
X408992Y271626D01*
X409344Y270774D01*
X409905Y270043D01*
X410637Y269482D01*
X411488Y269129D01*
X412402Y269009D01*
X413315Y269129D01*
X414167Y269482D01*
X414898Y270043D01*
X415444Y270755D01*
X424300D01*
X427279Y267776D01*
X427192Y267567D01*
X427057Y266535D01*
X427192Y265504D01*
X427591Y264542D01*
X428224Y263716D01*
X429050Y263083D01*
X430011Y262684D01*
X431043Y262549D01*
X432075Y262684D01*
X433037Y263083D01*
X433862Y263716D01*
X434496Y264542D01*
X434583Y264751D01*
X437091D01*
Y262583D01*
X444996D01*
Y270488D01*
X437091D01*
Y268320D01*
X434583D01*
X434496Y268529D01*
X433862Y269355D01*
X433037Y269988D01*
X432075Y270386D01*
X431043Y270522D01*
X430011Y270386D01*
X429802Y270300D01*
X426301Y273801D01*
X425722Y274188D01*
X425039Y274324D01*
X415444D01*
X414898Y275036D01*
X414295Y275498D01*
X414456Y275972D01*
X427131D01*
X427192Y275503D01*
X427591Y274542D01*
X428224Y273716D01*
X429050Y273083D01*
X430011Y272684D01*
X431043Y272549D01*
X432075Y272684D01*
X433037Y273083D01*
X433862Y273716D01*
X434496Y274542D01*
X434583Y274751D01*
X437504D01*
X437591Y274542D01*
X438224Y273716D01*
X439050Y273083D01*
X440011Y272684D01*
X441043Y272549D01*
X442075Y272684D01*
X443037Y273083D01*
X443862Y273716D01*
X444496Y274542D01*
X444894Y275503D01*
X445030Y276535D01*
X444894Y277567D01*
X444496Y278529D01*
X443862Y279355D01*
X443037Y279988D01*
X442075Y280386D01*
X441043Y280522D01*
X440011Y280386D01*
X439050Y279988D01*
X438224Y279355D01*
X437591Y278529D01*
X437504Y278320D01*
X434583D01*
X434496Y278529D01*
X433862Y279355D01*
X433037Y279988D01*
X432075Y280386D01*
X431043Y280522D01*
X430011Y280386D01*
X429050Y279988D01*
X428466Y279540D01*
X427225D01*
X427033Y280002D01*
X429802Y282771D01*
X430011Y282684D01*
X431043Y282549D01*
X432075Y282684D01*
X433037Y283083D01*
X433862Y283716D01*
X434496Y284542D01*
X434583Y284751D01*
X437504D01*
X437591Y284542D01*
X438224Y283716D01*
X439050Y283083D01*
X440011Y282684D01*
X441043Y282549D01*
X442075Y282684D01*
X443037Y283083D01*
X443862Y283716D01*
X444496Y284542D01*
X444894Y285504D01*
X445030Y286535D01*
X444894Y287567D01*
X444496Y288529D01*
X443862Y289355D01*
X443037Y289988D01*
X442075Y290386D01*
X441043Y290522D01*
X440011Y290386D01*
X439050Y289988D01*
X438224Y289355D01*
X437591Y288529D01*
X437504Y288320D01*
X434583D01*
X434496Y288529D01*
X433862Y289355D01*
X433037Y289988D01*
X432075Y290386D01*
X431043Y290522D01*
X430011Y290386D01*
X429050Y289988D01*
X428224Y289355D01*
X427591Y288529D01*
X427192Y287567D01*
X427057Y286535D01*
X427192Y285504D01*
X427279Y285294D01*
X424525Y282540D01*
X411642D01*
X409725Y284457D01*
X409146Y284843D01*
X408464Y284979D01*
X404529D01*
X404529Y284979D01*
X403846Y284843D01*
X403556Y284650D01*
X403267Y284457D01*
X403267Y284456D01*
X396185Y277375D01*
X389125D01*
X362680Y303820D01*
Y305986D01*
X362680Y305986D01*
X362544Y306669D01*
X362351Y306958D01*
X362212Y307165D01*
X362489Y307579D01*
X362491Y307581D01*
X362697Y307540D01*
X364149D01*
X387012Y284678D01*
X387012Y284678D01*
X387591Y284291D01*
X388274Y284155D01*
X395402D01*
X395948Y283443D01*
X396679Y282882D01*
X397531Y282529D01*
X398445Y282409D01*
X399358Y282529D01*
X400210Y282882D01*
X400941Y283443D01*
X401502Y284174D01*
X401855Y285026D01*
X401975Y285939D01*
X401855Y286853D01*
X401502Y287704D01*
X400941Y288435D01*
X400210Y288996D01*
X399358Y289349D01*
X398445Y289469D01*
X397531Y289349D01*
X396679Y288996D01*
X395948Y288435D01*
X395402Y287723D01*
X389013D01*
X368736Y308000D01*
X368904Y308471D01*
X369364Y308516D01*
X382606Y295274D01*
X382606Y295274D01*
X382953Y295042D01*
X383185Y294887D01*
X383868Y294751D01*
X427504D01*
X427591Y294542D01*
X428224Y293716D01*
X429050Y293083D01*
X430011Y292684D01*
X431043Y292549D01*
X432075Y292684D01*
X433037Y293083D01*
X433862Y293716D01*
X434496Y294542D01*
X434583Y294751D01*
X437504D01*
X437591Y294542D01*
X438224Y293716D01*
X439050Y293083D01*
X440011Y292684D01*
X441043Y292549D01*
X442075Y292684D01*
X443037Y293083D01*
X443862Y293716D01*
X444496Y294542D01*
X444894Y295503D01*
X445030Y296535D01*
X444894Y297567D01*
X444496Y298529D01*
X443862Y299355D01*
X443037Y299988D01*
X442075Y300386D01*
X441043Y300522D01*
X440011Y300386D01*
X439050Y299988D01*
X438224Y299355D01*
X437591Y298529D01*
X437504Y298320D01*
X434583D01*
X434496Y298529D01*
X433862Y299355D01*
X433037Y299988D01*
X432075Y300386D01*
X431043Y300522D01*
X430011Y300386D01*
X429050Y299988D01*
X428224Y299355D01*
X427591Y298529D01*
X427504Y298320D01*
X384607D01*
X378702Y304224D01*
X378893Y304686D01*
X427531D01*
X427591Y304542D01*
X428224Y303716D01*
X429050Y303083D01*
X430011Y302684D01*
X431043Y302549D01*
X432075Y302684D01*
X433037Y303083D01*
X433862Y303716D01*
X434496Y304542D01*
X434583Y304751D01*
X437504D01*
X437591Y304542D01*
X438224Y303716D01*
X439050Y303083D01*
X440011Y302684D01*
X441043Y302549D01*
X442075Y302684D01*
X443037Y303083D01*
X443862Y303716D01*
X444496Y304542D01*
X444894Y305504D01*
X445030Y306535D01*
X444894Y307567D01*
X444496Y308529D01*
X443862Y309355D01*
X443037Y309988D01*
X442075Y310386D01*
X441043Y310522D01*
X440011Y310386D01*
X439050Y309988D01*
X438224Y309355D01*
X437591Y308529D01*
X437504Y308320D01*
X434583D01*
X434496Y308529D01*
X433862Y309355D01*
X433037Y309988D01*
X432075Y310386D01*
X431043Y310522D01*
X430011Y310386D01*
X429050Y309988D01*
X428224Y309355D01*
X427591Y308529D01*
X427477Y308255D01*
X421455D01*
X421295Y308724D01*
X421856Y309455D01*
X422209Y310307D01*
X422329Y311221D01*
X422209Y312134D01*
X421856Y312986D01*
X421295Y313717D01*
X420564Y314278D01*
X420531Y314408D01*
X420949Y314683D01*
X421365Y314364D01*
X422216Y314011D01*
X423130Y313891D01*
X424044Y314011D01*
X424895Y314364D01*
X425626Y314925D01*
X426187Y315656D01*
X426540Y316508D01*
X426660Y317421D01*
X426614Y317772D01*
X426653Y317791D01*
X427185Y317570D01*
X427192Y317565D01*
X427057Y316535D01*
X427192Y315504D01*
X427591Y314542D01*
X428224Y313716D01*
X429050Y313083D01*
X430011Y312684D01*
X431043Y312549D01*
X432075Y312684D01*
X433037Y313083D01*
X433862Y313716D01*
X434496Y314542D01*
X434583Y314751D01*
X437504D01*
X437591Y314542D01*
X438224Y313716D01*
X439050Y313083D01*
X440011Y312684D01*
X441043Y312549D01*
X442075Y312684D01*
X443037Y313083D01*
X443862Y313716D01*
X444496Y314542D01*
X444894Y315504D01*
X445030Y316535D01*
X444894Y317567D01*
X444496Y318529D01*
X443862Y319355D01*
X443037Y319988D01*
X442075Y320386D01*
X441043Y320522D01*
X440011Y320386D01*
X439050Y319988D01*
X438224Y319355D01*
X437591Y318529D01*
X437504Y318320D01*
X434583D01*
X434496Y318529D01*
X433862Y319355D01*
X433037Y319988D01*
X432075Y320386D01*
X431043Y320522D01*
X430011Y320386D01*
X429802Y320300D01*
X426669Y323433D01*
X426984Y323905D01*
X428080D01*
X428224Y323716D01*
X429050Y323083D01*
X430011Y322684D01*
X431043Y322549D01*
X432075Y322684D01*
X433037Y323083D01*
X433862Y323716D01*
X434496Y324542D01*
X434583Y324751D01*
X437504D01*
X437591Y324542D01*
X438224Y323716D01*
X439050Y323083D01*
X440011Y322684D01*
X441043Y322549D01*
X442075Y322684D01*
X443037Y323083D01*
X443862Y323716D01*
X444496Y324542D01*
X444894Y325503D01*
X445030Y326535D01*
X444894Y327567D01*
X444496Y328529D01*
X443862Y329355D01*
X443037Y329988D01*
X442075Y330386D01*
X441043Y330522D01*
X440011Y330386D01*
X439050Y329988D01*
X438224Y329355D01*
X437591Y328529D01*
X437504Y328320D01*
X434583D01*
X434496Y328529D01*
X433862Y329355D01*
X433037Y329988D01*
X432075Y330386D01*
X431043Y330522D01*
X430011Y330386D01*
X429050Y329988D01*
X428224Y329355D01*
X427591Y328529D01*
X427192Y327567D01*
X427180Y327473D01*
X399105D01*
X398422Y327337D01*
X397843Y326951D01*
X395216Y324324D01*
X381665D01*
X379101Y326888D01*
X379293Y327350D01*
X383178D01*
X383724Y326638D01*
X384455Y326077D01*
X385307Y325724D01*
X385720Y325670D01*
Y329134D01*
X386221D01*
Y329634D01*
X389685D01*
X389630Y330047D01*
X389278Y330899D01*
X388717Y331630D01*
X388114Y332093D01*
X388275Y332566D01*
X414808D01*
X414897Y331888D01*
X415250Y331036D01*
X415811Y330305D01*
X416542Y329744D01*
X417393Y329391D01*
X418307Y329271D01*
X419221Y329391D01*
X420072Y329744D01*
X420803Y330305D01*
X421364Y331036D01*
X421717Y331888D01*
X421837Y332801D01*
X421717Y333715D01*
X421364Y334566D01*
X420803Y335297D01*
X420744Y335343D01*
X420905Y335816D01*
X427151D01*
X427192Y335504D01*
X427591Y334542D01*
X428224Y333716D01*
X429050Y333083D01*
X430011Y332684D01*
X431043Y332549D01*
X432075Y332684D01*
X433037Y333083D01*
X433862Y333716D01*
X434496Y334542D01*
X434583Y334751D01*
X437504D01*
X437591Y334542D01*
X438224Y333716D01*
X439050Y333083D01*
X440011Y332684D01*
X441043Y332549D01*
X442075Y332684D01*
X443037Y333083D01*
X443862Y333716D01*
X444496Y334542D01*
X444894Y335504D01*
X445030Y336535D01*
X444894Y337567D01*
X444496Y338529D01*
X443862Y339355D01*
X443037Y339988D01*
X442075Y340386D01*
X441043Y340522D01*
X440011Y340386D01*
X439050Y339988D01*
X438224Y339355D01*
X437591Y338529D01*
X437504Y338320D01*
X434583D01*
X434496Y338529D01*
X433862Y339355D01*
X433037Y339988D01*
X432075Y340386D01*
X431043Y340522D01*
X430011Y340386D01*
X429050Y339988D01*
X428263Y339385D01*
X369010D01*
X368774Y339826D01*
X368912Y340032D01*
X369035Y340650D01*
X368912Y341267D01*
X368627Y341694D01*
X371684Y344751D01*
X427504D01*
X427591Y344542D01*
X428224Y343716D01*
X429050Y343083D01*
X430011Y342684D01*
X431043Y342549D01*
X432075Y342684D01*
X433037Y343083D01*
X433862Y343716D01*
X434496Y344542D01*
X434583Y344751D01*
X437504D01*
X437591Y344542D01*
X438224Y343716D01*
X439050Y343083D01*
X440011Y342684D01*
X441043Y342549D01*
X442075Y342684D01*
X443037Y343083D01*
X443862Y343716D01*
X444496Y344542D01*
X444894Y345503D01*
X445030Y346535D01*
X444894Y347567D01*
X444496Y348529D01*
X443862Y349355D01*
X443037Y349988D01*
X442075Y350386D01*
X441043Y350522D01*
X440011Y350386D01*
X439050Y349988D01*
X438224Y349355D01*
X437591Y348529D01*
X437504Y348320D01*
X434583D01*
X434496Y348529D01*
X433862Y349355D01*
X433037Y349988D01*
X432075Y350386D01*
X431043Y350522D01*
X430011Y350386D01*
X429050Y349988D01*
X428224Y349355D01*
X427591Y348529D01*
X427504Y348320D01*
X370945D01*
X370945Y348320D01*
X370262Y348184D01*
X369683Y347797D01*
X364149Y342263D01*
X362697D01*
X362079Y342141D01*
X361556Y341791D01*
X361206Y341267D01*
X361083Y340650D01*
X361206Y340032D01*
X361556Y339509D01*
X361831Y339325D01*
Y338825D01*
X361556Y338641D01*
X361206Y338118D01*
X361083Y337500D01*
X361206Y336882D01*
X361244Y336826D01*
X361008Y336385D01*
X360056D01*
X360045Y336411D01*
X359484Y337142D01*
X358753Y337703D01*
X357902Y338056D01*
X356988Y338176D01*
X356075Y338056D01*
X355223Y337703D01*
X354492Y337142D01*
X354141Y336685D01*
X349493D01*
X349176Y337072D01*
X349276Y337571D01*
X349276Y337571D01*
X349276Y337571D01*
X349330Y337984D01*
X345866D01*
Y338984D01*
X349330D01*
X349276Y339398D01*
X348923Y340249D01*
X348362Y340981D01*
X347749Y341451D01*
Y343262D01*
X348190Y343498D01*
X348497Y343293D01*
X349114Y343170D01*
X349732Y343293D01*
X350255Y343642D01*
X350439Y343917D01*
X350939D01*
X351123Y343642D01*
X351646Y343293D01*
X352264Y343170D01*
X352881Y343293D01*
X353405Y343642D01*
X353589Y343917D01*
X354089D01*
X354272Y343642D01*
X354796Y343293D01*
X355413Y343170D01*
X356031Y343293D01*
X356554Y343642D01*
X356738Y343917D01*
X357238D01*
X357422Y343642D01*
X357945Y343293D01*
X358563Y343170D01*
X359180Y343293D01*
X359704Y343642D01*
X360054Y344166D01*
X360177Y344783D01*
Y346411D01*
X360211Y346463D01*
X360212Y346468D01*
X365942Y352197D01*
X366831Y352080D01*
X367744Y352200D01*
X368596Y352553D01*
X369327Y353114D01*
X369888Y353845D01*
X370241Y354697D01*
X370361Y355610D01*
X370241Y356524D01*
X369888Y357375D01*
X369327Y358106D01*
X368596Y358667D01*
X367744Y359020D01*
X366831Y359140D01*
X366707Y359124D01*
X366486Y359573D01*
X386886Y379973D01*
X387273Y380551D01*
X387408Y381234D01*
X387408Y381234D01*
Y392406D01*
X391528D01*
Y395768D01*
X392528D01*
Y392384D01*
X393296Y391616D01*
Y381396D01*
X391411Y379511D01*
X390523Y379394D01*
X389672Y379042D01*
X388941Y378481D01*
X388380Y377749D01*
X388027Y376898D01*
X387973Y376484D01*
X394901D01*
X394847Y376898D01*
X394764Y377097D01*
X395335Y377667D01*
X397908Y375094D01*
D01*
X397908D01*
Y375094D01*
D01*
X397908D01*
Y375094D01*
X397908D01*
X397908Y375094D01*
Y375094D01*
X397908Y375094D01*
Y375094D01*
X398570Y374652D01*
X399350Y374496D01*
X427626D01*
X428224Y373716D01*
X429050Y373083D01*
X430011Y372684D01*
X430543Y372614D01*
Y376535D01*
Y380456D01*
X430011Y380386D01*
X429050Y379988D01*
X428224Y379355D01*
X427626Y378575D01*
X400195D01*
X397374Y381396D01*
Y392406D01*
X406512D01*
Y393491D01*
X407465D01*
Y392307D01*
X411400D01*
X411459Y392164D01*
X411182Y391748D01*
X407465D01*
Y390819D01*
X407382D01*
X406601Y390664D01*
X405940Y390221D01*
X403327Y387609D01*
X402756Y387684D01*
X401842Y387563D01*
X400991Y387211D01*
X400260Y386650D01*
X399699Y385919D01*
X399346Y385067D01*
X399226Y384154D01*
X399346Y383240D01*
X399699Y382388D01*
X400260Y381657D01*
X400991Y381096D01*
X401842Y380744D01*
X402756Y380623D01*
X403670Y380744D01*
X404521Y381096D01*
X405252Y381657D01*
X405813Y382388D01*
X406166Y383240D01*
X406286Y384154D01*
X406211Y384725D01*
X407346Y385860D01*
X407465Y385811D01*
Y385811D01*
X407465Y385811D01*
X413402D01*
Y387888D01*
X423294Y397780D01*
X423736Y398442D01*
X423891Y399222D01*
Y424508D01*
X423736Y425289D01*
X423294Y425950D01*
X412866Y436379D01*
Y473787D01*
X413646Y474386D01*
X414280Y475211D01*
X414678Y476173D01*
X414814Y477205D01*
X414678Y478237D01*
X414280Y479198D01*
X413646Y480024D01*
X412820Y480657D01*
X411859Y481056D01*
X410827Y481192D01*
X409795Y481056D01*
X408833Y480657D01*
X408008Y480024D01*
X407374Y479198D01*
X406976Y478237D01*
X406840Y477205D01*
X406976Y476173D01*
X407374Y475211D01*
X408008Y474386D01*
X408788Y473787D01*
Y450410D01*
X408480D01*
Y450410D01*
X401484D01*
Y444685D01*
Y438961D01*
X408480D01*
D01*
X408480D01*
X408788Y438653D01*
Y435534D01*
X408788Y435534D01*
X408788D01*
X408943Y434754D01*
X409385Y434092D01*
X412406Y431071D01*
X412215Y430609D01*
X407139D01*
X406456Y430473D01*
X405877Y430087D01*
X403366Y427575D01*
X398016D01*
Y416126D01*
X403953D01*
Y423115D01*
X406609Y425772D01*
X407071Y425580D01*
Y416648D01*
X402053Y411630D01*
X393968D01*
Y416126D01*
X394898D01*
Y421350D01*
X388961D01*
Y416126D01*
X389890D01*
Y411630D01*
X387408D01*
Y474389D01*
X387882Y474550D01*
X388008Y474386D01*
X388788Y473787D01*
Y454843D01*
X388788Y454843D01*
X388788D01*
X388943Y454062D01*
X389385Y453401D01*
X393488Y449297D01*
Y445185D01*
X400484D01*
Y450410D01*
X398144D01*
X392866Y455687D01*
Y473787D01*
X393646Y474386D01*
X394280Y475211D01*
X394678Y476173D01*
X394748Y476705D01*
X390827D01*
Y477205D01*
X390327D01*
Y481126D01*
X389795Y481056D01*
X388833Y480657D01*
X388008Y480024D01*
X387882Y479860D01*
X387408Y480021D01*
Y481263D01*
X389586Y483440D01*
X389795Y483354D01*
X390827Y483218D01*
X391859Y483354D01*
X392820Y483752D01*
X393646Y484386D01*
X394280Y485211D01*
X394678Y486173D01*
X394814Y487205D01*
X394678Y488237D01*
X394280Y489198D01*
X393646Y490024D01*
X393482Y490150D01*
X393643Y490623D01*
X398011D01*
X398172Y490150D01*
X398008Y490024D01*
X397374Y489198D01*
X396976Y488237D01*
X396840Y487205D01*
X396976Y486173D01*
X397374Y485211D01*
X398008Y484386D01*
X398833Y483752D01*
X399795Y483354D01*
X400827Y483218D01*
X401859Y483354D01*
X402820Y483752D01*
X403646Y484386D01*
X404280Y485211D01*
X404678Y486173D01*
X404814Y487205D01*
X404678Y488237D01*
X404280Y489198D01*
X403646Y490024D01*
X403482Y490150D01*
X403643Y490623D01*
X404885D01*
X406874Y488634D01*
Y483252D01*
X414780D01*
Y491157D01*
X409397D01*
X406886Y493669D01*
X406307Y494056D01*
X405624Y494192D01*
X388672D01*
X387989Y494056D01*
X387410Y493669D01*
X387410Y493669D01*
X381362Y487621D01*
X380976Y487043D01*
X380840Y486360D01*
X380840Y486360D01*
X380840D01*
X380840Y486360D01*
X380840D01*
Y385725D01*
X370691Y375577D01*
X369801Y375694D01*
X368888Y375574D01*
X368036Y375221D01*
X368015Y375205D01*
X367619Y375509D01*
X367682Y375661D01*
X367802Y376575D01*
X367795Y376624D01*
X368125Y377000D01*
X369000D01*
Y500000D01*
X446000D01*
Y205000D01*
D02*
G37*
G36*
X412474Y415466D02*
X412609Y414784D01*
X412996Y414205D01*
X416818Y410383D01*
Y404184D01*
X410878Y398244D01*
X407465D01*
Y397060D01*
X406512D01*
Y399130D01*
X393968D01*
Y404906D01*
X406413D01*
Y406228D01*
X408171D01*
X408204Y405976D01*
X408557Y405125D01*
X409118Y404393D01*
X409849Y403832D01*
X410701Y403480D01*
X411614Y403360D01*
X412528Y403480D01*
X413379Y403832D01*
X414110Y404393D01*
X414671Y405125D01*
X415024Y405976D01*
X415144Y406890D01*
X415024Y407803D01*
X414671Y408655D01*
X414110Y409386D01*
X413379Y409947D01*
X412528Y410300D01*
X411614Y410420D01*
X410701Y410300D01*
X410562Y410242D01*
X410236Y410307D01*
X407151D01*
X406960Y410769D01*
X411481Y415290D01*
X411923Y415952D01*
X411958Y416126D01*
X412474D01*
Y415466D01*
D02*
G37*
G36*
X419813Y423664D02*
Y413088D01*
X419351Y412896D01*
X416042Y416206D01*
Y426782D01*
X416504Y426973D01*
X419813Y423664D01*
D02*
G37*
%LPC*%
G36*
X422827Y225583D02*
X420457D01*
Y223114D01*
X422827D01*
Y225583D01*
D02*
G37*
G36*
X426895Y214165D02*
X424427D01*
Y211697D01*
X426895D01*
Y214165D01*
D02*
G37*
G36*
X358653D02*
X356185D01*
Y211697D01*
X358653D01*
Y214165D01*
D02*
G37*
G36*
X426895Y217634D02*
X424427D01*
Y215165D01*
X426895D01*
Y217634D01*
D02*
G37*
G36*
X358653D02*
X356185D01*
Y215165D01*
X358653D01*
Y217634D01*
D02*
G37*
G36*
X400827Y481192D02*
X399795Y481056D01*
X398833Y480657D01*
X398008Y480024D01*
X397374Y479198D01*
X396976Y478237D01*
X396840Y477205D01*
X396976Y476173D01*
X397374Y475211D01*
X398008Y474386D01*
X398833Y473752D01*
X399795Y473354D01*
X400827Y473218D01*
X401859Y473354D01*
X402820Y473752D01*
X403646Y474386D01*
X404280Y475211D01*
X404678Y476173D01*
X404814Y477205D01*
X404678Y478237D01*
X404280Y479198D01*
X403646Y480024D01*
X402820Y480657D01*
X401859Y481056D01*
X400827Y481192D01*
D02*
G37*
G36*
X434684Y250583D02*
X426340D01*
Y248524D01*
X426429Y247851D01*
X426688Y247225D01*
X427101Y246687D01*
X427638Y246274D01*
X427419Y245744D01*
X427212Y245703D01*
X426751Y245395D01*
X426443Y244934D01*
X426356Y244496D01*
X433683D01*
X433596Y244934D01*
X433288Y245395D01*
X432953Y245618D01*
X433002Y246116D01*
X433385Y246274D01*
X433923Y246687D01*
X434336Y247225D01*
X434595Y247851D01*
X434684Y248524D01*
Y250583D01*
D02*
G37*
G36*
X334193Y249262D02*
X333161Y249127D01*
X332200Y248728D01*
X331374Y248095D01*
X330740Y247269D01*
X330342Y246307D01*
X330206Y245276D01*
X330342Y244244D01*
X330740Y243282D01*
X331374Y242457D01*
X332200Y241823D01*
X333161Y241425D01*
X334193Y241289D01*
X335225Y241425D01*
X336186Y241823D01*
X337012Y242457D01*
X337646Y243282D01*
X338044Y244244D01*
X338180Y245276D01*
X338044Y246307D01*
X337646Y247269D01*
X337012Y248095D01*
X336186Y248728D01*
X335225Y249127D01*
X334193Y249262D01*
D02*
G37*
G36*
X442520Y258406D02*
X441051D01*
Y254339D01*
X445315D01*
Y255610D01*
X445220Y256334D01*
X444941Y257008D01*
X444496Y257587D01*
X443918Y258031D01*
X443243Y258311D01*
X442520Y258406D01*
D02*
G37*
G36*
X324693Y249197D02*
Y245776D01*
X328114D01*
X328044Y246307D01*
X327646Y247269D01*
X327012Y248095D01*
X326186Y248728D01*
X325225Y249127D01*
X324693Y249197D01*
D02*
G37*
G36*
X368413Y234665D02*
Y231701D01*
X371378D01*
X371323Y232115D01*
X370971Y232966D01*
X370410Y233697D01*
X369678Y234258D01*
X368827Y234611D01*
X368413Y234665D01*
D02*
G37*
G36*
X371378Y230701D02*
X368413D01*
Y227736D01*
X368827Y227791D01*
X369678Y228144D01*
X370410Y228705D01*
X370971Y229436D01*
X371323Y230287D01*
X371378Y230701D01*
D02*
G37*
G36*
X244185Y244972D02*
X240889D01*
Y242697D01*
X241073Y241771D01*
X241598Y240985D01*
X242383Y240460D01*
X243310Y240276D01*
X244185D01*
Y244972D01*
D02*
G37*
G36*
X445316Y243102D02*
X435786D01*
Y241732D01*
X435885Y240983D01*
X436174Y240285D01*
X436634Y239685D01*
X437234Y239225D01*
X437469Y239128D01*
Y238628D01*
X437234Y238531D01*
X436634Y238071D01*
X436174Y237471D01*
X435885Y236773D01*
X435786Y236024D01*
Y234653D01*
X445316D01*
Y236024D01*
X445218Y236773D01*
X444928Y237471D01*
X444468Y238071D01*
X443869Y238531D01*
X443634Y238628D01*
Y239128D01*
X443869Y239225D01*
X444468Y239685D01*
X444928Y240285D01*
X445218Y240983D01*
X445316Y241732D01*
Y243102D01*
D02*
G37*
G36*
X307106Y159441D02*
X304142D01*
Y156477D01*
X304555Y156531D01*
X305407Y156884D01*
X306138Y157445D01*
X306699Y158176D01*
X307052Y159027D01*
X307106Y159441D01*
D02*
G37*
G36*
X303142D02*
X300177D01*
X300232Y159027D01*
X300585Y158176D01*
X301146Y157445D01*
X301877Y156884D01*
X302728Y156531D01*
X303142Y156477D01*
Y159441D01*
D02*
G37*
G36*
Y163405D02*
X302728Y163351D01*
X301877Y162998D01*
X301146Y162437D01*
X300585Y161706D01*
X300232Y160855D01*
X300177Y160441D01*
X303142D01*
Y163405D01*
D02*
G37*
G36*
X250098Y169828D02*
X248922Y169712D01*
X247791Y169369D01*
X246749Y168812D01*
X245835Y168062D01*
X245086Y167149D01*
X244528Y166106D01*
X244185Y164975D01*
X244069Y163799D01*
X244185Y162623D01*
X244528Y161492D01*
X245086Y160450D01*
X245835Y159536D01*
X246749Y158786D01*
X247791Y158229D01*
X248922Y157886D01*
X250098Y157770D01*
X251275Y157886D01*
X252406Y158229D01*
X253448Y158786D01*
X254362Y159536D01*
X255111Y160450D01*
X255668Y161492D01*
X256012Y162623D01*
X256128Y163799D01*
X256012Y164975D01*
X255668Y166106D01*
X255111Y167149D01*
X254362Y168062D01*
X253448Y168812D01*
X252406Y169369D01*
X251275Y169712D01*
X250098Y169828D01*
D02*
G37*
G36*
X296850Y152605D02*
X295921Y152483D01*
X295056Y152125D01*
X294312Y151554D01*
X293742Y150811D01*
X293383Y149945D01*
X293261Y149016D01*
X293383Y148087D01*
X293742Y147221D01*
X294312Y146477D01*
X295056Y145907D01*
X295921Y145548D01*
X296850Y145426D01*
X297779Y145548D01*
X298645Y145907D01*
X299389Y146477D01*
X299959Y147221D01*
X300318Y148087D01*
X300440Y149016D01*
X300318Y149945D01*
X299959Y150811D01*
X299389Y151554D01*
X298645Y152125D01*
X297779Y152483D01*
X296850Y152605D01*
D02*
G37*
G36*
X250098Y149828D02*
X248922Y149712D01*
X247791Y149369D01*
X246749Y148812D01*
X245835Y148062D01*
X245086Y147149D01*
X244528Y146106D01*
X244185Y144975D01*
X244069Y143799D01*
X244185Y142623D01*
X244528Y141492D01*
X245086Y140450D01*
X245835Y139536D01*
X246749Y138786D01*
X247791Y138229D01*
X248922Y137886D01*
X250098Y137770D01*
X251275Y137886D01*
X252406Y138229D01*
X253448Y138786D01*
X254362Y139536D01*
X255111Y140450D01*
X255668Y141492D01*
X256012Y142623D01*
X256128Y143799D01*
X256012Y144975D01*
X255668Y146106D01*
X255111Y147149D01*
X254362Y148062D01*
X253448Y148812D01*
X252406Y149369D01*
X251275Y149712D01*
X250098Y149828D01*
D02*
G37*
G36*
X336606Y148221D02*
X332134D01*
Y147539D01*
X332273Y146842D01*
X332668Y146251D01*
X333259Y145856D01*
X333957Y145717D01*
X336606D01*
Y148221D01*
D02*
G37*
G36*
X315059Y152605D02*
X314130Y152483D01*
X313264Y152125D01*
X312521Y151554D01*
X311950Y150811D01*
X311592Y149945D01*
X311469Y149016D01*
X311592Y148087D01*
X311950Y147221D01*
X312521Y146477D01*
X313264Y145907D01*
X314130Y145548D01*
X315059Y145426D01*
X315988Y145548D01*
X316854Y145907D01*
X317597Y146477D01*
X318168Y147221D01*
X318527Y148087D01*
X318649Y149016D01*
X318527Y149945D01*
X318168Y150811D01*
X317597Y151554D01*
X316854Y152125D01*
X315988Y152483D01*
X315059Y152605D01*
D02*
G37*
G36*
X362122Y211138D02*
X356185D01*
Y205201D01*
X362122D01*
Y206287D01*
X363961D01*
Y205102D01*
X369898D01*
Y211039D01*
X363961D01*
Y209855D01*
X362122D01*
Y211138D01*
D02*
G37*
G36*
X250295Y215005D02*
X249119Y214890D01*
X247988Y214546D01*
X246946Y213989D01*
X246032Y213240D01*
X245282Y212326D01*
X244725Y211284D01*
X244382Y210153D01*
X244266Y208976D01*
X244382Y207800D01*
X244725Y206669D01*
X245282Y205627D01*
X246032Y204713D01*
X246946Y203963D01*
X247988Y203406D01*
X249119Y203063D01*
X250295Y202947D01*
X251471Y203063D01*
X252603Y203406D01*
X253645Y203963D01*
X254558Y204713D01*
X255308Y205627D01*
X255865Y206669D01*
X256208Y207800D01*
X256324Y208976D01*
X256208Y210153D01*
X255865Y211284D01*
X255308Y212326D01*
X254558Y213240D01*
X253645Y213989D01*
X252603Y214546D01*
X251471Y214890D01*
X250295Y215005D01*
D02*
G37*
G36*
X394504Y211138D02*
X392035D01*
Y208669D01*
X394504D01*
Y211138D01*
D02*
G37*
G36*
X391327Y481126D02*
Y477705D01*
X394748D01*
X394678Y478237D01*
X394280Y479198D01*
X393646Y480024D01*
X392820Y480657D01*
X391859Y481056D01*
X391327Y481126D01*
D02*
G37*
G36*
X293224Y185449D02*
X284138D01*
Y174787D01*
X293224D01*
Y185449D01*
D02*
G37*
G36*
X323146Y179618D02*
X314059D01*
Y174787D01*
X314951D01*
X315142Y174326D01*
X304213Y163396D01*
X304142Y163405D01*
Y160441D01*
X307106D01*
X307097Y160512D01*
X320044Y173460D01*
X320486Y174121D01*
X320619Y174787D01*
X323146D01*
Y179618D01*
D02*
G37*
G36*
X290764Y195390D02*
Y195390D01*
X284827D01*
Y194559D01*
X282520D01*
X281739Y194404D01*
X281078Y193962D01*
X277558Y190442D01*
X277116Y189780D01*
X276961Y189000D01*
Y171000D01*
X276961Y171000D01*
X276961D01*
X277116Y170220D01*
X277558Y169558D01*
X279857Y167259D01*
X280519Y166817D01*
X281299Y166662D01*
X284138D01*
Y163370D01*
X293224D01*
Y166662D01*
X296701D01*
X297481Y166817D01*
X298143Y167259D01*
X303442Y172558D01*
X303442Y172558D01*
X303707Y172955D01*
X303884Y173220D01*
X304039Y174000D01*
Y177476D01*
X304226Y177553D01*
X304957Y178114D01*
X305518Y178845D01*
X305871Y179697D01*
X305991Y180610D01*
X305871Y181524D01*
X305518Y182375D01*
X304957Y183107D01*
X304226Y183668D01*
X303374Y184020D01*
X302461Y184140D01*
X301547Y184020D01*
X300695Y183668D01*
X299964Y183107D01*
X299403Y182375D01*
X299051Y181524D01*
X298930Y180610D01*
X299051Y179697D01*
X299403Y178845D01*
X299961Y178119D01*
Y174845D01*
X295856Y170740D01*
X293224D01*
Y174031D01*
X284138D01*
Y170740D01*
X282144D01*
X281039Y171845D01*
Y188155D01*
X283364Y190480D01*
X284827D01*
Y189650D01*
X290764D01*
Y189650D01*
X290764D01*
X290764Y189650D01*
X291126D01*
Y189650D01*
X293595D01*
Y192520D01*
Y195390D01*
X291126D01*
D01*
D01*
X291126Y195390D01*
X290764D01*
D02*
G37*
G36*
X250295Y195005D02*
X249119Y194890D01*
X247988Y194546D01*
X246946Y193989D01*
X246032Y193240D01*
X245282Y192326D01*
X244725Y191284D01*
X244382Y190153D01*
X244266Y188976D01*
X244382Y187800D01*
X244725Y186669D01*
X245282Y185627D01*
X246032Y184713D01*
X246946Y183963D01*
X247988Y183406D01*
X249119Y183063D01*
X250295Y182947D01*
X251471Y183063D01*
X252603Y183406D01*
X253645Y183963D01*
X254558Y184713D01*
X255308Y185627D01*
X255865Y186669D01*
X256208Y187800D01*
X256324Y188976D01*
X256208Y190153D01*
X255865Y191284D01*
X255308Y192326D01*
X254558Y193240D01*
X253645Y193989D01*
X252603Y194546D01*
X251471Y194890D01*
X250295Y195005D01*
D02*
G37*
G36*
X398417Y257669D02*
X395453D01*
X395507Y257256D01*
X395860Y256404D01*
X396421Y255673D01*
X397152Y255112D01*
X398004Y254759D01*
X398417Y254705D01*
Y257669D01*
D02*
G37*
G36*
X261433Y326079D02*
X255496D01*
Y324894D01*
X248539D01*
Y326079D01*
X242602D01*
Y320142D01*
X248539D01*
Y321326D01*
X255496D01*
Y320142D01*
X261433D01*
Y326079D01*
D02*
G37*
G36*
X441043Y370522D02*
X440011Y370386D01*
X439050Y369988D01*
X438224Y369355D01*
X437626Y368575D01*
X434461D01*
X433862Y369355D01*
X433037Y369988D01*
X432075Y370386D01*
X431043Y370522D01*
X430011Y370386D01*
X429050Y369988D01*
X428224Y369355D01*
X427591Y368529D01*
X427192Y367567D01*
X427057Y366535D01*
X427192Y365504D01*
X427591Y364542D01*
X428224Y363716D01*
X429050Y363083D01*
X430011Y362684D01*
X431043Y362549D01*
X432075Y362684D01*
X433037Y363083D01*
X433862Y363716D01*
X434461Y364496D01*
X437626D01*
X438224Y363716D01*
X439050Y363083D01*
X440011Y362684D01*
X441043Y362549D01*
X442075Y362684D01*
X443037Y363083D01*
X443862Y363716D01*
X444496Y364542D01*
X444894Y365504D01*
X445030Y366535D01*
X444894Y367567D01*
X444496Y368529D01*
X443862Y369355D01*
X443037Y369988D01*
X442075Y370386D01*
X441043Y370522D01*
D02*
G37*
G36*
X389685Y328634D02*
X386720D01*
Y325670D01*
X387134Y325724D01*
X387986Y326077D01*
X388717Y326638D01*
X389278Y327369D01*
X389630Y328220D01*
X389685Y328634D01*
D02*
G37*
G36*
X242043Y332433D02*
X236106D01*
Y329964D01*
X237036D01*
Y326079D01*
X236106D01*
Y323610D01*
X242043D01*
Y326079D01*
X241114D01*
Y329964D01*
X242043D01*
Y332433D01*
D02*
G37*
G36*
X444964Y376035D02*
X441543D01*
Y372614D01*
X442075Y372684D01*
X443037Y373083D01*
X443862Y373716D01*
X444496Y374542D01*
X444894Y375503D01*
X444964Y376035D01*
D02*
G37*
G36*
X394901Y375484D02*
X391937D01*
Y372520D01*
X392351Y372574D01*
X393202Y372927D01*
X393933Y373488D01*
X394494Y374219D01*
X394847Y375071D01*
X394901Y375484D01*
D02*
G37*
G36*
X390937D02*
X387973D01*
X388027Y375071D01*
X388380Y374219D01*
X388941Y373488D01*
X389672Y372927D01*
X390523Y372574D01*
X390937Y372520D01*
Y375484D01*
D02*
G37*
G36*
X242043Y342255D02*
X236106D01*
Y339787D01*
X237036D01*
Y335901D01*
X236106D01*
Y333433D01*
X242043D01*
Y335901D01*
X241114D01*
Y339787D01*
X242043D01*
Y342255D01*
D02*
G37*
G36*
X441043Y360522D02*
X440011Y360386D01*
X439050Y359988D01*
X438224Y359355D01*
X437626Y358575D01*
X434461D01*
X433862Y359355D01*
X433037Y359988D01*
X432075Y360386D01*
X431043Y360522D01*
X430011Y360386D01*
X429050Y359988D01*
X428224Y359355D01*
X427591Y358529D01*
X427192Y357567D01*
X427057Y356535D01*
X427192Y355504D01*
X427591Y354542D01*
X428224Y353716D01*
X429050Y353083D01*
X430011Y352684D01*
X431043Y352549D01*
X432075Y352684D01*
X433037Y353083D01*
X433862Y353716D01*
X434461Y354496D01*
X437626D01*
X438224Y353716D01*
X439050Y353083D01*
X440011Y352684D01*
X441043Y352549D01*
X442075Y352684D01*
X443037Y353083D01*
X443862Y353716D01*
X444496Y354542D01*
X444894Y355504D01*
X445030Y356535D01*
X444894Y357567D01*
X444496Y358529D01*
X443862Y359355D01*
X443037Y359988D01*
X442075Y360386D01*
X441043Y360522D01*
D02*
G37*
G36*
X273524Y372723D02*
X272610Y372603D01*
X271759Y372250D01*
X271027Y371689D01*
X270466Y370958D01*
X270114Y370107D01*
X269993Y369193D01*
X270114Y368279D01*
X270466Y367428D01*
X271027Y366697D01*
X271759Y366136D01*
X272610Y365783D01*
X273524Y365663D01*
X274413Y365780D01*
X275116Y365077D01*
X275116Y365077D01*
X275463Y364845D01*
X275695Y364690D01*
X276378Y364554D01*
X289961D01*
X290643Y364690D01*
X290877Y364846D01*
X294406D01*
Y370783D01*
X288469D01*
Y368123D01*
X277292D01*
X276962Y368499D01*
X277054Y369193D01*
X276934Y370107D01*
X276581Y370958D01*
X276020Y371689D01*
X275289Y372250D01*
X274437Y372603D01*
X273524Y372723D01*
D02*
G37*
G36*
X344005Y363423D02*
X343591Y363368D01*
X342740Y363016D01*
X342009Y362455D01*
X341448Y361724D01*
X341095Y360872D01*
X341041Y360458D01*
X344005D01*
Y363423D01*
D02*
G37*
G36*
X261433Y355547D02*
X255496D01*
Y354362D01*
X248539D01*
Y355547D01*
X242602D01*
Y349610D01*
X248539D01*
Y350794D01*
X255496D01*
Y349610D01*
X261433D01*
Y355547D01*
D02*
G37*
G36*
Y335901D02*
X255496D01*
Y334717D01*
X248539D01*
Y335901D01*
X242602D01*
Y329964D01*
X248539D01*
Y331149D01*
X255496D01*
Y329964D01*
X261433D01*
Y335901D01*
D02*
G37*
G36*
X242043Y352078D02*
X236106D01*
Y349610D01*
X237036D01*
Y345724D01*
X236106D01*
Y343255D01*
X242043D01*
Y345724D01*
X241114D01*
Y349610D01*
X242043D01*
Y352078D01*
D02*
G37*
G36*
X261433Y345724D02*
X255496D01*
Y344540D01*
X248539D01*
Y345724D01*
X242602D01*
Y339787D01*
X248539D01*
Y340971D01*
X255496D01*
Y339787D01*
X261433D01*
Y345724D01*
D02*
G37*
G36*
Y316256D02*
X255496D01*
Y315072D01*
X248539D01*
Y316256D01*
X242602D01*
Y310319D01*
X248539D01*
Y311503D01*
X255496D01*
Y310319D01*
X261433D01*
Y316256D01*
D02*
G37*
G36*
X280602Y280772D02*
X277306D01*
Y278497D01*
X277490Y277571D01*
X278015Y276785D01*
X278801Y276260D01*
X279727Y276076D01*
X280602D01*
Y280772D01*
D02*
G37*
G36*
X293520Y279520D02*
X291150D01*
Y277051D01*
X293520D01*
Y279520D01*
D02*
G37*
G36*
X255035Y279913D02*
X252665D01*
Y277445D01*
X255035D01*
Y279913D01*
D02*
G37*
G36*
X339409Y280365D02*
X338378Y280229D01*
X337416Y279831D01*
X336590Y279197D01*
X335957Y278371D01*
X335558Y277410D01*
X335423Y276378D01*
X335558Y275346D01*
X335957Y274384D01*
X336590Y273559D01*
X337416Y272925D01*
X338378Y272527D01*
X339409Y272391D01*
X340441Y272527D01*
X341403Y272925D01*
X342229Y273559D01*
X342862Y274384D01*
X343261Y275346D01*
X343396Y276378D01*
X343261Y277410D01*
X342862Y278371D01*
X342229Y279197D01*
X341403Y279831D01*
X340441Y280229D01*
X339409Y280365D01*
D02*
G37*
G36*
X440051Y258406D02*
X438583D01*
X437859Y258311D01*
X437185Y258031D01*
X436606Y257587D01*
X436162Y257008D01*
X435882Y256334D01*
X435822Y255878D01*
X433402D01*
X433385Y255891D01*
X432759Y256150D01*
X432087Y256239D01*
X431012D01*
Y251583D01*
X434684D01*
Y251799D01*
X435822D01*
X435882Y251343D01*
X436162Y250669D01*
X436606Y250090D01*
X437185Y249646D01*
X437859Y249367D01*
X438512Y249281D01*
Y248345D01*
X437932Y248269D01*
X437234Y247979D01*
X436634Y247519D01*
X436174Y246920D01*
X435885Y246222D01*
X435786Y245472D01*
Y244102D01*
X445316D01*
Y245472D01*
X445218Y246222D01*
X444928Y246920D01*
X444468Y247519D01*
X443869Y247979D01*
X443170Y248269D01*
X442590Y248345D01*
Y249281D01*
X443243Y249367D01*
X443918Y249646D01*
X444496Y250090D01*
X444941Y250669D01*
X445220Y251343D01*
X445315Y252067D01*
Y253339D01*
X440551D01*
Y253839D01*
X440051D01*
Y258406D01*
D02*
G37*
G36*
X398417Y261634D02*
X398004Y261579D01*
X397152Y261227D01*
X396421Y260665D01*
X395860Y259934D01*
X395507Y259083D01*
X395453Y258669D01*
X398417D01*
Y261634D01*
D02*
G37*
G36*
X420017Y266094D02*
X408264D01*
X407483Y265939D01*
X406822Y265497D01*
X401932Y260607D01*
X401433Y260640D01*
X401413Y260665D01*
X400682Y261227D01*
X399831Y261579D01*
X399417Y261634D01*
Y258169D01*
Y254705D01*
X399831Y254759D01*
X400682Y255112D01*
X401413Y255673D01*
X401764Y256130D01*
X402378D01*
X403158Y256285D01*
X403820Y256727D01*
X406364Y259272D01*
X406804Y259055D01*
X406925Y258141D01*
X407277Y257290D01*
X407838Y256559D01*
X408569Y255998D01*
X409421Y255645D01*
X410335Y255525D01*
X411224Y255642D01*
X411883Y254983D01*
Y253165D01*
X404512D01*
Y251252D01*
X397990D01*
X391546Y257697D01*
X391621Y258268D01*
X391500Y259181D01*
X391148Y260033D01*
X390587Y260764D01*
X389856Y261325D01*
X389004Y261678D01*
X388090Y261798D01*
X387177Y261678D01*
X386326Y261325D01*
X385594Y260764D01*
X385033Y260033D01*
X384681Y259181D01*
X384560Y258268D01*
X384681Y257354D01*
X385033Y256503D01*
X385594Y255771D01*
X386326Y255210D01*
X387177Y254858D01*
X388090Y254737D01*
X388662Y254813D01*
X395704Y247771D01*
X396365Y247329D01*
X397146Y247173D01*
X404512D01*
Y245260D01*
X412417D01*
Y245628D01*
X412879Y245820D01*
X422887Y235812D01*
X422712Y235391D01*
X422685Y235350D01*
X420457D01*
Y234421D01*
X411634D01*
X410853Y234266D01*
X410192Y233824D01*
X409439Y233071D01*
X408465Y233199D01*
X407433Y233064D01*
X406471Y232665D01*
X405645Y232032D01*
X405012Y231206D01*
X404613Y230244D01*
X404478Y229213D01*
X404613Y228181D01*
X405012Y227219D01*
X405645Y226393D01*
X406471Y225760D01*
X407433Y225362D01*
X408465Y225226D01*
X409496Y225362D01*
X410458Y225760D01*
X411284Y226393D01*
X411917Y227219D01*
X412316Y228181D01*
X412451Y229213D01*
X412352Y229967D01*
X412682Y230343D01*
X420457D01*
Y229413D01*
X420457Y229413D01*
X420457Y229051D01*
X420457D01*
Y226583D01*
X423327D01*
Y226083D01*
X423827D01*
Y223114D01*
X426197D01*
Y223114D01*
X426564D01*
X426688Y222816D01*
X427101Y222278D01*
X427638Y221865D01*
X428265Y221606D01*
X428937Y221517D01*
X430012D01*
Y226673D01*
X430512D01*
Y227173D01*
X434684D01*
Y229232D01*
X434595Y229904D01*
X434336Y230531D01*
X433923Y231069D01*
X433385Y231481D01*
X432759Y231741D01*
X432087Y231829D01*
X431592D01*
X431524Y232053D01*
X431821Y232455D01*
X432283D01*
X432632Y232524D01*
X432928Y232722D01*
X433125Y233017D01*
X433195Y233366D01*
Y234154D01*
X433125Y234502D01*
X432928Y234798D01*
X432888Y235242D01*
X432928Y235281D01*
X432928Y235281D01*
X432928D01*
X433125Y235577D01*
X433195Y235925D01*
Y236713D01*
X433125Y237061D01*
X432928Y237357D01*
X432888Y237801D01*
X432928Y237840D01*
X432928Y237840D01*
X432928D01*
X433125Y238136D01*
X433195Y238484D01*
Y239272D01*
X433125Y239620D01*
X432928Y239916D01*
X432888Y240360D01*
X432928Y240399D01*
X432928Y240399D01*
X432928D01*
X433125Y240695D01*
X433195Y241043D01*
Y241831D01*
X433125Y242179D01*
X433125Y242179D01*
X433125Y242179D01*
X433196Y242536D01*
X433288Y242598D01*
X433596Y243059D01*
X433683Y243496D01*
X426356D01*
X426374Y243405D01*
X425958Y243127D01*
X425673Y243318D01*
X419955Y249036D01*
Y255421D01*
X420191Y255518D01*
X420922Y256079D01*
X421460Y256780D01*
X421959Y256764D01*
X421984Y256727D01*
X426340Y252371D01*
Y251583D01*
X430012D01*
Y256239D01*
X428937D01*
X428321Y256158D01*
X425465Y259013D01*
Y260647D01*
X425465Y260647D01*
X425310Y261427D01*
X424868Y262089D01*
X421459Y265497D01*
X420798Y265939D01*
X420017Y266094D01*
D02*
G37*
G36*
X280602Y286469D02*
X279727D01*
X278801Y286285D01*
X278015Y285760D01*
X277490Y284974D01*
X277306Y284047D01*
Y281772D01*
X280602D01*
Y286469D01*
D02*
G37*
G36*
X343610Y313701D02*
Y310736D01*
X346575D01*
X346520Y311150D01*
X346167Y312001D01*
X345606Y312733D01*
X344875Y313294D01*
X344024Y313646D01*
X343610Y313701D01*
D02*
G37*
G36*
X242043Y322610D02*
X236106D01*
Y320142D01*
X237036D01*
Y316256D01*
X236106D01*
Y313787D01*
X242043D01*
Y316256D01*
X241114D01*
Y320142D01*
X242043D01*
Y322610D01*
D02*
G37*
G36*
X441543Y380456D02*
Y377035D01*
X444964D01*
X444894Y377567D01*
X444496Y378529D01*
X443862Y379355D01*
X443037Y379988D01*
X442075Y380386D01*
X441543Y380456D01*
D02*
G37*
G36*
X342610Y313701D02*
X342197Y313646D01*
X341345Y313294D01*
X340614Y312733D01*
X340053Y312001D01*
X339700Y311150D01*
X339646Y310736D01*
X342610D01*
Y313701D01*
D02*
G37*
G36*
X400484Y444185D02*
X393488D01*
Y440073D01*
X390487Y437072D01*
X390045Y436410D01*
X389890Y435630D01*
Y427575D01*
X388961D01*
Y422350D01*
X394898D01*
Y427575D01*
X393968D01*
Y434785D01*
X398144Y438961D01*
X400484D01*
Y444185D01*
D02*
G37*
G36*
X242043Y312787D02*
X236106D01*
Y310319D01*
X237036D01*
Y306433D01*
X236106D01*
Y303965D01*
X242043D01*
Y306433D01*
X241114D01*
Y310319D01*
X242043D01*
Y312787D01*
D02*
G37*
G36*
X440543Y380456D02*
X440011Y380386D01*
X439050Y379988D01*
X438224Y379355D01*
X437626Y378575D01*
X434461D01*
X433862Y379355D01*
X433037Y379988D01*
X432075Y380386D01*
X431543Y380456D01*
Y376535D01*
Y372614D01*
X432075Y372684D01*
X433037Y373083D01*
X433862Y373716D01*
X434461Y374496D01*
X437626D01*
X438224Y373716D01*
X439050Y373083D01*
X440011Y372684D01*
X440543Y372614D01*
Y376535D01*
Y380456D01*
D02*
G37*
%LPD*%
D10*
X320571Y340650D02*
D03*
Y337500D02*
D03*
Y334350D02*
D03*
Y331201D02*
D03*
Y328051D02*
D03*
Y324902D02*
D03*
Y321752D02*
D03*
Y318602D02*
D03*
Y315453D02*
D03*
Y312303D02*
D03*
Y309154D02*
D03*
X365059D02*
D03*
Y312303D02*
D03*
Y315453D02*
D03*
Y318602D02*
D03*
Y321752D02*
D03*
Y324902D02*
D03*
Y328051D02*
D03*
Y331201D02*
D03*
Y334350D02*
D03*
Y337500D02*
D03*
Y340650D02*
D03*
D11*
X327067Y302658D02*
D03*
X330217D02*
D03*
X333366D02*
D03*
X336516D02*
D03*
X339665D02*
D03*
X342815D02*
D03*
X345965D02*
D03*
X349114D02*
D03*
X352264D02*
D03*
X355413D02*
D03*
X358563D02*
D03*
Y347146D02*
D03*
X355413D02*
D03*
X352264D02*
D03*
X349114D02*
D03*
X345965D02*
D03*
X342815D02*
D03*
X339665D02*
D03*
X336516D02*
D03*
X333366D02*
D03*
X330217D02*
D03*
X327067D02*
D03*
D12*
X416831Y196949D02*
D03*
X410925D02*
D03*
X405020D02*
D03*
X399114D02*
D03*
X393209D02*
D03*
X387303D02*
D03*
X381398D02*
D03*
X375492D02*
D03*
X369587D02*
D03*
X363681D02*
D03*
X357776D02*
D03*
X351870D02*
D03*
X345965D02*
D03*
Y141831D02*
D03*
X351870D02*
D03*
X357776D02*
D03*
X363681D02*
D03*
X369587D02*
D03*
X375492D02*
D03*
X381398D02*
D03*
X387303D02*
D03*
X393209D02*
D03*
X399114D02*
D03*
X405020D02*
D03*
X410925D02*
D03*
X416831D02*
D03*
D13*
X337106Y190059D02*
D03*
Y184154D02*
D03*
Y178248D02*
D03*
Y172343D02*
D03*
Y166437D02*
D03*
Y160531D02*
D03*
Y154626D02*
D03*
Y148721D02*
D03*
D14*
X391929Y421850D02*
D03*
X400984D02*
D03*
X410039D02*
D03*
D15*
X400984Y444685D02*
D03*
D16*
X281102Y245472D02*
D03*
X298802D02*
D03*
X281102Y281272D02*
D03*
X298802D02*
D03*
X244685Y245472D02*
D03*
X262385D02*
D03*
X244685Y281272D02*
D03*
X262385D02*
D03*
D17*
X264961Y303465D02*
D03*
X258465D02*
D03*
X264961Y313287D02*
D03*
X258465D02*
D03*
X264961Y323110D02*
D03*
X258465D02*
D03*
X264961Y332933D02*
D03*
X258465D02*
D03*
X264961Y342755D02*
D03*
X258465D02*
D03*
X264961Y352578D02*
D03*
X258465D02*
D03*
X291339Y295374D02*
D03*
X297835D02*
D03*
X267224Y290354D02*
D03*
X273721D02*
D03*
X245571Y303465D02*
D03*
X239075D02*
D03*
X245571Y313287D02*
D03*
X239075D02*
D03*
X245571Y323110D02*
D03*
X239075D02*
D03*
X245571Y332933D02*
D03*
X239075D02*
D03*
X245571Y342755D02*
D03*
X239075D02*
D03*
X245571Y352578D02*
D03*
X239075D02*
D03*
X297933Y367815D02*
D03*
X291437D02*
D03*
X364469D02*
D03*
X357972D02*
D03*
D18*
X427395Y208169D02*
D03*
Y214665D02*
D03*
X398721Y208169D02*
D03*
Y214665D02*
D03*
X366929Y214567D02*
D03*
Y208071D02*
D03*
X420177Y214567D02*
D03*
Y208071D02*
D03*
X410433Y388779D02*
D03*
Y395276D02*
D03*
X398425Y238090D02*
D03*
Y231594D02*
D03*
X391535Y214665D02*
D03*
Y208169D02*
D03*
X359154Y208169D02*
D03*
Y214665D02*
D03*
D19*
X440551Y243602D02*
D03*
Y234154D02*
D03*
D20*
X430020Y243996D02*
D03*
Y241437D02*
D03*
Y238878D02*
D03*
Y236319D02*
D03*
Y233760D02*
D03*
D21*
X440551Y253839D02*
D03*
X440531Y223917D02*
D03*
D22*
X430512Y226673D02*
D03*
Y251083D02*
D03*
D23*
X288681Y168701D02*
D03*
Y180118D02*
D03*
X318602D02*
D03*
D24*
X423327Y232382D02*
D03*
Y226083D02*
D03*
X290650Y280020D02*
D03*
Y286319D02*
D03*
X252165Y280413D02*
D03*
Y286713D02*
D03*
X305315Y310728D02*
D03*
Y317028D02*
D03*
X441043Y207972D02*
D03*
Y214272D02*
D03*
D25*
X401673Y395768D02*
D03*
X392028D02*
D03*
X401575Y408268D02*
D03*
X391929D02*
D03*
D26*
X287795Y192520D02*
D03*
X294094D02*
D03*
D27*
X281299Y168701D02*
X288681D01*
X279000Y171000D02*
X281299Y168701D01*
X279000Y171000D02*
Y189000D01*
X282520Y192520D01*
X287795D01*
X302000Y180150D02*
X302461Y180610D01*
X302000Y174000D02*
Y180150D01*
X296701Y168701D02*
X302000Y174000D01*
X288681Y168701D02*
X296701D01*
X303642Y159941D02*
X318602Y174902D01*
Y180118D01*
X339990Y317520D02*
X351181D01*
X337825Y315354D02*
X339990Y317520D01*
X322736Y315354D02*
X337825D01*
X351181Y317520D02*
X354921Y313779D01*
X393957Y235086D02*
X397449Y231594D01*
X398425D01*
X393957Y235086D02*
Y238720D01*
X393209Y239469D02*
X393957Y238720D01*
X391043Y239469D02*
X393209D01*
X398917Y258169D02*
X402378D01*
X408264Y264055D01*
X420017D01*
X423426Y260647D01*
Y258169D02*
Y260647D01*
Y258169D02*
X430512Y251083D01*
X293795Y204925D02*
X306201Y192520D01*
X283137Y204925D02*
X293795D01*
X269236Y218826D02*
X283137Y204925D01*
X269236Y218826D02*
Y229484D01*
X265365Y233355D02*
X269236Y229484D01*
X284587Y208425D02*
X343468D01*
X272736Y220276D02*
X284587Y208425D01*
X272736Y220276D02*
Y238681D01*
X265365Y233355D02*
Y238822D01*
X289172Y245472D02*
X295571Y239074D01*
Y222638D02*
Y239074D01*
Y222638D02*
X304331Y213878D01*
X349099Y334646D02*
X356988D01*
X347937Y333484D02*
X349099Y334646D01*
X343795Y333484D02*
X347937D01*
X342634Y334646D02*
X343795Y333484D01*
X342618Y334646D02*
X342634D01*
X339766Y337498D02*
X342618Y334646D01*
X388090Y258268D02*
X397146Y249213D01*
X408465D01*
X306594Y388779D02*
X310433Y384941D01*
X281024Y392500D02*
X315607D01*
X272539Y400984D02*
X281024Y392500D01*
X391437Y376654D02*
X395335Y380551D01*
X391437Y375984D02*
Y376654D01*
X344587Y244882D02*
X356977Y232492D01*
X344193Y245276D02*
X344587Y244882D01*
X356977Y232492D02*
X361041D01*
X304331Y213878D02*
X324587D01*
X364029Y227316D02*
X367913Y231201D01*
X364764Y219193D02*
Y227724D01*
X407382Y388779D02*
X410433D01*
X402756Y384154D02*
X407382Y388779D01*
X399350Y376535D02*
X431043D01*
X395335Y380551D02*
X399350Y376535D01*
X395335Y380551D02*
Y392461D01*
X306201Y192520D02*
X318602Y180118D01*
X390827Y454843D02*
X400984Y444685D01*
X390827Y454843D02*
Y477205D01*
X421852Y399222D02*
Y424508D01*
X410827Y435534D02*
X421852Y424508D01*
X410433Y388779D02*
X411410D01*
X421852Y399222D01*
X410827Y435534D02*
Y477205D01*
X392028Y395768D02*
X395335Y392461D01*
X391929Y395866D02*
X392028Y395768D01*
X273721Y284547D02*
Y290354D01*
X273031Y283858D02*
X273721Y284547D01*
X343468Y208425D02*
X350433Y201460D01*
Y198386D02*
Y201460D01*
Y198386D02*
X351870Y196949D01*
X352658Y196161D01*
Y186909D02*
Y196161D01*
X434350Y208268D02*
X434646Y207972D01*
X441043D01*
X440531Y223917D02*
X441043Y223406D01*
Y214272D02*
Y223406D01*
X427395Y214665D02*
X427789Y214272D01*
X441043D01*
X281102Y245472D02*
X289172D01*
X324193Y245276D02*
X324587Y244882D01*
Y213878D02*
Y244882D01*
X294343Y299843D02*
X294429D01*
X305315Y310728D01*
X239075Y286883D02*
Y302488D01*
Y303465D01*
Y302488D02*
X242567Y298996D01*
X267965D01*
X285996Y317028D01*
X305315D01*
X273721Y290354D02*
X278846D01*
X297835Y295374D02*
Y296351D01*
X294343Y299843D02*
X297835Y296351D01*
X288334Y299843D02*
X294343D01*
X278846Y290354D02*
X288334Y299843D01*
X289397Y281272D02*
X290650Y280020D01*
X281102Y281272D02*
X289397D01*
X251306D02*
X252165Y280413D01*
X244685Y281272D02*
X251306D01*
X252755Y245472D02*
X259405Y238822D01*
X244685Y245472D02*
X252755D01*
X272015D02*
X281102D01*
X265365Y238822D02*
X272015Y245472D01*
X259405Y238822D02*
X265365D01*
X239075Y286883D02*
X244685Y281272D01*
X294094Y192520D02*
X306201D01*
X239075Y303465D02*
Y313287D01*
Y323110D01*
Y332933D01*
Y342755D01*
Y352578D01*
X319297Y391240D02*
X355413D01*
X317056Y389000D02*
X319297Y391240D01*
X314492Y389000D02*
X317056D01*
X310433Y384941D02*
X314492Y389000D01*
X315607Y392500D02*
X322024Y398917D01*
X337205D01*
X345965Y141831D02*
Y196949D01*
X343996Y141831D02*
X345965D01*
X337106Y148721D02*
X343996Y141831D01*
X391929Y408268D02*
Y421850D01*
Y395866D02*
Y408268D01*
X401575D02*
X410039Y416732D01*
Y421850D01*
X401575Y408268D02*
X410236D01*
X411614Y406890D01*
X391929Y421850D02*
Y435630D01*
X400984Y444685D01*
X431043Y376535D02*
X441043D01*
X431043Y366535D02*
X441043D01*
X431043Y356535D02*
X441043D01*
X433268Y223917D02*
X440531D01*
X430512Y226673D02*
X433268Y223917D01*
X440531D02*
Y234134D01*
X440551Y234154D01*
Y243602D01*
Y253839D01*
X433268D02*
X440551D01*
X430512Y251083D02*
X433268Y253839D01*
X430020Y243996D02*
Y250590D01*
X430512Y251083D01*
X344587Y213878D02*
Y244882D01*
X319409Y250059D02*
X324193Y245276D01*
X319409Y250059D02*
Y276378D01*
X344193Y245276D02*
X349410Y250492D01*
Y276378D01*
X290945Y352953D02*
X306594Y368602D01*
X308169D01*
X306004Y316142D02*
X306102Y316240D01*
X313484Y315453D02*
X320571D01*
X308760Y310728D02*
X313484Y315453D01*
X305315Y310728D02*
X308760D01*
X244685Y245472D02*
Y281272D01*
X307622Y252122D02*
X308366Y251378D01*
X295417Y252122D02*
X307622D01*
X280315Y267224D02*
X295417Y252122D01*
X239075Y352578D02*
Y367520D01*
X249902Y371161D02*
Y378543D01*
X260138Y388779D01*
X306594D01*
X239075Y367520D02*
X246402Y374847D01*
Y379993D01*
X267393Y400984D01*
X272539D01*
X423917Y226673D02*
X430512D01*
X423327Y226083D02*
X423917Y226673D01*
X424705Y233760D02*
X430020D01*
X423327Y232382D02*
X424705Y233760D01*
X411634Y232382D02*
X423327D01*
X408465Y229213D02*
X411634Y232382D01*
X342715Y347146D02*
X342815D01*
X339766Y337498D02*
Y347146D01*
D28*
X335827Y351439D02*
Y352954D01*
Y351439D02*
X336366Y350900D01*
Y347295D02*
Y350900D01*
Y347295D02*
X336516Y347146D01*
X335827Y352954D02*
X338206Y355332D01*
X331183Y351841D02*
Y354250D01*
X329035Y356398D02*
X331183Y354250D01*
X325590Y356398D02*
X329035D01*
X354693Y318604D02*
X356814D01*
X352527Y320770D02*
X354693Y318604D01*
X351898Y320770D02*
X352527D01*
X330217Y342451D02*
X351898Y320770D01*
X410335Y259055D02*
X413667Y255722D01*
Y247555D02*
Y255722D01*
X358413Y301320D02*
X375394Y284340D01*
Y247507D02*
Y284340D01*
Y247507D02*
X395525Y227376D01*
X330217Y342451D02*
Y347146D01*
X333366D02*
Y349657D01*
X331183Y351841D02*
X333366Y349657D01*
X349114Y347146D02*
X349264Y347295D01*
Y365209D01*
X349902Y365846D01*
X339173Y374114D02*
X343799D01*
X345669Y375984D01*
X353543D01*
X357972Y371555D01*
Y367815D02*
Y371555D01*
X348819Y347441D02*
X349114Y347146D01*
X352264D02*
Y355217D01*
X358268Y361221D01*
X355413Y294105D02*
Y302658D01*
Y294105D02*
X363313Y286205D01*
Y252870D02*
Y286205D01*
Y252870D02*
X392549Y223634D01*
X383385Y223731D02*
X388232Y218884D01*
X410748Y220877D02*
X411448Y220177D01*
X414567D01*
X420177Y214567D01*
X395525Y227376D02*
X397372D01*
X415959Y208789D01*
Y205170D02*
Y208789D01*
Y205170D02*
X416831Y204298D01*
Y196949D02*
Y204298D01*
X410262Y197612D02*
Y210243D01*
X401621Y218884D02*
X410262Y210243D01*
Y197612D02*
X410925Y196949D01*
X388232Y218884D02*
X401621D01*
X388274Y285939D02*
X398445D01*
X365059Y309154D02*
X388274Y285939D01*
X396924Y275590D02*
X404529Y283195D01*
X388386Y275590D02*
X396924D01*
X360896Y303081D02*
X388386Y275590D01*
X360896Y303081D02*
Y305986D01*
X425264Y280756D02*
X431043Y286535D01*
X410903Y280756D02*
X425264D01*
X408464Y283195D02*
X410903Y280756D01*
X404529Y283195D02*
X408464D01*
X359671Y307210D02*
X360896Y305986D01*
X359671Y307210D02*
Y315747D01*
X412402Y272539D02*
X425039D01*
X431043Y266535D01*
X429823Y277756D02*
X431043Y276535D01*
X407185Y277756D02*
X429823D01*
X406496Y278445D02*
X407185Y277756D01*
X413484Y311221D02*
X418799D01*
X356814Y318604D02*
X359671Y315747D01*
X328530Y281581D02*
X334744Y287795D01*
X317254Y281581D02*
X328530D01*
X314207Y278533D02*
X317254Y281581D01*
X314207Y237829D02*
Y278533D01*
X305906Y229528D02*
X314207Y237829D01*
X358563Y347146D02*
Y347342D01*
X367569Y356348D01*
X382624Y384986D02*
Y486360D01*
X388672Y492408D01*
X369801Y372164D02*
X382624Y384986D01*
X388672Y492408D02*
X405624D01*
X410827Y487205D01*
X385654Y208169D02*
X391535D01*
X359154Y214665D02*
X359909D01*
X364029Y218785D01*
X375038D01*
X385654Y208169D01*
X318602Y180181D02*
X335370Y196949D01*
X345965D01*
X318602Y180118D02*
Y180181D01*
X413667Y247555D02*
X424213Y237010D01*
X367957Y312446D02*
X383868Y296535D01*
X431043D01*
X365059Y337600D02*
X429978D01*
X431043Y336535D01*
X370945Y346535D02*
X431043D01*
X365059Y340650D02*
X370945Y346535D01*
X355413Y347146D02*
Y351024D01*
X385624Y482002D02*
X390827Y487205D01*
X385624Y381234D02*
Y482002D01*
X355413Y351024D02*
X385624Y381234D01*
X339665Y296457D02*
Y302658D01*
Y296457D02*
X343431Y292691D01*
X342815Y298917D02*
Y302658D01*
Y298917D02*
X344291Y297441D01*
X347835D01*
X358563Y286713D01*
Y277559D02*
Y286713D01*
X333366Y302658D02*
Y309738D01*
X333982Y310354D01*
X329921Y297146D02*
X330217D01*
X320374Y287598D02*
X329921Y297146D01*
X330217D02*
Y302658D01*
X359154Y208169D02*
X359252Y208071D01*
X366929D01*
X427297D02*
X427362Y208137D01*
X427395Y208169D01*
X427362Y200197D02*
Y208137D01*
X366929Y214567D02*
X372539D01*
X374606Y212500D01*
X398721Y208169D02*
X399016Y207874D01*
X405512D01*
X396949Y173327D02*
X416831Y153445D01*
Y141831D02*
Y153445D01*
X420177Y208071D02*
X427297D01*
X391535Y214665D02*
X398721D01*
X336366Y302508D02*
X336516Y302658D01*
X263583Y286713D02*
X267224Y290354D01*
X290650Y286319D02*
X292730Y284238D01*
X294770D01*
X297735Y281272D01*
X298802D01*
X264961Y303465D02*
X283248Y321752D01*
X320571D01*
X264961Y313287D02*
X276575Y324902D01*
X320571D01*
X264961Y323110D02*
X276201Y334350D01*
X320571D01*
X264961Y332933D02*
X269528Y337500D01*
X320571D01*
X264961Y342755D02*
X267066Y340650D01*
X320571D01*
X264961Y352578D02*
X270393Y347146D01*
X327067D01*
X245571Y313287D02*
X258465D01*
X245472Y303396D02*
X258366D01*
X245571Y323110D02*
X258465D01*
X245571Y332933D02*
X258465D01*
X245571Y342755D02*
X258465D01*
X245571Y352578D02*
X258465D01*
X364272Y376575D02*
X364469Y376378D01*
Y367815D02*
Y376378D01*
X273622Y368110D02*
X273819Y367913D01*
X297933Y367815D02*
Y375886D01*
X291339Y367913D02*
X291437Y367815D01*
X402165Y395276D02*
X410433D01*
X401673Y395768D02*
X402165Y395276D01*
X400984Y421850D02*
Y422670D01*
X407139Y428825D01*
X412940D01*
X414258Y427507D01*
Y415466D02*
Y427507D01*
Y415466D02*
X418602Y411122D01*
Y403445D02*
Y411122D01*
X410433Y395276D02*
X418602Y403445D01*
X431043Y346535D02*
X441043D01*
X431043Y336535D02*
X441043D01*
X431043Y326535D02*
X441043D01*
X431043Y316535D02*
X441043D01*
X431043Y306535D02*
X441043D01*
X431043Y296535D02*
X441043D01*
X431043Y286535D02*
X441043D01*
X431043Y276535D02*
X441043D01*
X431043Y266535D02*
X441043D01*
X399547Y239213D02*
X408465D01*
X398425Y238090D02*
X399547Y239213D01*
X326476Y331201D02*
X329528Y334252D01*
X320571Y331201D02*
X326476D01*
X327788Y328051D02*
X328953Y326886D01*
X320571Y328051D02*
X327788D01*
X306201Y301476D02*
X316927Y312203D01*
X320571D01*
X308071Y292520D02*
Y296629D01*
X320571Y309129D01*
Y309154D01*
X298320Y287770D02*
X312179D01*
X327067Y302658D01*
X267224Y290354D02*
Y290977D01*
X284318Y308071D01*
X290945D01*
X336366Y293038D02*
X344160Y285245D01*
X336366Y293038D02*
Y302508D01*
X399114Y141831D02*
Y150394D01*
X392520Y156988D02*
X399114Y150394D01*
X403333Y143518D02*
X405020Y141831D01*
X403333Y143518D02*
Y159463D01*
X388583Y174213D02*
X403333Y159463D01*
X430978Y306470D02*
X431043Y306535D01*
X378175Y306470D02*
X430978D01*
X378357Y310531D02*
X412795D01*
X413484Y311221D01*
X380807Y314173D02*
X412194D01*
X412242Y314220D01*
X415082D02*
X416832Y315970D01*
X419193D01*
X420939Y317717D01*
X412242Y314220D02*
X415082D01*
X365059Y315453D02*
X365154Y315358D01*
X366627D01*
X369200Y315446D02*
X378175Y306470D01*
X365059Y324902D02*
X365209Y324752D01*
X374471D01*
X366627Y315358D02*
X366715Y315446D01*
X369200D01*
X374471Y324752D02*
X380030Y319193D01*
X418173D01*
X375441Y319539D02*
X380807Y314173D01*
X365059Y327951D02*
X365108Y327902D01*
X380926Y322539D02*
X395955D01*
X373592Y319539D02*
X375441D01*
X365059Y321752D02*
X371379D01*
X373592Y319539D01*
X365059Y318602D02*
X370286D01*
X378357Y310531D01*
X365108Y327902D02*
X375564D01*
X380926Y322539D01*
X418173Y319193D02*
X421151Y322171D01*
X425408D01*
X431043Y316535D01*
X395955Y322539D02*
X399105Y325689D01*
X430197D01*
X431043Y326535D01*
X378574Y329134D02*
X386221D01*
X376757Y330951D02*
X378574Y329134D01*
X365209Y330951D02*
X376757D01*
X365059Y331100D02*
X365209Y330951D01*
X320522Y315203D02*
X320571Y315252D01*
X305315Y317028D02*
X308169D01*
X309894Y318752D01*
X336273D01*
X341651Y324130D01*
X291339Y294751D02*
X298320Y287770D01*
X290650Y286319D02*
X291339Y287008D01*
Y294751D01*
Y295374D01*
X256945Y286713D02*
X263583D01*
X256945D02*
X262385Y281272D01*
X252165Y286713D02*
X256945D01*
X273524Y369193D02*
X276378Y366339D01*
X289961D01*
X291437Y367815D01*
X351279Y328839D02*
X358368D01*
X360730Y331201D02*
X365059D01*
X358368Y328839D02*
X360730Y331201D01*
X356988Y334646D02*
X357033Y334600D01*
X364809D01*
X365059Y334350D01*
X416758D02*
X418307Y332801D01*
X365059Y334350D02*
X416758D01*
X345965Y302658D02*
Y307382D01*
X343110Y310236D02*
X345965Y307382D01*
X349114Y302658D02*
Y307972D01*
X354921Y313779D01*
X339665Y347146D02*
X339766D01*
X342715D01*
X344505Y359959D02*
X345846Y358617D01*
Y348711D02*
Y358617D01*
X345965Y338583D02*
Y347146D01*
X345866Y338484D02*
X345965Y338583D01*
X262385Y245472D02*
Y281272D01*
D29*
X427568Y239260D02*
X430020D01*
X418426Y248402D02*
X427568Y239260D01*
X418426Y248402D02*
Y258576D01*
X424463Y236760D02*
X430020D01*
X424213Y237010D02*
X424463Y236760D01*
D30*
X245177Y400197D02*
Y432076D01*
X248602Y460955D02*
Y486221D01*
X268602Y456299D02*
Y486221D01*
Y456299D02*
X268799Y456102D01*
X288602Y460562D02*
Y486221D01*
X281000Y452959D02*
X288602Y460562D01*
X281000Y436807D02*
Y452959D01*
Y436807D02*
X288602Y429205D01*
Y404016D02*
Y429205D01*
Y404016D02*
X292421Y400197D01*
X248602Y460955D02*
X256598Y452959D01*
Y443498D02*
Y452959D01*
X245177Y432076D02*
X256598Y443498D01*
X356516Y460955D02*
Y486122D01*
X348323Y452762D02*
X356516Y460955D01*
X348323Y436610D02*
Y452762D01*
Y436610D02*
X356516Y428417D01*
Y403228D02*
Y428417D01*
Y403228D02*
X359744Y400000D01*
X316516Y460168D02*
Y486122D01*
Y460168D02*
X323921Y452762D01*
Y436610D02*
Y452762D01*
X316516Y429205D02*
X323921Y436610D01*
X316516Y404016D02*
Y429205D01*
X312500Y400000D02*
X316516Y404016D01*
X336516Y456299D02*
Y486122D01*
X336122Y455905D02*
X336516Y456299D01*
D31*
X245177Y400197D02*
D03*
X292421D02*
D03*
Y448228D02*
D03*
X245177D02*
D03*
X268799Y456102D02*
D03*
X312500Y400000D02*
D03*
X359744D02*
D03*
Y448032D02*
D03*
X312500D02*
D03*
X336122Y455905D02*
D03*
D32*
X250098Y163799D02*
D03*
Y143799D02*
D03*
X250295Y208976D02*
D03*
Y188976D02*
D03*
X248602Y486221D02*
D03*
X268602D02*
D03*
X288602D02*
D03*
X316516Y486122D02*
D03*
X336516D02*
D03*
X356516D02*
D03*
D33*
X349410Y276378D02*
D03*
X344587Y213878D02*
D03*
X410827Y487205D02*
D03*
X344193Y245276D02*
D03*
D34*
X339409Y276378D02*
D03*
X329410D02*
D03*
X319409D02*
D03*
X334587Y213878D02*
D03*
X324587D02*
D03*
X431043Y376535D02*
D03*
X441043D02*
D03*
X431043Y366535D02*
D03*
X441043D02*
D03*
X431043Y356535D02*
D03*
X441043D02*
D03*
X431043Y346535D02*
D03*
X441043D02*
D03*
X431043Y336535D02*
D03*
X441043D02*
D03*
X431043Y326535D02*
D03*
X441043D02*
D03*
X431043Y316535D02*
D03*
X441043D02*
D03*
X431043Y306535D02*
D03*
X441043D02*
D03*
X431043Y296535D02*
D03*
X441043D02*
D03*
X431043Y286535D02*
D03*
X441043D02*
D03*
X431043Y276535D02*
D03*
X441043D02*
D03*
X431043Y266535D02*
D03*
X390827Y477205D02*
D03*
Y487205D02*
D03*
X400827Y477205D02*
D03*
Y487205D02*
D03*
X410827Y477205D02*
D03*
X334193Y245276D02*
D03*
X324193D02*
D03*
X408465Y229213D02*
D03*
Y239213D02*
D03*
D35*
X441043Y266535D02*
D03*
X408465Y249213D02*
D03*
D36*
X315059Y149016D02*
D03*
X296850D02*
D03*
D37*
X398917Y258169D02*
D03*
X410335Y259055D02*
D03*
X308366Y251378D02*
D03*
X290945Y352953D02*
D03*
X308169Y368602D02*
D03*
X351279Y328839D02*
D03*
X341651Y324130D02*
D03*
X343110Y310236D02*
D03*
X388090Y258268D02*
D03*
X345866Y338484D02*
D03*
X344505Y359959D02*
D03*
X338206Y355332D02*
D03*
X325590Y356398D02*
D03*
X349902Y365846D02*
D03*
X358268Y361221D02*
D03*
X391437Y375984D02*
D03*
X392549Y223634D02*
D03*
X383385Y223731D02*
D03*
X410748Y220877D02*
D03*
X398445Y285939D02*
D03*
X412402Y272539D02*
D03*
X418799Y311221D02*
D03*
X406496Y278445D02*
D03*
X361041Y232492D02*
D03*
X391043Y239469D02*
D03*
X334744Y287795D02*
D03*
X305906Y229528D02*
D03*
X367913Y231201D02*
D03*
X402756Y384154D02*
D03*
X418307Y332801D02*
D03*
X366831Y355610D02*
D03*
X369801Y372164D02*
D03*
X418426Y258576D02*
D03*
X423130Y317421D02*
D03*
X273031Y283858D02*
D03*
X272736Y238681D02*
D03*
X352658Y186909D02*
D03*
X434350Y208268D02*
D03*
X343431Y292691D02*
D03*
X333982Y310354D02*
D03*
X320374Y287598D02*
D03*
X302461Y180610D02*
D03*
X427362Y200197D02*
D03*
X374606Y212500D02*
D03*
X405512Y207874D02*
D03*
X396949Y173327D02*
D03*
X249902Y371161D02*
D03*
X355413Y391240D02*
D03*
X310433Y384941D02*
D03*
X272539Y400984D02*
D03*
X337205Y398917D02*
D03*
X364272Y376575D02*
D03*
X339173Y374114D02*
D03*
X297933Y375886D02*
D03*
X273524Y369193D02*
D03*
X356988Y334646D02*
D03*
X354921Y313779D02*
D03*
X411614Y406890D02*
D03*
X329528Y334252D02*
D03*
X328953Y326886D02*
D03*
X306201Y301476D02*
D03*
X308071Y292520D02*
D03*
X290945Y308071D02*
D03*
X358563Y277559D02*
D03*
X344160Y285245D02*
D03*
X392520Y156988D02*
D03*
X388583Y174213D02*
D03*
X386221Y329134D02*
D03*
X303642Y159941D02*
D03*
X280315Y267224D02*
D03*
M02*
