%FSLAX25Y25*%
%MOIN*%
G70*
G01*
G75*
G04 Layer_Color=16711935*
%ADD10O,0.06890X0.02165*%
%ADD11O,0.02165X0.06890*%
G04:AMPARAMS|DCode=12|XSize=78.74mil|YSize=39.37mil|CornerRadius=7.87mil|HoleSize=0mil|Usage=FLASHONLY|Rotation=270.000|XOffset=0mil|YOffset=0mil|HoleType=Round|Shape=RoundedRectangle|*
%AMROUNDEDRECTD12*
21,1,0.07874,0.02362,0,0,270.0*
21,1,0.06299,0.03937,0,0,270.0*
1,1,0.01575,-0.01181,-0.03150*
1,1,0.01575,-0.01181,0.03150*
1,1,0.01575,0.01181,0.03150*
1,1,0.01575,0.01181,-0.03150*
%
%ADD12ROUNDEDRECTD12*%
G04:AMPARAMS|DCode=13|XSize=39.37mil|YSize=78.74mil|CornerRadius=7.87mil|HoleSize=0mil|Usage=FLASHONLY|Rotation=270.000|XOffset=0mil|YOffset=0mil|HoleType=Round|Shape=RoundedRectangle|*
%AMROUNDEDRECTD13*
21,1,0.03937,0.06299,0,0,270.0*
21,1,0.02362,0.07874,0,0,270.0*
1,1,0.01575,-0.03150,-0.01181*
1,1,0.01575,-0.03150,0.01181*
1,1,0.01575,0.03150,0.01181*
1,1,0.01575,0.03150,-0.01181*
%
%ADD13ROUNDEDRECTD13*%
%ADD14R,0.03937X0.09449*%
%ADD15R,0.12992X0.09449*%
G04:AMPARAMS|DCode=16|XSize=83mil|YSize=55mil|CornerRadius=13.75mil|HoleSize=0mil|Usage=FLASHONLY|Rotation=90.000|XOffset=0mil|YOffset=0mil|HoleType=Round|Shape=RoundedRectangle|*
%AMROUNDEDRECTD16*
21,1,0.08300,0.02750,0,0,90.0*
21,1,0.05550,0.05500,0,0,90.0*
1,1,0.02750,0.01375,0.02775*
1,1,0.02750,0.01375,-0.02775*
1,1,0.02750,-0.01375,-0.02775*
1,1,0.02750,-0.01375,0.02775*
%
%ADD16ROUNDEDRECTD16*%
%ADD17R,0.03937X0.03937*%
%ADD18R,0.03937X0.03937*%
G04:AMPARAMS|DCode=19|XSize=74.8mil|YSize=74.8mil|CornerRadius=18.7mil|HoleSize=0mil|Usage=FLASHONLY|Rotation=90.000|XOffset=0mil|YOffset=0mil|HoleType=Round|Shape=RoundedRectangle|*
%AMROUNDEDRECTD19*
21,1,0.07480,0.03740,0,0,90.0*
21,1,0.03740,0.07480,0,0,90.0*
1,1,0.03740,0.01870,0.01870*
1,1,0.03740,0.01870,-0.01870*
1,1,0.03740,-0.01870,-0.01870*
1,1,0.03740,-0.01870,0.01870*
%
%ADD19ROUNDEDRECTD19*%
G04:AMPARAMS|DCode=20|XSize=15.75mil|YSize=53.15mil|CornerRadius=3.94mil|HoleSize=0mil|Usage=FLASHONLY|Rotation=90.000|XOffset=0mil|YOffset=0mil|HoleType=Round|Shape=RoundedRectangle|*
%AMROUNDEDRECTD20*
21,1,0.01575,0.04528,0,0,90.0*
21,1,0.00787,0.05315,0,0,90.0*
1,1,0.00787,0.02264,0.00394*
1,1,0.00787,0.02264,-0.00394*
1,1,0.00787,-0.02264,-0.00394*
1,1,0.00787,-0.02264,0.00394*
%
%ADD20ROUNDEDRECTD20*%
G04:AMPARAMS|DCode=21|XSize=70.87mil|YSize=74.8mil|CornerRadius=17.72mil|HoleSize=0mil|Usage=FLASHONLY|Rotation=90.000|XOffset=0mil|YOffset=0mil|HoleType=Round|Shape=RoundedRectangle|*
%AMROUNDEDRECTD21*
21,1,0.07087,0.03937,0,0,90.0*
21,1,0.03543,0.07480,0,0,90.0*
1,1,0.03543,0.01969,0.01772*
1,1,0.03543,0.01969,-0.01772*
1,1,0.03543,-0.01969,-0.01772*
1,1,0.03543,-0.01969,0.01772*
%
%ADD21ROUNDEDRECTD21*%
G04:AMPARAMS|DCode=22|XSize=82.68mil|YSize=62.99mil|CornerRadius=15.75mil|HoleSize=0mil|Usage=FLASHONLY|Rotation=90.000|XOffset=0mil|YOffset=0mil|HoleType=Round|Shape=RoundedRectangle|*
%AMROUNDEDRECTD22*
21,1,0.08268,0.03150,0,0,90.0*
21,1,0.05118,0.06299,0,0,90.0*
1,1,0.03150,0.01575,0.02559*
1,1,0.03150,0.01575,-0.02559*
1,1,0.03150,-0.01575,-0.02559*
1,1,0.03150,-0.01575,0.02559*
%
%ADD22ROUNDEDRECTD22*%
%ADD23R,0.07087X0.08661*%
%ADD24R,0.03740X0.03937*%
%ADD25R,0.07677X0.04724*%
%ADD26R,0.03937X0.03740*%
%ADD27C,0.02000*%
%ADD28C,0.01500*%
%ADD29C,0.01000*%
%ADD30C,0.10000*%
%ADD31C,0.09843*%
%ADD32C,0.10000*%
%ADD33R,0.05906X0.05906*%
%ADD34C,0.05906*%
%ADD35R,0.05906X0.05906*%
%ADD36C,0.05118*%
%ADD37C,0.05000*%
%ADD38R,0.02284X0.04646*%
%ADD39R,0.04134X0.12992*%
%ADD40R,0.41339X0.33071*%
%ADD41R,0.05118X0.02362*%
%ADD42R,0.08661X0.11417*%
%ADD43R,0.04724X0.07677*%
%ADD44C,0.02362*%
%ADD45C,0.00984*%
%ADD46C,0.00394*%
%ADD47C,0.00787*%
%ADD48C,0.00100*%
%ADD49O,0.07690X0.02965*%
%ADD50O,0.02965X0.07690*%
G04:AMPARAMS|DCode=51|XSize=86.74mil|YSize=47.37mil|CornerRadius=11.87mil|HoleSize=0mil|Usage=FLASHONLY|Rotation=270.000|XOffset=0mil|YOffset=0mil|HoleType=Round|Shape=RoundedRectangle|*
%AMROUNDEDRECTD51*
21,1,0.08674,0.02362,0,0,270.0*
21,1,0.06299,0.04737,0,0,270.0*
1,1,0.02375,-0.01181,-0.03150*
1,1,0.02375,-0.01181,0.03150*
1,1,0.02375,0.01181,0.03150*
1,1,0.02375,0.01181,-0.03150*
%
%ADD51ROUNDEDRECTD51*%
G04:AMPARAMS|DCode=52|XSize=47.37mil|YSize=86.74mil|CornerRadius=11.87mil|HoleSize=0mil|Usage=FLASHONLY|Rotation=270.000|XOffset=0mil|YOffset=0mil|HoleType=Round|Shape=RoundedRectangle|*
%AMROUNDEDRECTD52*
21,1,0.04737,0.06299,0,0,270.0*
21,1,0.02362,0.08674,0,0,270.0*
1,1,0.02375,-0.03150,-0.01181*
1,1,0.02375,-0.03150,0.01181*
1,1,0.02375,0.03150,0.01181*
1,1,0.02375,0.03150,-0.01181*
%
%ADD52ROUNDEDRECTD52*%
%ADD53R,0.04737X0.10249*%
%ADD54R,0.13792X0.10249*%
G04:AMPARAMS|DCode=55|XSize=91mil|YSize=63mil|CornerRadius=17.75mil|HoleSize=0mil|Usage=FLASHONLY|Rotation=90.000|XOffset=0mil|YOffset=0mil|HoleType=Round|Shape=RoundedRectangle|*
%AMROUNDEDRECTD55*
21,1,0.09100,0.02750,0,0,90.0*
21,1,0.05550,0.06300,0,0,90.0*
1,1,0.03550,0.01375,0.02775*
1,1,0.03550,0.01375,-0.02775*
1,1,0.03550,-0.01375,-0.02775*
1,1,0.03550,-0.01375,0.02775*
%
%ADD55ROUNDEDRECTD55*%
%ADD56R,0.04737X0.04737*%
%ADD57R,0.04737X0.04737*%
G04:AMPARAMS|DCode=58|XSize=82.8mil|YSize=82.8mil|CornerRadius=22.7mil|HoleSize=0mil|Usage=FLASHONLY|Rotation=90.000|XOffset=0mil|YOffset=0mil|HoleType=Round|Shape=RoundedRectangle|*
%AMROUNDEDRECTD58*
21,1,0.08280,0.03740,0,0,90.0*
21,1,0.03740,0.08280,0,0,90.0*
1,1,0.04540,0.01870,0.01870*
1,1,0.04540,0.01870,-0.01870*
1,1,0.04540,-0.01870,-0.01870*
1,1,0.04540,-0.01870,0.01870*
%
%ADD58ROUNDEDRECTD58*%
G04:AMPARAMS|DCode=59|XSize=23.75mil|YSize=61.15mil|CornerRadius=7.94mil|HoleSize=0mil|Usage=FLASHONLY|Rotation=90.000|XOffset=0mil|YOffset=0mil|HoleType=Round|Shape=RoundedRectangle|*
%AMROUNDEDRECTD59*
21,1,0.02375,0.04528,0,0,90.0*
21,1,0.00787,0.06115,0,0,90.0*
1,1,0.01587,0.02264,0.00394*
1,1,0.01587,0.02264,-0.00394*
1,1,0.01587,-0.02264,-0.00394*
1,1,0.01587,-0.02264,0.00394*
%
%ADD59ROUNDEDRECTD59*%
G04:AMPARAMS|DCode=60|XSize=78.87mil|YSize=82.8mil|CornerRadius=21.72mil|HoleSize=0mil|Usage=FLASHONLY|Rotation=90.000|XOffset=0mil|YOffset=0mil|HoleType=Round|Shape=RoundedRectangle|*
%AMROUNDEDRECTD60*
21,1,0.07887,0.03937,0,0,90.0*
21,1,0.03543,0.08280,0,0,90.0*
1,1,0.04343,0.01969,0.01772*
1,1,0.04343,0.01969,-0.01772*
1,1,0.04343,-0.01969,-0.01772*
1,1,0.04343,-0.01969,0.01772*
%
%ADD60ROUNDEDRECTD60*%
G04:AMPARAMS|DCode=61|XSize=90.68mil|YSize=70.99mil|CornerRadius=19.75mil|HoleSize=0mil|Usage=FLASHONLY|Rotation=90.000|XOffset=0mil|YOffset=0mil|HoleType=Round|Shape=RoundedRectangle|*
%AMROUNDEDRECTD61*
21,1,0.09068,0.03150,0,0,90.0*
21,1,0.05118,0.07099,0,0,90.0*
1,1,0.03950,0.01575,0.02559*
1,1,0.03950,0.01575,-0.02559*
1,1,0.03950,-0.01575,-0.02559*
1,1,0.03950,-0.01575,0.02559*
%
%ADD61ROUNDEDRECTD61*%
%ADD62R,0.07887X0.09461*%
%ADD63R,0.04540X0.04737*%
%ADD64R,0.08477X0.05524*%
%ADD65R,0.04737X0.04540*%
%ADD66C,0.10642*%
%ADD67C,0.10800*%
%ADD68R,0.06706X0.06706*%
%ADD69C,0.06706*%
%ADD70R,0.06706X0.06706*%
%ADD71C,0.05918*%
%ADD72R,0.03084X0.05446*%
%ADD73R,0.04934X0.13792*%
%ADD74R,0.42139X0.33871*%
%ADD75R,0.05918X0.03162*%
%ADD76R,0.09461X0.12217*%
%ADD77R,0.05524X0.08477*%
D56*
X289567Y385138D02*
D03*
X296063D02*
D03*
X355906Y384547D02*
D03*
X362402D02*
D03*
D57*
X277067Y385236D02*
D03*
Y391732D02*
D03*
X345079Y384547D02*
D03*
Y391043D02*
D03*
D65*
X349114Y316929D02*
D03*
X342815D02*
D03*
X358169Y339862D02*
D03*
X351870D02*
D03*
D66*
X245177Y400197D02*
D03*
X292421D02*
D03*
Y448228D02*
D03*
X245177D02*
D03*
X268799Y456102D02*
D03*
X312500Y400000D02*
D03*
X359744D02*
D03*
Y448032D02*
D03*
X312500D02*
D03*
X336122Y455905D02*
D03*
D67*
X250098Y163799D02*
D03*
Y143799D02*
D03*
X250295Y208976D02*
D03*
Y188976D02*
D03*
X248602Y486221D02*
D03*
X268602D02*
D03*
X288602D02*
D03*
X316516Y486122D02*
D03*
X336516D02*
D03*
X356516D02*
D03*
D68*
X349410Y276378D02*
D03*
X344587Y213878D02*
D03*
X410827Y487205D02*
D03*
X344193Y245276D02*
D03*
D69*
X339409Y276378D02*
D03*
X329410D02*
D03*
X319409D02*
D03*
X334587Y213878D02*
D03*
X324587D02*
D03*
X431043Y376535D02*
D03*
X441043D02*
D03*
X431043Y366535D02*
D03*
X441043D02*
D03*
X431043Y356535D02*
D03*
X441043D02*
D03*
X431043Y346535D02*
D03*
X441043D02*
D03*
X431043Y336535D02*
D03*
X441043D02*
D03*
X431043Y326535D02*
D03*
X441043D02*
D03*
X431043Y316535D02*
D03*
X441043D02*
D03*
X431043Y306535D02*
D03*
X441043D02*
D03*
X431043Y296535D02*
D03*
X441043D02*
D03*
X431043Y286535D02*
D03*
X441043D02*
D03*
X431043Y276535D02*
D03*
X441043D02*
D03*
X431043Y266535D02*
D03*
X390827Y477205D02*
D03*
Y487205D02*
D03*
X400827Y477205D02*
D03*
Y487205D02*
D03*
X410827Y477205D02*
D03*
X334193Y245276D02*
D03*
X324193D02*
D03*
X408465Y229213D02*
D03*
Y239213D02*
D03*
D70*
X441043Y266535D02*
D03*
X408465Y249213D02*
D03*
D71*
X315059Y149016D02*
D03*
X296850D02*
D03*
D72*
X273917Y189567D02*
D03*
X277854D02*
D03*
X281791D02*
D03*
X285728D02*
D03*
X289665D02*
D03*
Y168622D02*
D03*
X285728D02*
D03*
X281791D02*
D03*
X277854D02*
D03*
X273917D02*
D03*
D73*
X393169Y269488D02*
D03*
X383169D02*
D03*
X373169D02*
D03*
D74*
X383169Y307087D02*
D03*
D75*
X264469Y412894D02*
D03*
X272736Y409154D02*
D03*
Y416634D02*
D03*
X332185Y411122D02*
D03*
X340453Y407382D02*
D03*
Y414862D02*
D03*
D76*
X262697Y372933D02*
D03*
Y386319D02*
D03*
X327854Y372539D02*
D03*
Y385925D02*
D03*
D77*
X383465Y250295D02*
D03*
Y240650D02*
D03*
X371850Y250394D02*
D03*
Y240748D02*
D03*
M02*
